<?xml version="1.0" standalone="no"?>
<!DOCTYPE svg PUBLIC "-//W3C//DTD SVG 1.1//EN" "http://www.w3.org/Graphics/SVG/1.1/DTD/svg11.dtd" >
<svg>
<metadata>
Created by FontForge 20090622 at Tue Mar  5 18:03:52 2019
 By deploy user
Copyright (C) 2001, 2008 Hoefler &#38; Frere-Jones. http://www.typography.com
</metadata>
<defs>
<font id="iCielGotham-Black" horiz-adv-x="500" >
  <font-face 
    font-family="iCiel Gotham Black"
    font-weight="400"
    font-stretch="normal"
    units-per-em="1000"
    panose-1="0 0 0 0 0 0 0 0 0 0"
    ascent="800"
    descent="-200"
    x-height="541"
    cap-height="700"
    bbox="-371 -314 1260 1131"
    underline-thickness="50"
    underline-position="-50"
    unicode-range="U+000D-U+FB04"
  />
<missing-glyph 
d="M0 -200v1000h500v-1000h-500zM71 750l179 -390l179 390h-358zM50 -76l172 376l-172 376v-752zM450 676l-172 -376l172 -376v752zM250 240l-179 -390h358z" />
    <glyph glyph-name="ff" unicode="ff" horiz-adv-x="808" 
d="M85 0v389h-63v150h63v11q0 94 46 140q47 47 142 47q75 0 123 -15v-134q-36 11 -71 11q-54 0 -54 -51v-13h125v-146h-121v-389h-190zM489 0v389h-63v147h63v14q0 94 46 140q47 47 142 47q75 0 123 -15v-134q-36 11 -71 11q-54 0 -54 -51v-13h125v-146h-121v-389h-190z" />
    <glyph glyph-name="fi" unicode="fi" horiz-adv-x="705" 
d="M85 0v389h-63v150h63v11q0 94 46 140q47 47 142 47q75 0 123 -15v-134q-36 11 -71 11q-54 0 -54 -51v-13h125v-146h-121v-389h-190zM460 0v541h189v-541h-189zM456 590v140h197v-140h-197z" />
    <glyph glyph-name="fl" unicode="fl" horiz-adv-x="705" 
d="M85 0v389h-63v150h63v11q0 94 46 140q47 47 142 47q75 0 123 -15v-134q-36 11 -71 11q-54 0 -54 -51v-13h125v-146h-121v-389h-190zM460 0v730h189v-730h-189z" />
    <glyph glyph-name="ffi" unicode="ffi" horiz-adv-x="1109" 
d="M85 0v389h-63v150h63v11q0 94 46 140q47 47 142 47q75 0 123 -15v-134q-36 11 -71 11q-54 0 -54 -51v-13h125v-146h-121v-389h-190zM489 0v389h-63v147h63v14q0 94 46 140q47 47 142 47q75 0 123 -15v-134q-36 11 -71 11q-54 0 -54 -51v-13h125v-146h-121v-389h-190z
M864 0v541h189v-541h-189zM860 590v140h197v-140h-197z" />
    <glyph glyph-name="ffl" unicode="ffl" horiz-adv-x="1109" 
d="M85 0v389h-63v150h63v11q0 94 46 140q47 47 142 47q75 0 123 -15v-134q-36 11 -71 11q-54 0 -54 -51v-13h125v-146h-121v-389h-190zM489 0v389h-63v147h63v14q0 94 46 140q47 47 142 47q75 0 123 -15v-134q-36 11 -71 11q-54 0 -54 -51v-13h125v-146h-121v-389h-190z
M864 0v730h189v-730h-189z" />
    <glyph glyph-name=".notdef" 
d="M0 -200v1000h500v-1000h-500zM71 750l179 -390l179 390h-358zM50 -76l172 376l-172 376v-752zM450 676l-172 -376l172 -376v752zM250 240l-179 -390h358z" />
    <glyph glyph-name=".null" horiz-adv-x="0" 
 />
    <glyph glyph-name="nonmarkingreturn" horiz-adv-x="333" 
 />
    <glyph glyph-name="NULL" horiz-adv-x="0" 
 />
    <glyph glyph-name="NULL" horiz-adv-x="0" 
 />
    <glyph glyph-name="CR" unicode="&#xd;" horiz-adv-x="250" 
 />
    <glyph glyph-name="space" unicode=" " horiz-adv-x="277" 
 />
    <glyph glyph-name="exclam" unicode="!" horiz-adv-x="324" 
d="M113 228l-59 387v85h216v-85l-58 -387h-99zM64 0v170h197v-170h-197z" />
    <glyph glyph-name="quotedbl" unicode="&#x22;" horiz-adv-x="537" 
d="M291 341l22 359h204v-5l-127 -354h-99zM34 341l23 359h203v-5l-126 -354h-100z" />
    <glyph glyph-name="numbersign" unicode="#" horiz-adv-x="706" 
d="M643 296v-161h-120l-23 -135h-144l23 135h-127l-23 -135h-145l23 135h-77v161h104l20 113h-91v160h118l23 131h145l-23 -131h127l23 131h144l-23 -131h79v-160h-106l-20 -113h93zM295 415l-21 -125h136l22 125h-137z" />
    <glyph glyph-name="dollar" unicode="$" horiz-adv-x="666" 
d="M612 621l-82 -135q-61 43 -134 61v-119q123 -28 179 -75q60 -51 60 -141v-2q0 -90 -65 -146q-61 -53 -171 -64v-98h-104v99q-154 15 -270 100l90 133q102 -68 186 -83v121q-124 28 -181 76q-62 51 -62 141v2q0 89 63 144q64 58 176 65v58h104v-60q114 -13 211 -77z
M462 197v2q0 39 -67 57v-110q67 6 67 51zM234 506v-2q0 -37 68 -57v108q-68 -5 -68 -49z" />
    <glyph glyph-name="percent" unicode="%" horiz-adv-x="899" 
d="M85 389q-50 53 -50 131v2q0 78 50 133q51 55 131 55t131 -55q49 -52 49 -132v-2q0 -77 -50 -132q-52 -55 -131 -55t-130 55zM173 579q-16 -22 -16 -56v-2q0 -32 17 -55t42 -23q26 0 42 22t16 55v2q0 33 -17 56t-42 23q-26 0 -42 -22zM407 377l245 323h135l-298 -381
l-242 -319h-135zM553 45q-50 55 -50 132v2q0 80 49 133q51 55 132 55q80 0 131 -55q49 -52 49 -132v-2q0 -77 -50 -132q-53 -56 -131 -56q-79 0 -130 55zM726 122q16 22 16 55v2q0 33 -17 56t-42 23q-27 0 -42 -22q-16 -22 -16 -56v-2q0 -32 17 -55t42 -23q26 0 42 22z" />
    <glyph glyph-name="ampersand" unicode="&#x26;" horiz-adv-x="698" 
d="M551 -14l-72 73q-95 -71 -208 -71q-109 0 -178 54q-71 56 -71 149v2q0 131 142 195q-46 64 -46 135v2q0 80 58 132q62 57 161 57q94 0 152 -52q56 -50 56 -127v-2q0 -120 -137 -182l78 -77q32 45 66 111l128 -64q-55 -98 -92 -148l94 -93zM391 523v2q0 56 -54 56
q-56 0 -56 -62v-2q0 -35 36 -80q74 33 74 86zM381 161l-116 118q-50 -30 -50 -77v-2q0 -30 23 -50q22 -19 59 -19q39 0 84 30z" />
    <glyph glyph-name="quotesingle" unicode="'" horiz-adv-x="284" 
d="M34 341l23 359h207v-5l-127 -354h-103z" />
    <glyph glyph-name="parenleft" unicode="(" horiz-adv-x="445" 
d="M415 -24l-79 -117q-291 153 -291 428t291 428l79 -117q-185 -128 -185 -311q0 -182 185 -311z" />
    <glyph glyph-name="parenright" unicode=")" horiz-adv-x="445" 
d="M109 -141l-78 117q184 129 184 311q0 184 -184 311l78 117q292 -153 292 -428t-292 -428z" />
    <glyph glyph-name="asterisk" unicode="*" horiz-adv-x="425" 
d="M160 339l25 132l-102 -88l-55 93l128 45l-128 45l55 92l102 -88l-25 132h105l-25 -132l103 88l54 -92l-127 -45l127 -45l-54 -93l-103 88l25 -132h-105z" />
    <glyph glyph-name="plus" unicode="+" horiz-adv-x="640" 
d="M233 94v174h-176v168h176v174h174v-174h176v-168h-176v-174h-174z" />
    <glyph glyph-name="comma" unicode="," horiz-adv-x="284" 
d="M36 -165l-16 73q52 5 77 29t23 65h-76v195h197v-159q0 -196 -205 -203z" />
    <glyph glyph-name="hyphen" unicode="-" horiz-adv-x="408" 
d="M40 230v166h328v-166h-328z" />
    <glyph glyph-name="period" unicode="." horiz-adv-x="284" 
d="M44 0v195h197v-195h-197z" />
    <glyph glyph-name="slash" unicode="/" horiz-adv-x="535" 
d="M-38 -128l443 926h154l-443 -926h-154z" />
    <glyph glyph-name="zero" unicode="0" horiz-adv-x="730" 
d="M128 93q-87 102 -87 255v2q0 153 88 256q91 108 237 108q144 0 236 -107q87 -102 87 -255v-2q0 -152 -87 -256q-92 -108 -238 -108q-144 0 -236 107zM459 211q35 53 35 137v2q0 85 -36 139t-94 54q-57 0 -93 -53q-35 -53 -35 -138v-2q0 -86 36 -138q36 -54 94 -54t93 53z
" />
    <glyph glyph-name="one" unicode="1" horiz-adv-x="422" 
d="M163 0v525l-118 -28l-37 150l205 58h141v-705h-191z" />
    <glyph glyph-name="two" unicode="2" horiz-adv-x="624" 
d="M33 0v146l262 200q91 70 91 126q0 72 -79 72q-60 0 -139 -91l-131 109q115 150 285 150q115 0 186 -62q72 -62 72 -161v-2q0 -79 -42 -136q-36 -49 -120 -109l-120 -84h289v-158h-554z" />
    <glyph glyph-name="three" unicode="3" horiz-adv-x="621" 
d="M18 110l123 122q78 -80 167 -80q42 0 65 19q24 19 24 52v2q0 72 -114 72h-82l-27 101l160 145h-267v157h505v-138l-167 -144q181 -40 181 -197v-2q0 -106 -76 -170q-75 -63 -194 -63q-184 0 -298 124z" />
    <glyph glyph-name="four" unicode="4" horiz-adv-x="689" 
d="M385 0v136h-340l-31 137l363 432h195v-424h89v-145h-89v-136h-187zM217 280h168v202z" />
    <glyph glyph-name="five" unicode="5" horiz-adv-x="630" 
d="M20 97l111 130q88 -76 170 -76q49 0 75 22q27 23 27 60v2q0 37 -29 60q-28 21 -74 21q-53 0 -112 -35l-115 65l20 354h468v-160h-315l-6 -106q51 25 112 25q102 0 167 -54q73 -60 73 -168v-2q0 -115 -81 -183q-79 -66 -208 -66q-165 0 -283 111z" />
    <glyph glyph-name="six" unicode="6" horiz-adv-x="662" 
d="M127 66q-86 86 -86 262v2q0 170 80 274q87 110 245 110q129 0 233 -77l-91 -136q-71 53 -139 53q-119 0 -132 -150q69 54 151 54q97 0 162 -56q69 -62 69 -162v-2q0 -114 -82 -184q-79 -68 -196 -68q-131 0 -214 80zM405 163q26 26 26 64v2q0 39 -27 64q-29 26 -73 26
q-46 0 -71 -25q-26 -26 -26 -64v-2q0 -40 27 -65q28 -26 72 -26t72 26z" />
    <glyph glyph-name="seven" unicode="7" horiz-adv-x="614" 
d="M62 0l308 537h-324v163h539v-146l-309 -554h-214z" />
    <glyph glyph-name="eight" unicode="8" horiz-adv-x="630" 
d="M109 45q-81 57 -81 148v2q0 117 119 168q-95 54 -95 153v2q0 84 73 139t190 55q118 0 191 -55t73 -139v-2q0 -100 -96 -153q120 -56 120 -166v-2q0 -94 -81 -151q-80 -56 -207 -56t-206 57zM378 438q24 22 24 55v2q0 31 -23 52q-25 22 -64 22q-38 0 -63 -22
q-23 -23 -23 -52v-2q0 -33 24 -55q23 -22 62 -22q40 0 63 22zM390 157q26 23 26 55v2q0 34 -28 56q-28 21 -73 21t-73 -21q-28 -22 -28 -56v-2q0 -32 26 -55q28 -24 75 -24t75 24z" />
    <glyph glyph-name="nine" unicode="9" horiz-adv-x="662" 
d="M427 293q-61 -57 -149 -57q-104 0 -168 60q-67 61 -67 162v2q0 114 80 185q76 69 199 69q134 0 215 -81q84 -84 84 -260v-2q0 -174 -83 -278q-86 -107 -240 -107q-136 0 -245 83l91 134q73 -56 150 -56q119 0 133 146zM403 401q26 26 26 65v2q0 41 -27 68q-28 28 -73 28
t-72 -27q-26 -28 -26 -68v-2q0 -41 27 -66q29 -26 73 -26t72 26z" />
    <glyph glyph-name="colon" unicode=":" horiz-adv-x="294" 
d="M49 346v195h197v-195h-197zM49 0v195h197v-195h-197z" />
    <glyph glyph-name="semicolon" unicode=";" horiz-adv-x="294" 
d="M49 346v195h197v-195h-197zM41 -167l-16 73q52 5 77 29t23 65h-76v195h197v-159q0 -196 -205 -203z" />
    <glyph glyph-name="less" unicode="&#x3c;" horiz-adv-x="640" 
d="M560 66l-497 198v176l497 198v-176l-327 -110l327 -109v-177z" />
    <glyph glyph-name="equal" unicode="=" horiz-adv-x="640" 
d="M63 403v165h514v-165h-514zM63 137v164h514v-164h-514z" />
    <glyph glyph-name="greater" unicode="&#x3e;" horiz-adv-x="640" 
d="M80 66v176l327 109l-327 110v177l497 -198v-176z" />
    <glyph glyph-name="question" unicode="?" horiz-adv-x="541" 
d="M192 228l-26 168l9 8q157 13 157 80v2q0 55 -76 55q-71 0 -146 -66l-100 131q105 105 259 105q112 0 180 -56q70 -57 70 -154v-2q0 -157 -195 -207l-12 -64h-120zM150 0v170h197v-170h-197z" />
    <glyph glyph-name="at" unicode="@" horiz-adv-x="965" 
d="M172 -34q-126 124 -126 309q0 183 127 310q127 129 316 129q183 0 308 -118q123 -114 123 -271q0 -129 -66 -202q-58 -66 -147 -66q-112 0 -155 76q-63 -73 -147 -73q-79 0 -130 54q-53 56 -53 146q0 108 66 184t156 76q84 0 134 -74l12 61l154 -24l-46 -258
q-4 -27 -4 -44q0 -25 17 -42q19 -17 48 -17q53 0 84 52q35 56 35 151q0 142 -109 244q-112 105 -280 105q-173 0 -288 -117q-113 -115 -113 -282q0 -170 112 -282q115 -115 292 -115q132 0 245 67l20 -32q-123 -75 -265 -75q-192 0 -320 128zM517 220q35 35 35 89
q0 35 -21 57q-20 20 -52 20q-36 0 -63 -27q-34 -34 -34 -87q0 -37 21 -58q20 -20 52 -20q36 0 62 26z" />
    <glyph glyph-name="A" unicode="A" horiz-adv-x="795" 
d="M7 0l297 705h187l298 -705h-208l-50 126h-271l-50 -126h-203zM317 277h157l-78 198z" />
    <glyph glyph-name="B" unicode="B" horiz-adv-x="715" 
d="M62 0v700h359q126 0 191 -62q45 -46 45 -114v-2q0 -110 -108 -156q139 -46 139 -171v-2q0 -90 -70 -141q-70 -52 -195 -52h-361zM466 482v2q0 60 -88 60h-127v-123h122q93 0 93 61zM494 220v2q0 63 -95 63h-148v-129h150q93 0 93 64z" />
    <glyph glyph-name="C" unicode="C" horiz-adv-x="731" 
d="M145 89q-106 103 -106 259v2q0 154 105 259t263 105q191 0 297 -145l-146 -113q-67 82 -153 82q-72 0 -120 -55q-47 -53 -47 -131v-2q0 -80 47 -133q47 -54 120 -54q88 0 158 85l146 -104q-116 -158 -309 -158q-152 0 -255 103z" />
    <glyph glyph-name="D" unicode="D" horiz-adv-x="766" 
d="M62 0v700h271q184 0 290 -97q104 -95 104 -249v-2q0 -154 -105 -252q-109 -100 -293 -100h-267zM335 529h-79v-357h79q89 0 141 46q53 47 53 131v2q0 83 -53 131q-53 47 -141 47z" />
    <glyph glyph-name="E" unicode="E" horiz-adv-x="668" 
d="M62 0v700h563v-164h-371v-107h336v-153h-336v-111h376v-165h-568z" />
    <glyph glyph-name="F" unicode="F" horiz-adv-x="649" 
d="M62 0v700h560v-170h-366v-119h331v-161h-331v-250h-194z" />
    <glyph glyph-name="G" unicode="G" horiz-adv-x="769" 
d="M147 88q-108 102 -108 260v2q0 154 107 259q108 105 269 105q166 0 284 -101l-114 -138q-79 66 -169 66q-76 0 -127 -55q-52 -55 -52 -136v-2q0 -84 53 -140q54 -55 137 -55q68 0 112 29v85h-137v142h321v-314q-130 -109 -304 -109q-164 0 -272 102z" />
    <glyph glyph-name="H" unicode="H" horiz-adv-x="761" 
d="M62 0v700h194v-262h249v262h194v-700h-194v266h-249v-266h-194z" />
    <glyph glyph-name="I" unicode="I" horiz-adv-x="327" 
d="M67 0v700h194v-700h-194z" />
    <glyph glyph-name="J" unicode="J" horiz-adv-x="564" 
d="M4 106l125 118q54 -65 110 -65q79 0 79 98v443h193v-444q0 -128 -69 -197q-71 -71 -192 -71q-158 0 -246 118z" />
    <glyph glyph-name="K" unicode="K" horiz-adv-x="730" 
d="M62 0v700h194v-284l242 284h229l-265 -300l274 -400h-232l-177 260l-71 -78v-182h-194z" />
    <glyph glyph-name="L" unicode="L" horiz-adv-x="617" 
d="M62 0v700h194v-530h339v-170h-533z" />
    <glyph glyph-name="M" unicode="M" horiz-adv-x="868" 
d="M62 0v700h205l167 -271l167 271h205v-700h-193v402l-179 -274h-4l-178 273v-401h-190z" />
    <glyph glyph-name="N" unicode="N" horiz-adv-x="785" 
d="M62 0v700h181l288 -370v370h192v-700h-169l-300 384v-384h-192z" />
    <glyph glyph-name="O" unicode="O" horiz-adv-x="831" 
d="M146 92q-107 104 -107 256v2q0 152 108 257q110 107 270 107q162 0 269 -106q107 -104 107 -256v-2q0 -152 -108 -257q-110 -107 -270 -107q-162 0 -269 106zM545 217q49 52 49 131v2q0 78 -49 133q-53 56 -130 56q-78 0 -129 -56q-49 -52 -49 -131v-2q0 -77 50 -132
q52 -57 130 -57t128 56z" />
    <glyph glyph-name="P" unicode="P" horiz-adv-x="673" 
d="M62 0v700h301q132 0 211 -65q79 -64 79 -180v-2q0 -122 -85 -189q-80 -64 -215 -64h-97v-200h-194zM256 352h93q52 0 81 25q30 25 30 67v2q0 91 -112 91h-92v-185z" />
    <glyph glyph-name="Q" unicode="Q" horiz-adv-x="831" 
d="M803 88l-98 -109l-77 69q-94 -62 -213 -62q-162 0 -269 106q-107 104 -107 256v2q0 152 108 257q110 107 270 107q162 0 269 -106q107 -104 107 -256v-2q0 -109 -62 -201zM487 171l-97 83l98 110l95 -87q12 33 12 70v2q0 77 -50 133q-52 57 -130 57t-129 -57
q-49 -53 -49 -132v-2q0 -77 50 -133q51 -57 130 -57q37 0 70 13z" />
    <glyph glyph-name="R" unicode="R" horiz-adv-x="719" 
d="M62 0v700h331q153 0 228 -75q62 -62 62 -163v-2q0 -154 -144 -216l167 -244h-223l-141 212h-86v-212h-194zM256 364h129q50 0 76 22q28 22 28 61v2q0 84 -105 84h-128v-169z" />
    <glyph glyph-name="S" unicode="S" horiz-adv-x="652" 
d="M9 104l108 129q106 -84 227 -84q81 0 81 48v2q0 23 -23 37q-29 15 -96 31q-133 30 -188 69q-76 52 -76 150v2q0 100 73 161q73 63 198 63q173 0 288 -93l-97 -137q-96 69 -196 69q-70 0 -70 -45v-2q0 -24 24 -38q26 -14 98 -30q130 -28 190 -73q70 -52 70 -145v-2
q0 -106 -78 -168q-76 -60 -205 -60q-197 0 -328 116z" />
    <glyph glyph-name="T" unicode="T" horiz-adv-x="660" 
d="M233 0v530h-209v170h613v-170h-210v-530h-194z" />
    <glyph glyph-name="U" unicode="U" horiz-adv-x="758" 
d="M141 65q-87 83 -87 242v393h196v-389q0 -149 129 -149q130 0 130 144v394h196v-388q0 -164 -89 -247q-84 -78 -239 -78q-153 0 -236 78z" />
    <glyph glyph-name="V" unicode="V" horiz-adv-x="760" 
d="M290 -5l-283 705h216l159 -443l160 443h212l-284 -705h-180z" />
    <glyph glyph-name="W" unicode="W" horiz-adv-x="1117" 
d="M249 -5l-234 705h205l122 -405l135 407h167l135 -407l122 405h201l-234 -705h-169l-140 403l-141 -403h-169z" />
    <glyph glyph-name="X" unicode="X" horiz-adv-x="732" 
d="M493 700h218l-230 -341l240 -359h-223l-134 212l-135 -212h-218l240 356l-230 344h223l123 -197z" />
    <glyph glyph-name="Y" unicode="Y" horiz-adv-x="723" 
d="M265 0v262l-267 438h221l144 -255l145 255h217l-266 -435v-265h-194z" />
    <glyph glyph-name="Z" unicode="Z" horiz-adv-x="698" 
d="M41 0v141l351 396h-339v163h606v-140l-351 -396h351v-164h-618z" />
    <glyph glyph-name="bracketleft" unicode="[" horiz-adv-x="458" 
d="M67 -130v830h345v-129h-176v-572h176v-129h-345z" />
    <glyph glyph-name="backslash" unicode="\" horiz-adv-x="535" 
d="M419 -128l-443 926h154l443 -926h-154z" />
    <glyph glyph-name="bracketright" unicode="]" horiz-adv-x="458" 
d="M46 -130v129h176v572h-176v129h345v-830h-345z" />
    <glyph glyph-name="asciicircum" unicode="^" 
d="M42 493l144 206h128l144 -206h-133l-76 97l-76 -97h-131z" />
    <glyph glyph-name="underscore" unicode="_" horiz-adv-x="600" 
d="M-2 -160v116h604v-116h-604z" />
    <glyph glyph-name="grave" unicode="`" 
d="M236 588l-147 127l176 57l103 -184h-132z" />
    <glyph glyph-name="A001" unicode="a" horiz-adv-x="599" 
d="M77 31q-52 46 -52 124v2q0 84 58 127q55 43 154 43q76 0 130 -21v9q0 89 -108 89q-67 0 -150 -30l-39 133q102 42 219 42q140 0 206 -66q58 -57 58 -172v-311h-187v57q-64 -69 -160 -69q-80 0 -129 43zM343 131q26 26 26 65v25q-36 14 -75 14q-87 0 -87 -67v-2
q0 -59 67 -59q42 0 69 24z" />
    <glyph glyph-name="B002" unicode="b" horiz-adv-x="676" 
d="M241 66v-66h-190v730h190v-261q69 84 164 84q101 0 168 -75q72 -80 72 -205v-2q0 -127 -71 -207q-67 -76 -168 -76q-98 0 -165 78zM426 181q33 35 33 89v2q0 53 -33 89q-31 34 -78 34q-48 0 -79 -34q-32 -37 -32 -89v-2q0 -53 32 -88t79 -35t78 34z" />
    <glyph glyph-name="C003" unicode="c" horiz-adv-x="569" 
d="M110 70q-80 83 -80 198v2q0 116 80 198q82 84 209 84q155 0 231 -120l-128 -96q-44 57 -101 57q-45 0 -77 -36q-30 -35 -30 -85v-2q0 -54 30 -88q30 -35 78 -35q57 0 104 56l127 -92q-84 -124 -240 -124q-120 0 -203 83z" />
    <glyph glyph-name="D004" unicode="d" horiz-adv-x="676" 
d="M103 63q-72 79 -72 205v2q0 128 72 208q67 75 167 75q98 0 165 -78v255h190v-730h-190v72q-69 -84 -164 -84q-101 0 -168 75zM407 182q32 35 32 88v2q0 53 -32 88t-79 35t-78 -34q-33 -36 -33 -89v-2q0 -54 33 -88q32 -35 78 -35q47 0 79 35z" />
    <glyph glyph-name="E005" unicode="e" horiz-adv-x="606" 
d="M111 65q-81 78 -81 203v2q0 119 77 201q76 82 196 82q133 0 206 -88q66 -81 66 -208q0 -30 -1 -39h-362q23 -89 117 -89q65 0 120 55l105 -87q-87 -110 -234 -110q-128 0 -209 78zM209 315h189q-11 98 -95 98q-77 0 -94 -98z" />
    <glyph glyph-name="F006" unicode="f" horiz-adv-x="404" 
d="M85 0v389h-63v150h63v11q0 94 46 140q47 47 142 47q75 0 123 -15v-134q-36 11 -71 11q-54 0 -54 -51v-13h125v-146h-121v-389h-190z" />
    <glyph glyph-name="G007" unicode="g" horiz-adv-x="676" 
d="M47 -100l61 126q92 -51 189 -51q141 0 141 133v21q-70 -81 -166 -81q-103 0 -170 67q-71 71 -71 184v2q0 112 71 185q66 67 163 67q100 0 170 -76v64h190v-411q0 -147 -70 -216q-73 -76 -238 -76q-148 0 -270 62zM408 224q31 30 31 75v2q0 45 -31 75q-32 30 -80 30
t-80 -30q-31 -30 -31 -76v-2q0 -46 31 -74q32 -30 80 -30t80 30z" />
    <glyph glyph-name="H008" unicode="h" horiz-adv-x="634" 
d="M51 0v730h190v-263q68 86 162 86q85 0 135 -53q49 -52 49 -146v-354h-189v293q0 92 -77 92q-36 0 -57 -23q-23 -26 -23 -69v-293h-190z" />
    <glyph glyph-name="I009" unicode="i" horiz-adv-x="301" 
d="M52 590v140h197v-140h-197zM56 0v541h189v-541h-189z" />
    <glyph glyph-name="J010" unicode="j" horiz-adv-x="302" 
d="M52 590v140h197v-140h-197zM-26 -156v126q22 -2 25 -2q57 0 57 64v509h189v-517q0 -187 -192 -187q-41 0 -79 7z" />
    <glyph glyph-name="K011" unicode="k" horiz-adv-x="603" 
d="M51 0v730h190v-370l147 181h215l-188 -216l193 -325h-210l-108 185l-49 -57v-128h-190z" />
    <glyph glyph-name="L012" unicode="l" horiz-adv-x="301" 
d="M56 0v730h189v-730h-189z" />
    <glyph glyph-name="M013" unicode="m" horiz-adv-x="971" 
d="M51 0v541h190v-74q68 86 161 86q110 0 156 -88q76 88 181 88q87 0 136 -52t49 -146v-355h-190v294q0 91 -74 91q-35 0 -56 -23q-22 -25 -22 -68v-294h-189v294q0 91 -75 91q-77 0 -77 -91v-294h-190z" />
    <glyph glyph-name="N014" unicode="n" horiz-adv-x="634" 
d="M51 0v541h190v-76q67 88 162 88q85 0 135 -53q49 -52 49 -146v-354h-189v293q0 92 -77 92q-36 0 -57 -23q-23 -26 -23 -69v-293h-190z" />
    <glyph glyph-name="O015" unicode="o" horiz-adv-x="656" 
d="M114 70q-84 81 -84 198v2q0 117 85 199q85 84 214 84q128 0 214 -83q84 -81 84 -198v-2q0 -117 -85 -199q-86 -84 -215 -84q-127 0 -213 83zM412 184q31 34 31 84v2q0 51 -33 87t-83 36q-51 0 -82 -36q-31 -34 -31 -85v-2q0 -49 32 -86q34 -36 83 -36q51 0 83 36z" />
    <glyph glyph-name="P016" unicode="p" horiz-adv-x="676" 
d="M51 -160v701h190v-72q69 84 164 84q101 0 168 -75q72 -80 72 -205v-2q0 -127 -71 -207q-67 -76 -168 -76q-98 0 -165 78v-226h-190zM426 181q33 35 33 89v2q0 53 -33 89q-31 34 -78 34q-48 0 -79 -34q-32 -37 -32 -89v-2q0 -53 32 -88t79 -35t78 34z" />
    <glyph glyph-name="Q017" unicode="q" horiz-adv-x="676" 
d="M435 -160v232q-69 -84 -164 -84q-101 0 -168 75q-72 79 -72 205v2q0 128 72 208q67 75 167 75q98 0 165 -78v66h190v-701h-190zM407 182q32 35 32 88v2q0 53 -32 88t-79 35t-78 -34q-33 -36 -33 -89v-2q0 -54 33 -88q32 -35 78 -35q47 0 79 35z" />
    <glyph glyph-name="R018" unicode="r" horiz-adv-x="428" 
d="M51 0v541h190v-109q52 123 171 118v-200h-16q-155 0 -155 -181v-169h-190z" />
    <glyph glyph-name="S019" unicode="s" horiz-adv-x="514" 
d="M11 69l71 114q95 -62 185 -62q49 0 49 29v2q0 22 -88 47q-96 26 -136 56q-56 42 -56 116v2q0 83 62 133q58 46 155 46q125 0 223 -63l-65 -120q-88 51 -160 51q-44 0 -44 -27v-2q0 -21 88 -48q97 -28 136 -58q56 -42 56 -114v-2q0 -87 -61 -135q-58 -46 -160 -46
q-144 0 -255 81z" />
    <glyph glyph-name="T020" unicode="t" horiz-adv-x="431" 
d="M85 168v221h-64v152h64v137h189v-137h126v-152h-126v-184q0 -54 52 -54q34 0 72 18v-148q-58 -32 -132 -32q-181 0 -181 179z" />
    <glyph glyph-name="U021" unicode="u" horiz-adv-x="634" 
d="M96 42q-49 53 -49 146v353h190v-293q0 -91 77 -91q36 0 57 23q23 26 23 68v293h189v-541h-189v75q-68 -87 -162 -87q-86 0 -136 54z" />
    <glyph glyph-name="V022" unicode="v" horiz-adv-x="625" 
d="M226 -4l-216 545h200l104 -316l105 316h196l-216 -545h-173z" />
    <glyph glyph-name="W023" unicode="w" horiz-adv-x="861" 
d="M178 -4l-165 545h185l71 -272l84 274h156l84 -276l73 274h183l-167 -545h-164l-88 282l-90 -282h-162z" />
    <glyph glyph-name="X024" unicode="x" horiz-adv-x="589" 
d="M216 541l80 -135l81 135h200l-178 -267l182 -274h-204l-84 141l-85 -141h-200l182 272l-178 269h204z" />
    <glyph glyph-name="Y025" unicode="y" horiz-adv-x="626" 
d="M318 215l102 326h195l-198 -528q-35 -96 -80 -136q-46 -40 -126 -40q-91 0 -173 47l58 133q50 -29 83 -29q29 0 45 22l-212 531h198z" />
    <glyph glyph-name="Z026" unicode="z" horiz-adv-x="563" 
d="M33 0v125l249 266h-240v150h492v-124l-251 -266h251v-151h-501z" />
    <glyph glyph-name="braceleft" unicode="{" horiz-adv-x="490" 
d="M458 -30l-29 -111q-147 18 -206 64q-57 43 -57 129l3 74q0 56 -30 78q-29 20 -89 20h-16v126h16q60 0 89 21q30 23 30 77l-3 74q0 86 57 129q59 46 206 64l29 -111q-76 -16 -102 -42q-22 -21 -22 -70l3 -71q0 -103 -112 -134q112 -31 112 -134l-3 -70q0 -49 22 -71
q26 -26 102 -42z" />
    <glyph glyph-name="bar" unicode="|" horiz-adv-x="355" 
d="M105 -128v926h145v-926h-145z" />
    <glyph glyph-name="braceright" unicode="}" horiz-adv-x="490" 
d="M62 -141l-30 111q78 17 103 42q22 22 22 71l-3 70q0 103 111 134q-111 31 -111 134l3 71q0 49 -22 70q-25 25 -103 42l30 111q147 -18 206 -64q57 -43 57 -129l-3 -74q0 -54 30 -77q27 -21 88 -21h16v-126h-16q-60 0 -88 -20q-30 -22 -30 -78l3 -74q0 -86 -57 -129
q-59 -46 -206 -64z" />
    <glyph glyph-name="asciitilde" unicode="~" horiz-adv-x="505" 
d="M246 249q-47 18 -62 18q-31 0 -51 -47l-91 25q32 149 124 149q36 0 93 -22q53 -17 63 -17q32 0 51 46l91 -25q-33 -148 -124 -148q-37 0 -94 21z" />
    <glyph glyph-name="nbspace" unicode="&#xa0;" horiz-adv-x="277" 
 />
    <glyph glyph-name="exclamdown" unicode="&#xa1;" horiz-adv-x="324" 
d="M64 530v170h197v-170h-197zM54 0v85l59 387h99l58 -387v-85h-216z" />
    <glyph glyph-name="cent" unicode="&#xa2;" horiz-adv-x="575" 
d="M443 706l-15 -87q82 -30 127 -97l-117 -89q-21 25 -46 40l-45 -251q54 9 93 57l116 -85q-79 -114 -225 -119l-14 -81h-115l17 97q-84 30 -135 100q-52 71 -52 163v2q0 118 78 197q79 81 206 84l12 69h115zM198 358v-2q0 -86 56 -119l45 254q-44 -7 -73 -45
q-28 -37 -28 -88z" />
    <glyph glyph-name="sterling" unicode="&#xa3;" horiz-adv-x="639" 
d="M44 0v116l75 28v119h-75v137h75v50q0 124 69 193q68 69 192 69q143 0 232 -101l-117 -129q-49 57 -102 57q-35 0 -57 -22q-24 -24 -24 -67v-50h216v-137h-216v-109h293v-154h-561z" />
    <glyph glyph-name="yen" unicode="&#xa5;" horiz-adv-x="708" 
d="M75 263v120h137l-208 317h220l131 -230l134 230h215l-209 -317h139v-120h-184v-50h184v-120h-184v-93h-191v93h-184v120h184v50h-184z" />
    <glyph glyph-name="section" unicode="&#xa7;" horiz-adv-x="626" 
d="M540 151v-2q0 -71 -57 -114q-63 -48 -174 -48q-146 0 -237 79l77 109q83 -59 164 -59q55 0 55 30v2q0 25 -97 46q-112 25 -161 52q-67 36 -67 94v2q0 77 90 109q-47 38 -47 99v2q0 71 58 114q62 47 173 47q148 0 237 -79l-77 -108q-80 58 -164 58q-54 0 -54 -29v-2
q0 -24 97 -46q113 -26 161 -51q67 -36 67 -95v-2q0 -77 -91 -110q47 -36 47 -98zM439 332v2q0 28 -101 52q-76 17 -99 17q-51 0 -51 -35v-2q0 -27 101 -51q71 -18 99 -18q51 0 51 35z" />
    <glyph glyph-name="dieresis" unicode="&#xa8;" 
d="M274 588v142h162v-142h-162zM65 588v142h161v-142h-161z" />
    <glyph glyph-name="copyright" unicode="&#xa9;" horiz-adv-x="830" 
d="M157 93q-104 107 -104 255v2q0 150 105 256q106 108 258 108q150 0 257 -107q104 -107 104 -255v-2q0 -150 -105 -256q-106 -108 -258 -108q-150 0 -257 107zM643 122q92 95 92 228v2q0 135 -91 227q-93 95 -228 95q-136 0 -229 -96q-92 -95 -92 -228v-2q0 -135 91 -227
q93 -94 228 -94q136 0 229 95zM276 213q-57 56 -57 140v2q0 83 57 140q59 59 147 59q104 0 162 -79l-81 -63q-34 45 -83 45q-40 0 -66 -29q-25 -28 -25 -72v-2q0 -43 25 -71q26 -29 66 -29q47 0 86 46l81 -58q-65 -86 -168 -86q-87 0 -144 57z" />
    <glyph glyph-name="ordfeminine" unicode="&#xaa;" horiz-adv-x="390" 
d="M73 421q-29 26 -29 68v2q0 93 117 93q37 0 72 -12v4q0 49 -60 49q-40 0 -82 -16l-22 73q57 23 121 23q76 0 113 -36q32 -32 32 -95v-170h-103v32q-35 -38 -88 -38q-43 0 -71 23zM42 271v76h298v-76h-298zM234 512v13q-24 8 -42 8q-47 0 -47 -36v-2q0 -32 36 -32
q53 0 53 49z" />
    <glyph glyph-name="guillemotleft" unicode="&#xab;" horiz-adv-x="632" 
d="M478 33l-190 230v10l190 231l123 -61l-117 -174l117 -174zM204 33l-174 211v48l174 212l123 -61l-118 -174l118 -174z" />
    <glyph glyph-name="registered" unicode="&#xae;" horiz-adv-x="368" 
d="M60 411q-50 52 -50 123v1q0 72 51 123q51 52 123 52q73 0 124 -51q50 -52 50 -123v-1q0 -72 -51 -123q-51 -52 -123 -52q-73 0 -124 51zM294 425q44 47 44 110v1q0 63 -44 109q-45 46 -110 46t-110 -46q-44 -47 -44 -110v-1q0 -63 44 -109q45 -46 110 -46t110 46z
M106 447v184h89q80 0 80 -63q0 -42 -37 -58l43 -63h-65l-36 53h-17v-53h-57zM163 543h29q26 0 26 20t-25 20h-30v-40z" />
    <glyph glyph-name="macron" unicode="&#xaf;" 
d="M63 595v114h375v-114h-375z" />
    <glyph glyph-name="degree" unicode="&#xb0;" horiz-adv-x="472" 
d="M108 404q-54 52 -54 125v2q0 73 55 125q53 52 127 52t127 -52q55 -52 55 -125v-2q0 -73 -54 -125q-53 -52 -128 -52t-128 52zM296 469q24 24 24 60v2q0 35 -24 60q-25 25 -60 25t-60 -25q-24 -25 -24 -60v-2q0 -36 24 -60q24 -25 60 -25t60 25z" />
    <glyph glyph-name="plusminus" unicode="&#xb1;" horiz-adv-x="640" 
d="M579 376l-180 1l1 -168h-160l1 168l-180 -1v151l180 -1l-1 168h160l-1 -168l180 1v-151zM579 0h-518v140h518v-140z" />
    <glyph glyph-name="twosuperior" unicode="&#xb2;" horiz-adv-x="400" 
d="M45 417v87l146 114q49 39 49 68q0 38 -43 38q-38 0 -82 -50l-72 63q63 83 161 83q67 0 107 -34t40 -88q0 -70 -83 -132l-77 -58h163v-91h-309z" />
    <glyph glyph-name="threesuperior" unicode="&#xb3;" horiz-adv-x="400" 
d="M30 469l60 72q49 -43 102 -43t53 42q0 41 -67 41h-47l-15 57l100 82h-158v90h287v-80l-105 -83q113 -14 113 -109q0 -60 -44 -96q-43 -36 -112 -36q-99 0 -167 63z" />
    <glyph glyph-name="acute" unicode="&#xb4;" 
d="M132 588l104 184l176 -57l-148 -127h-132z" />
    <glyph glyph-name="paragraph" unicode="&#xb6;" horiz-adv-x="596" 
d="M340 0v220h-21q-133 0 -212 61q-84 65 -84 177v2q0 113 80 178q79 62 212 62h219v-700h-194z" />
    <glyph glyph-name="periodcentered" unicode="&#xb7;" horiz-adv-x="284" 
d="M44 215v195h197v-195h-197z" />
    <glyph glyph-name="cedilla" unicode="&#xb8;" 
d="M260 -173l-150 64l95 129h123z" />
    <glyph glyph-name="onesuperior" unicode="&#xb9;" horiz-adv-x="325" 
d="M243 417h-110v293l-76 -24l-26 86l131 44h81v-399z" />
    <glyph glyph-name="ordmasculine" unicode="&#xba;" horiz-adv-x="390" 
d="M79 441q-45 43 -45 108v2q0 64 46 109q47 45 116 45q68 0 115 -45q46 -43 46 -108v-2q0 -64 -46 -109q-47 -45 -117 -45q-68 0 -115 45zM51 271v76h288v-76h-288zM240 503q16 17 16 46v2q0 27 -17 47q-18 19 -45 19t-43 -19q-16 -17 -16 -46v-2q0 -27 17 -47
q16 -19 44 -19t44 19z" />
    <glyph glyph-name="guillemotright" unicode="&#xbb;" horiz-adv-x="632" 
d="M428 33l-123 61l118 174l-118 174l123 62l174 -212v-48zM154 33l-123 61l117 174l-117 174l123 62l190 -231v-10z" />
    <glyph glyph-name="onequarter" unicode="&#xbc;" horiz-adv-x="825" 
d="M750 72v-74h-105v74h-178l-12 90l173 235h122v-245h48v-80h-48zM121 0l256 366l219 334h83l-255 -366l-220 -334h-83zM241 307h-110v293l-76 -24l-26 86l131 44h81v-399zM648 150v140l-102 -140h102z" />
    <glyph glyph-name="onehalf" unicode="&#xbd;" horiz-adv-x="825" 
d="M480 0v87l146 114q49 39 49 68q0 38 -43 38q-38 0 -82 -50l-72 63q63 83 161 83q67 0 107 -34t40 -88q0 -70 -83 -132l-77 -58h163v-91h-309zM111 0l256 366l219 334h83l-255 -366l-220 -334h-83zM241 307h-110v293l-76 -24l-26 86l131 44h81v-399z" />
    <glyph glyph-name="threequarters" unicode="&#xbe;" horiz-adv-x="900" 
d="M825 72v-74h-105v74h-178l-12 90l173 235h122v-245h48v-80h-48zM30 359l60 72q49 -43 102 -43t53 42q0 41 -67 41h-47l-15 57l100 82h-158v90h287v-80l-105 -83q113 -14 113 -109q0 -60 -44 -96q-43 -36 -112 -36q-99 0 -167 63zM191 0l256 366l219 334h83l-255 -366
l-220 -334h-83zM723 150v140l-102 -140h102z" />
    <glyph glyph-name="questiondown" unicode="&#xbf;" horiz-adv-x="541" 
d="M194 530v170h197v-170h-197zM92 45q-70 58 -70 154v2q0 161 195 207l12 64h120l26 -167l-9 -9q-157 -12 -157 -80v-1q0 -55 76 -55q71 0 146 66l100 -132q-107 -105 -259 -105q-112 0 -180 56z" />
    <glyph glyph-name="Agrave" unicode="&#xc0;" horiz-adv-x="795" 
d="M7 0l297 705h187l298 -705h-208l-50 126h-271l-50 -126h-203zM317 277h157l-78 198zM473 758h-142l-148 107l181 55z" />
    <glyph glyph-name="Aacute" unicode="&#xc1;" horiz-adv-x="795" 
d="M7 0l297 705h187l298 -705h-208l-50 126h-271l-50 -126h-203zM317 277h157l-78 198zM323 758l108 162l181 -55l-148 -107h-141z" />
    <glyph glyph-name="Acircumflex" unicode="&#xc2;" horiz-adv-x="795" 
d="M7 0l297 705h187l298 -705h-208l-50 126h-271l-50 -126h-203zM317 277h157l-78 198zM190 755l123 149h169l123 -149h-130l-79 53l-79 -53h-127z" />
    <glyph glyph-name="Atilde" unicode="&#xc3;" horiz-adv-x="795" 
d="M7 0l297 705h187l298 -705h-208l-50 126h-271l-50 -126h-203zM317 277h157l-78 198zM391 780q-53 17 -63 17q-33 0 -53 -47l-91 25q33 149 126 149q32 0 101 -23q47 -16 64 -16q33 0 52 46l91 -25q-31 -148 -125 -148q-37 0 -102 22z" />
    <glyph glyph-name="Adieresis" unicode="&#xc4;" horiz-adv-x="795" 
d="M7 0l297 705h187l298 -705h-208l-50 126h-271l-50 -126h-203zM317 277h157l-78 198zM425 758v138h165v-138h-165zM204 758v138h165v-138h-165z" />
    <glyph glyph-name="Aring" unicode="&#xc5;" horiz-adv-x="795" 
d="M7 0l279 663q-29 35 -29 78q0 54 41 90q41 35 100 35t100 -35q41 -36 41 -90q0 -46 -30 -79l280 -662h-208l-50 126h-271l-50 -126h-203zM317 277h157l-78 198zM450 695q20 18 20 46t-20 46q-19 19 -52 19t-52 -19q-20 -18 -20 -46t20 -46q19 -19 52 -19t52 19z" />
    <glyph glyph-name="AE" unicode="&#xc6;" horiz-adv-x="1063" 
d="M-5 0l370 700h655v-164h-349v-107h314v-153h-314v-111h354v-165h-543v126h-226l-65 -126h-196zM334 277h148v264h-12z" />
    <glyph glyph-name="Ccedilla" unicode="&#xc7;" horiz-adv-x="731" 
d="M380 -173l-150 64l78 106q-118 30 -193 124q-76 97 -76 227v2q0 154 105 259t263 105q191 0 297 -145l-146 -113q-67 82 -153 82q-72 0 -120 -55q-47 -53 -47 -131v-2q0 -80 47 -133q47 -54 120 -54q88 0 158 85l146 -104q-103 -142 -273 -156z" />
    <glyph glyph-name="Egrave" unicode="&#xc8;" horiz-adv-x="668" 
d="M421 748h-142l-148 107l181 55zM62 0v700h563v-164h-371v-107h336v-153h-336v-111h376v-165h-568z" />
    <glyph glyph-name="Eacute" unicode="&#xc9;" horiz-adv-x="668" 
d="M271 748l108 162l181 -55l-148 -107h-141zM62 0v700h563v-164h-371v-107h336v-153h-336v-111h376v-165h-568z" />
    <glyph glyph-name="Ecircumflex" unicode="&#xca;" horiz-adv-x="668" 
d="M62 0v700h563v-164h-371v-107h336v-153h-336v-111h376v-165h-568zM138 748l123 149h169l123 -149h-130l-79 53l-79 -53h-127z" />
    <glyph glyph-name="Edieresis" unicode="&#xcb;" horiz-adv-x="668" 
d="M373 748v138h165v-138h-165zM152 748v138h165v-138h-165zM62 0v700h563v-164h-371v-107h336v-153h-336v-111h376v-165h-568z" />
    <glyph glyph-name="Igrave" unicode="&#xcc;" horiz-adv-x="327" 
d="M67 0v700h194v-700h-194zM239 748h-142l-148 107l181 55z" />
    <glyph glyph-name="Iacute" unicode="&#xcd;" horiz-adv-x="327" 
d="M67 0v700h194v-700h-194zM89 748l108 162l181 -55l-148 -107h-141z" />
    <glyph glyph-name="Icircumflex" unicode="&#xce;" horiz-adv-x="327" 
d="M67 0v700h194v-700h-194zM-43 748l123 149h169l123 -149h-130l-79 53l-79 -53h-127z" />
    <glyph glyph-name="Idieresis" unicode="&#xcf;" horiz-adv-x="327" 
d="M67 0v700h194v-700h-194zM192 748v138h165v-138h-165zM-29 748v138h165v-138h-165z" />
    <glyph glyph-name="Eth" unicode="&#xd0;" horiz-adv-x="815" 
d="M111 0v276h-80v153h80v271h271q184 0 290 -97q104 -95 104 -249v-2q0 -154 -105 -252q-109 -100 -293 -100h-267zM418 278h-118v-111h84q90 0 142 48t52 134v2q0 86 -52 135q-52 48 -142 48h-84v-107h118v-149z" />
    <glyph glyph-name="Ntilde" unicode="&#xd1;" horiz-adv-x="785" 
d="M386 770q-53 17 -63 17q-33 0 -53 -47l-91 25q33 149 126 149q32 0 101 -23q47 -16 64 -16q33 0 52 46l91 -25q-31 -148 -125 -148q-37 0 -102 22zM62 0v700h181l288 -370v370h192v-700h-169l-300 384v-384h-192z" />
    <glyph glyph-name="Ograve" unicode="&#xd2;" horiz-adv-x="831" 
d="M491 758h-142l-148 107l181 55zM146 92q-107 104 -107 256v2q0 152 108 257q110 107 270 107q162 0 269 -106q107 -104 107 -256v-2q0 -152 -108 -257q-110 -107 -270 -107q-162 0 -269 106zM545 217q49 52 49 131v2q0 78 -49 133q-53 56 -130 56q-78 0 -129 -56
q-49 -52 -49 -131v-2q0 -77 50 -132q52 -57 130 -57t128 56z" />
    <glyph glyph-name="Oacute" unicode="&#xd3;" horiz-adv-x="831" 
d="M341 758l108 162l181 -55l-148 -107h-141zM146 92q-107 104 -107 256v2q0 152 108 257q110 107 270 107q162 0 269 -106q107 -104 107 -256v-2q0 -152 -108 -257q-110 -107 -270 -107q-162 0 -269 106zM545 217q49 52 49 131v2q0 78 -49 133q-53 56 -130 56
q-78 0 -129 -56q-49 -52 -49 -131v-2q0 -77 50 -132q52 -57 130 -57t128 56z" />
    <glyph glyph-name="Ocircumflex" unicode="&#xd4;" horiz-adv-x="831" 
d="M146 92q-107 104 -107 256v2q0 152 108 257q110 107 270 107q162 0 269 -106q107 -104 107 -256v-2q0 -152 -108 -257q-110 -107 -270 -107q-162 0 -269 106zM545 217q49 52 49 131v2q0 78 -49 133q-53 56 -130 56q-78 0 -129 -56q-49 -52 -49 -131v-2q0 -77 50 -132
q52 -57 130 -57t128 56zM208 758l123 149h169l123 -149h-130l-79 53l-79 -53h-127z" />
    <glyph glyph-name="Otilde" unicode="&#xd5;" horiz-adv-x="831" 
d="M409 780q-53 17 -63 17q-33 0 -53 -47l-91 25q33 149 126 149q32 0 101 -23q47 -16 64 -16q33 0 52 46l91 -25q-31 -148 -125 -148q-37 0 -102 22zM146 92q-107 104 -107 256v2q0 152 108 257q110 107 270 107q162 0 269 -106q107 -104 107 -256v-2q0 -152 -108 -257
q-110 -107 -270 -107q-162 0 -269 106zM545 217q49 52 49 131v2q0 78 -49 133q-53 56 -130 56q-78 0 -129 -56q-49 -52 -49 -131v-2q0 -77 50 -132q52 -57 130 -57t128 56z" />
    <glyph glyph-name="Odieresis" unicode="&#xd6;" horiz-adv-x="831" 
d="M443 758v138h165v-138h-165zM222 758v138h165v-138h-165zM146 92q-107 104 -107 256v2q0 152 108 257q110 107 270 107q162 0 269 -106q107 -104 107 -256v-2q0 -152 -108 -257q-110 -107 -270 -107q-162 0 -269 106zM545 217q49 52 49 131v2q0 78 -49 133
q-53 56 -130 56q-78 0 -129 -56q-49 -52 -49 -131v-2q0 -77 50 -132q52 -57 130 -57t128 56z" />
    <glyph glyph-name="multiply" unicode="&#xd7;" horiz-adv-x="640" 
d="M468 89l-149 153l-149 -153l-113 113l153 149l-154 149l116 116l150 -153l149 153l113 -113l-153 -149l153 -149z" />
    <glyph glyph-name="Oslash" unicode="&#xd8;" horiz-adv-x="831" 
d="M654 705h147l-100 -113q92 -103 92 -240v-2q0 -152 -108 -257q-110 -107 -270 -107q-110 0 -198 52l-39 -43h-147l99 113q-91 98 -91 240v2q0 152 108 257q110 107 270 107q109 0 198 -52zM548 214q50 56 50 134v2q0 54 -25 98l-238 -272q34 -19 82 -19q78 0 131 57z
M234 352v-2q0 -54 24 -97l238 271q-37 19 -81 19q-80 0 -131 -57q-50 -56 -50 -134z" />
    <glyph glyph-name="Ugrave" unicode="&#xd9;" horiz-adv-x="758" 
d="M454 748h-142l-148 107l181 55zM141 65q-87 83 -87 242v393h196v-389q0 -149 129 -149q130 0 130 144v394h196v-388q0 -164 -89 -247q-84 -78 -239 -78q-153 0 -236 78z" />
    <glyph glyph-name="Uacute" unicode="&#xda;" horiz-adv-x="758" 
d="M304 748l108 162l181 -55l-148 -107h-141zM141 65q-87 83 -87 242v393h196v-389q0 -149 129 -149q130 0 130 144v394h196v-388q0 -164 -89 -247q-84 -78 -239 -78q-153 0 -236 78z" />
    <glyph glyph-name="Ucircumflex" unicode="&#xdb;" horiz-adv-x="758" 
d="M141 65q-87 83 -87 242v393h196v-389q0 -149 129 -149q130 0 130 144v394h196v-388q0 -164 -89 -247q-84 -78 -239 -78q-153 0 -236 78zM172 748l123 149h169l123 -149h-130l-79 53l-79 -53h-127z" />
    <glyph glyph-name="Udieresis" unicode="&#xdc;" horiz-adv-x="758" 
d="M407 748v138h165v-138h-165zM186 748v138h165v-138h-165zM141 65q-87 83 -87 242v393h196v-389q0 -149 129 -149q130 0 130 144v394h196v-388q0 -164 -89 -247q-84 -78 -239 -78q-153 0 -236 78z" />
    <glyph glyph-name="Yacute" unicode="&#xdd;" horiz-adv-x="723" 
d="M265 0v262l-267 438h221l144 -255l145 255h217l-266 -435v-265h-194zM287 748l108 162l181 -55l-148 -107h-141z" />
    <glyph glyph-name="Thorn" unicode="&#xde;" horiz-adv-x="682" 
d="M62 0v700h194v-100h107q135 0 211 -63q79 -64 79 -180v-2q0 -120 -85 -187q-81 -63 -215 -63h-97v-105h-194zM256 260h93q52 0 81 25q30 25 30 66v2q0 92 -112 92h-92v-185z" />
    <glyph glyph-name="germandbls" unicode="&#xdf;" horiz-adv-x="635" 
d="M307 -3v136q113 6 113 81v2q0 70 -113 81v101q82 43 82 108v2q0 34 -19 53q-20 20 -50 20q-36 0 -58 -25t-22 -72v-484h-189v479q0 120 70 189q73 71 202 71q113 0 184 -60q66 -59 66 -148v-2q0 -111 -104 -164q139 -46 139 -170v-2q0 -98 -85 -152q-81 -52 -216 -44z
" />
    <glyph glyph-name="Agrave033" unicode="&#xe0;" horiz-adv-x="599" 
d="M77 31q-52 46 -52 124v2q0 84 58 127q55 43 154 43q76 0 130 -21v9q0 89 -108 89q-67 0 -150 -30l-39 133q102 42 219 42q140 0 206 -66q58 -57 58 -172v-311h-187v57q-64 -69 -160 -69q-80 0 -129 43zM343 131q26 26 26 65v25q-36 14 -75 14q-87 0 -87 -67v-2
q0 -59 67 -59q42 0 69 24zM244 592l-147 127l176 57l103 -184h-132z" />
    <glyph glyph-name="Aacute027" unicode="&#xe1;" horiz-adv-x="599" 
d="M77 31q-52 46 -52 124v2q0 84 58 127q55 43 154 43q76 0 130 -21v9q0 89 -108 89q-67 0 -150 -30l-39 133q102 42 219 42q140 0 206 -66q58 -57 58 -172v-311h-187v57q-64 -69 -160 -69q-80 0 -129 43zM343 131q26 26 26 65v25q-36 14 -75 14q-87 0 -87 -67v-2
q0 -59 67 -59q42 0 69 24zM231 592l104 184l176 -57l-148 -127h-132z" />
    <glyph glyph-name="Acircumflex029" unicode="&#xe2;" horiz-adv-x="599" 
d="M77 31q-52 46 -52 124v2q0 84 58 127q55 43 154 43q76 0 130 -21v9q0 89 -108 89q-67 0 -150 -30l-39 133q102 42 219 42q140 0 206 -66q58 -57 58 -172v-311h-187v57q-64 -69 -160 -69q-80 0 -129 43zM343 131q26 26 26 65v25q-36 14 -75 14q-87 0 -87 -67v-2
q0 -59 67 -59q42 0 69 24zM98 592l128 164h154l128 -164h-122l-84 61l-84 -61h-120z" />
    <glyph glyph-name="Atilde038" unicode="&#xe3;" horiz-adv-x="599" 
d="M77 31q-52 46 -52 124v2q0 84 58 127q55 43 154 43q76 0 130 -21v9q0 89 -108 89q-67 0 -150 -30l-39 133q102 42 219 42q140 0 206 -66q58 -57 58 -172v-311h-187v57q-64 -69 -160 -69q-80 0 -129 43zM343 131q26 26 26 65v25q-36 14 -75 14q-87 0 -87 -67v-2
q0 -59 67 -59q42 0 69 24zM301 613q-49 18 -63 18q-31 0 -51 -47l-91 25q33 149 124 149q37 0 94 -22q51 -17 62 -17q32 0 51 46l91 -25q-31 -148 -124 -148q-36 0 -93 21z" />
    <glyph glyph-name="Adieresis030" unicode="&#xe4;" horiz-adv-x="599" 
d="M77 31q-52 46 -52 124v2q0 84 58 127q55 43 154 43q76 0 130 -21v9q0 89 -108 89q-67 0 -150 -30l-39 133q102 42 219 42q140 0 206 -66q58 -57 58 -172v-311h-187v57q-64 -69 -160 -69q-80 0 -129 43zM343 131q26 26 26 65v25q-36 14 -75 14q-87 0 -87 -67v-2
q0 -59 67 -59q42 0 69 24zM327 592v142h162v-142h-162zM118 592v142h161v-142h-161z" />
    <glyph glyph-name="Aring036" unicode="&#xe5;" horiz-adv-x="599" 
d="M77 31q-52 46 -52 124v2q0 84 58 127q55 43 154 43q76 0 130 -21v9q0 89 -108 89q-67 0 -150 -30l-39 133q102 42 219 42q140 0 206 -66q58 -57 58 -172v-311h-187v57q-64 -69 -160 -69q-80 0 -129 43zM343 131q26 26 26 65v25q-36 14 -75 14q-87 0 -87 -67v-2
q0 -59 67 -59q42 0 69 24zM210 630q-39 38 -39 90t39 90q37 37 93 37q57 0 94 -37q39 -38 39 -90t-39 -90q-37 -37 -94 -37q-56 0 -93 37zM352 671q20 22 20 49q0 28 -20 50q-20 20 -49 20q-28 0 -48 -20q-20 -22 -20 -50q0 -29 20 -49t48 -20q29 0 49 20z" />
    <glyph glyph-name="AE031" unicode="&#xe6;" horiz-adv-x="940" 
d="M84 30q-59 47 -59 125v2q0 84 58 127q55 43 154 43q76 0 130 -21v9q0 89 -108 89q-67 0 -150 -30l-39 133q102 42 219 42q125 0 183 -61q71 65 170 65q129 0 202 -88q66 -81 66 -208q0 -5 -2 -39h-362q24 -89 117 -89q66 0 121 55l104 -87q-87 -110 -234 -110
q-133 0 -212 82q-106 -81 -217 -81q-87 0 -141 42zM544 315h188q-11 98 -94 98q-79 0 -94 -98zM386 153q-14 32 -18 68q-36 14 -74 14q-87 0 -87 -67v-2q0 -57 70 -57q53 0 109 44z" />
    <glyph glyph-name="Ccedilla041" unicode="&#xe7;" horiz-adv-x="569" 
d="M292 -173l-150 64l81 110q-89 29 -140 101q-53 74 -53 166v2q0 116 80 198q82 84 209 84q155 0 231 -120l-128 -96q-44 57 -101 57q-45 0 -77 -36q-30 -35 -30 -85v-2q0 -54 30 -88q30 -35 78 -35q57 0 104 56l127 -92q-75 -110 -204 -122z" />
    <glyph glyph-name="Egrave051" unicode="&#xe8;" horiz-adv-x="606" 
d="M111 65q-81 78 -81 203v2q0 119 77 201q76 82 196 82q133 0 206 -88q66 -81 66 -208q0 -30 -1 -39h-362q23 -89 117 -89q65 0 120 55l105 -87q-87 -110 -234 -110q-128 0 -209 78zM209 315h189q-11 98 -95 98q-77 0 -94 -98zM245 592l-147 127l176 57l103 -184h-132z" />
    <glyph glyph-name="Eacute045" unicode="&#xe9;" horiz-adv-x="606" 
d="M232 592l104 184l176 -57l-148 -127h-132zM111 65q-81 78 -81 203v2q0 119 77 201q76 82 196 82q133 0 206 -88q66 -81 66 -208q0 -30 -1 -39h-362q23 -89 117 -89q65 0 120 55l105 -87q-87 -110 -234 -110q-128 0 -209 78zM209 315h189q-11 98 -95 98q-77 0 -94 -98z
" />
    <glyph glyph-name="Ecircumflex048" unicode="&#xea;" horiz-adv-x="606" 
d="M99 592l128 164h154l128 -164h-122l-84 61l-84 -61h-120zM111 65q-81 78 -81 203v2q0 119 77 201q76 82 196 82q133 0 206 -88q66 -81 66 -208q0 -30 -1 -39h-362q23 -89 117 -89q65 0 120 55l105 -87q-87 -110 -234 -110q-128 0 -209 78zM209 315h189q-11 98 -95 98
q-77 0 -94 -98z" />
    <glyph glyph-name="Edieresis049" unicode="&#xeb;" horiz-adv-x="606" 
d="M328 592v142h162v-142h-162zM119 592v142h161v-142h-161zM111 65q-81 78 -81 203v2q0 119 77 201q76 82 196 82q133 0 206 -88q66 -81 66 -208q0 -30 -1 -39h-362q23 -89 117 -89q65 0 120 55l105 -87q-87 -110 -234 -110q-128 0 -209 78zM209 315h189q-11 98 -95 98
q-77 0 -94 -98z" />
    <glyph glyph-name="Igrave063" unicode="&#xec;" horiz-adv-x="301" 
d="M56 0v541h189v-541h-189zM91 588l-147 127l176 57l103 -184h-132z" />
    <glyph glyph-name="Iacute059" unicode="&#xed;" horiz-adv-x="301" 
d="M78 588l104 184l176 -57l-148 -127h-132zM56 0v541h189v-541h-189z" />
    <glyph glyph-name="Icircumflex061" unicode="&#xee;" horiz-adv-x="301" 
d="M-55 588l128 164h154l128 -164h-122l-84 61l-84 -61h-120zM56 0v541h189v-541h-189z" />
    <glyph glyph-name="Idieresis062" unicode="&#xef;" horiz-adv-x="301" 
d="M174 588v142h162v-142h-162zM-35 588v142h161v-142h-161zM56 0v541h189v-541h-189z" />
    <glyph glyph-name="Eth054" unicode="&#xf0;" horiz-adv-x="657" 
d="M551 650l-64 -15q139 -151 139 -329v-2q0 -138 -81 -226q-82 -91 -218 -91q-131 0 -214 82q-83 83 -83 210v2q0 113 66 186q64 73 164 73q65 0 126 -37q-29 45 -76 92l-120 -28l-29 83l70 16q-35 29 -89 64h239l30 -24l112 26zM412 183q31 34 31 84v2q0 51 -33 86
q-33 36 -83 36t-82 -35q-31 -34 -31 -85v-2q0 -50 32 -85q33 -36 83 -36q51 0 83 35z" />
    <glyph glyph-name="Ntilde075" unicode="&#xf1;" horiz-adv-x="634" 
d="M51 0v541h190v-76q67 88 162 88q85 0 135 -53q49 -52 49 -146v-354h-189v293q0 92 -77 92q-36 0 -57 -23q-23 -26 -23 -69v-293h-190zM316 613q-50 18 -63 18q-31 0 -51 -47l-91 25q33 149 124 149q37 0 94 -22q51 -17 62 -17q32 0 51 46l91 -25q-31 -148 -124 -148
q-36 0 -93 21z" />
    <glyph glyph-name="Ograve081" unicode="&#xf2;" horiz-adv-x="656" 
d="M114 70q-84 81 -84 198v2q0 117 85 199q85 84 214 84q128 0 214 -83q84 -81 84 -198v-2q0 -117 -85 -199q-86 -84 -215 -84q-127 0 -213 83zM412 184q31 34 31 84v2q0 51 -33 87t-83 36q-51 0 -82 -36q-31 -34 -31 -85v-2q0 -49 32 -86q34 -36 83 -36q51 0 83 36z
M268 592l-147 127l176 57l103 -184h-132z" />
    <glyph glyph-name="Oacute076" unicode="&#xf3;" horiz-adv-x="656" 
d="M255 592l104 184l176 -57l-148 -127h-132zM114 70q-84 81 -84 198v2q0 117 85 199q85 84 214 84q128 0 214 -83q84 -81 84 -198v-2q0 -117 -85 -199q-86 -84 -215 -84q-127 0 -213 83zM412 184q31 34 31 84v2q0 51 -33 87t-83 36q-51 0 -82 -36q-31 -34 -31 -85v-2
q0 -49 32 -86q34 -36 83 -36q51 0 83 36z" />
    <glyph glyph-name="Ocircumflex078" unicode="&#xf4;" horiz-adv-x="656" 
d="M123 592l128 164h154l128 -164h-122l-84 61l-84 -61h-120zM114 70q-84 81 -84 198v2q0 117 85 199q85 84 214 84q128 0 214 -83q84 -81 84 -198v-2q0 -117 -85 -199q-86 -84 -215 -84q-127 0 -213 83zM412 184q31 34 31 84v2q0 51 -33 87t-83 36q-51 0 -82 -36
q-31 -34 -31 -85v-2q0 -49 32 -86q34 -36 83 -36q51 0 83 36z" />
    <glyph glyph-name="Otilde086" unicode="&#xf5;" horiz-adv-x="656" 
d="M114 70q-84 81 -84 198v2q0 117 85 199q85 84 214 84q128 0 214 -83q84 -81 84 -198v-2q0 -117 -85 -199q-86 -84 -215 -84q-127 0 -213 83zM412 184q31 34 31 84v2q0 51 -33 87t-83 36q-51 0 -82 -36q-31 -34 -31 -85v-2q0 -49 32 -86q34 -36 83 -36q51 0 83 36z
M325 613q-49 18 -63 18q-31 0 -51 -47l-91 25q33 149 124 149q37 0 94 -22q51 -17 62 -17q32 0 51 46l91 -25q-31 -148 -124 -148q-36 0 -93 21z" />
    <glyph glyph-name="Odieresis079" unicode="&#xf6;" horiz-adv-x="656" 
d="M352 592v142h162v-142h-162zM143 592v142h161v-142h-161zM114 70q-84 81 -84 198v2q0 117 85 199q85 84 214 84q128 0 214 -83q84 -81 84 -198v-2q0 -117 -85 -199q-86 -84 -215 -84q-127 0 -213 83zM412 184q31 34 31 84v2q0 51 -33 87t-83 36q-51 0 -82 -36
q-31 -34 -31 -85v-2q0 -49 32 -86q34 -36 83 -36q51 0 83 36z" />
    <glyph glyph-name="divide" unicode="&#xf7;" horiz-adv-x="640" 
d="M231 492v161h178v-161h-178zM583 276h-526v152h526v-152zM231 51v161h178v-161h-178z" />
    <glyph glyph-name="Oslash084" unicode="&#xf8;" horiz-adv-x="656" 
d="M509 546h133l-84 -93q69 -79 69 -181v-2q0 -117 -85 -199q-86 -84 -215 -84q-83 0 -151 37l-28 -29h-133l83 91q-68 77 -68 182v2q0 117 85 199q85 84 214 84q81 0 152 -38zM206 272v-2q0 -33 10 -54l157 175q-21 9 -46 9q-53 0 -88 -38q-33 -36 -33 -90zM417 178
q33 38 33 90v2q0 26 -10 52l-156 -175q18 -7 45 -7q53 0 88 38z" />
    <glyph glyph-name="Ugrave101" unicode="&#xf9;" horiz-adv-x="634" 
d="M96 42q-49 53 -49 146v353h190v-293q0 -91 77 -91q36 0 57 23q23 26 23 68v293h189v-541h-189v75q-68 -87 -162 -87q-86 0 -136 54zM255 588l-147 127l176 57l103 -184h-132z" />
    <glyph glyph-name="Uacute097" unicode="&#xfa;" horiz-adv-x="634" 
d="M242 588l104 184l176 -57l-148 -127h-132zM96 42q-49 53 -49 146v353h190v-293q0 -91 77 -91q36 0 57 23q23 26 23 68v293h189v-541h-189v75q-68 -87 -162 -87q-86 0 -136 54z" />
    <glyph glyph-name="Ucircumflex099" unicode="&#xfb;" horiz-adv-x="634" 
d="M109 588l128 164h154l128 -164h-122l-84 61l-84 -61h-120zM96 42q-49 53 -49 146v353h190v-293q0 -91 77 -91q36 0 57 23q23 26 23 68v293h189v-541h-189v75q-68 -87 -162 -87q-86 0 -136 54z" />
    <glyph glyph-name="Udieresis100" unicode="&#xfc;" horiz-adv-x="634" 
d="M338 588v142h162v-142h-162zM129 588v142h161v-142h-161zM96 42q-49 53 -49 146v353h190v-293q0 -91 77 -91q36 0 57 23q23 26 23 68v293h189v-541h-189v75q-68 -87 -162 -87q-86 0 -136 54z" />
    <glyph glyph-name="Yacute110" unicode="&#xfd;" horiz-adv-x="626" 
d="M318 215l102 326h195l-198 -528q-35 -96 -80 -136q-46 -40 -126 -40q-91 0 -173 47l58 133q50 -29 83 -29q29 0 45 22l-212 531h198zM243 588l104 184l176 -57l-148 -127h-132z" />
    <glyph glyph-name="Thorn096" unicode="&#xfe;" horiz-adv-x="676" 
d="M51 -160v890h190v-261q69 84 164 84q101 0 168 -75q72 -80 72 -205v-2q0 -127 -71 -207q-67 -76 -168 -76q-98 0 -165 78v-226h-190zM426 181q33 35 33 89v2q0 53 -33 89q-31 34 -78 34q-48 0 -79 -34q-32 -37 -32 -89v-2q0 -53 32 -88t79 -35t78 34z" />
    <glyph glyph-name="Ydieresis112" unicode="&#xff;" horiz-adv-x="626" 
d="M318 215l102 326h195l-198 -528q-35 -96 -80 -136q-46 -40 -126 -40q-91 0 -173 47l58 133q50 -29 83 -29q29 0 45 22l-212 531h198zM340 588v142h162v-142h-162zM131 588v142h161v-142h-161z" />
    <glyph glyph-name="Amacron" unicode="&#x100;" horiz-adv-x="795" 
d="M7 0l297 705h187l298 -705h-208l-50 126h-271l-50 -126h-203zM317 277h157l-78 198zM198 765v117h398v-117h-398z" />
    <glyph glyph-name="Amacron034" unicode="&#x101;" horiz-adv-x="599" 
d="M77 31q-52 46 -52 124v2q0 84 58 127q55 43 154 43q76 0 130 -21v9q0 89 -108 89q-67 0 -150 -30l-39 133q102 42 219 42q140 0 206 -66q58 -57 58 -172v-311h-187v57q-64 -69 -160 -69q-80 0 -129 43zM343 131q26 26 26 65v25q-36 14 -75 14q-87 0 -87 -67v-2
q0 -59 67 -59q42 0 69 24zM116 599v114h375v-114h-375z" />
    <glyph glyph-name="Abreve" unicode="&#x102;" horiz-adv-x="795" 
d="M7 0l297 705h187l298 -705h-208l-50 126h-271l-50 -126h-203zM317 277h157l-78 198zM201 907h115q19 -45 82 -45q64 0 83 45h114q-19 -151 -197 -151t-197 151z" />
    <glyph glyph-name="Abreve028" unicode="&#x103;" horiz-adv-x="599" 
d="M77 31q-52 46 -52 124v2q0 84 58 127q55 43 154 43q76 0 130 -21v9q0 89 -108 89q-67 0 -150 -30l-39 133q102 42 219 42q140 0 206 -66q58 -57 58 -172v-311h-187v57q-64 -69 -160 -69q-80 0 -129 43zM343 131q26 26 26 65v25q-36 14 -75 14q-87 0 -87 -67v-2
q0 -59 67 -59q42 0 69 24zM167 633q-53 43 -61 123h111q19 -58 86 -58t86 58h111q-8 -80 -60 -123t-137 -43q-84 0 -136 43z" />
    <glyph glyph-name="Aogonek" unicode="&#x104;" horiz-adv-x="795" 
d="M795 -83v-81q-25 -4 -59 -4q-70 0 -112 24q-40 24 -40 63q0 41 40 81h-43l-50 126h-271l-50 -126h-203l297 705h187l298 -705h-44q-22 -25 -22 -47q0 -39 72 -36zM317 277h157l-78 198z" />
    <glyph glyph-name="Aogonek035" unicode="&#x105;" horiz-adv-x="599" 
d="M558 -83v-81q-25 -4 -59 -4q-70 0 -112 24q-40 24 -40 63q0 41 40 81h-21v57q-64 -69 -160 -69q-80 0 -129 43q-52 46 -52 124v2q0 84 58 127q55 43 154 43q76 0 130 -21v9q0 89 -108 89q-67 0 -150 -30l-39 133q102 42 219 42q140 0 206 -66q58 -57 58 -172v-311h-45
q-22 -25 -22 -47q0 -39 72 -36zM343 131q26 26 26 65v25q-36 14 -75 14q-87 0 -87 -67v-2q0 -59 67 -59q42 0 69 24z" />
    <glyph glyph-name="Cacute" unicode="&#x106;" horiz-adv-x="731" 
d="M145 89q-106 103 -106 259v2q0 154 105 259t263 105q191 0 297 -145l-146 -113q-67 82 -153 82q-72 0 -120 -55q-47 -53 -47 -131v-2q0 -80 47 -133q47 -54 120 -54q88 0 158 85l146 -104q-116 -158 -309 -158q-152 0 -255 103zM324 758l108 162l181 -55l-148 -107h-141z
" />
    <glyph glyph-name="Cacute039" unicode="&#x107;" horiz-adv-x="569" 
d="M243 592l104 184l176 -57l-148 -127h-132zM110 70q-80 83 -80 198v2q0 116 80 198q82 84 209 84q155 0 231 -120l-128 -96q-44 57 -101 57q-45 0 -77 -36q-30 -35 -30 -85v-2q0 -54 30 -88q30 -35 78 -35q57 0 104 56l127 -92q-84 -124 -240 -124q-120 0 -203 83z" />
    <glyph glyph-name="Cdotaccent" unicode="&#x10a;" horiz-adv-x="731" 
d="M314 758v138h170v-138h-170zM145 89q-106 103 -106 259v2q0 154 105 259t263 105q191 0 297 -145l-146 -113q-67 82 -153 82q-72 0 -120 -55q-47 -53 -47 -131v-2q0 -80 47 -133q47 -54 120 -54q88 0 158 85l146 -104q-116 -158 -309 -158q-152 0 -255 103z" />
    <glyph glyph-name="Cdotaccent042" unicode="&#x10b;" horiz-adv-x="569" 
d="M110 70q-80 83 -80 198v2q0 116 80 198q82 84 209 84q155 0 231 -120l-128 -96q-44 57 -101 57q-45 0 -77 -36q-30 -35 -30 -85v-2q0 -54 30 -88q30 -35 78 -35q57 0 104 56l127 -92q-84 -124 -240 -124q-120 0 -203 83zM233 592v142h167v-142h-167z" />
    <glyph glyph-name="Ccaron" unicode="&#x10c;" horiz-adv-x="731" 
d="M145 89q-106 103 -106 259v2q0 154 105 259t263 105q191 0 297 -145l-146 -113q-67 82 -153 82q-72 0 -120 -55q-47 -53 -47 -131v-2q0 -80 47 -133q47 -54 120 -54q88 0 158 85l146 -104q-116 -158 -309 -158q-152 0 -255 103zM607 907l-123 -149h-169l-123 149h129
l79 -53l79 53h128z" />
    <glyph glyph-name="Ccaron040" unicode="&#x10d;" horiz-adv-x="569" 
d="M521 756l-128 -164h-154l-128 164h122l84 -61l84 61h120zM110 70q-80 83 -80 198v2q0 116 80 198q82 84 209 84q155 0 231 -120l-128 -96q-44 57 -101 57q-45 0 -77 -36q-30 -35 -30 -85v-2q0 -54 30 -88q30 -35 78 -35q57 0 104 56l127 -92q-84 -124 -240 -124
q-120 0 -203 83z" />
    <glyph glyph-name="Dcaron" unicode="&#x10e;" horiz-adv-x="766" 
d="M62 0v700h271q184 0 290 -97q104 -95 104 -249v-2q0 -154 -105 -252q-109 -100 -293 -100h-267zM335 529h-79v-357h79q89 0 141 46q53 47 53 131v2q0 83 -53 131q-53 47 -141 47zM578 897l-123 -149h-169l-123 149h129l79 -53l79 53h128z" />
    <glyph glyph-name="Dcaron043" unicode="&#x10f;" horiz-adv-x="676" 
d="M671 585l11 215h131v-3l-65 -212h-77zM103 63q-72 79 -72 205v2q0 128 72 208q67 75 167 75q98 0 165 -78v255h190v-730h-190v72q-69 -84 -164 -84q-101 0 -168 75zM407 182q32 35 32 88v2q0 53 -32 88t-79 35t-78 -34q-33 -36 -33 -89v-2q0 -54 33 -88q32 -35 78 -35
q47 0 79 35z" />
    <glyph glyph-name="Dcroat" unicode="&#x110;" horiz-adv-x="815" 
d="M111 0v276h-80v153h80v271h271q184 0 290 -97q104 -95 104 -249v-2q0 -154 -105 -252q-109 -100 -293 -100h-267zM418 278h-118v-111h84q90 0 142 48t52 134v2q0 86 -52 135q-52 48 -142 48h-84v-107h118v-149z" />
    <glyph glyph-name="Dcroat044" unicode="&#x111;" horiz-adv-x="676" 
d="M285 594v90h150v46h190v-46h63v-90h-63v-594h-190v72q-69 -84 -164 -84q-101 0 -168 75q-72 79 -72 205v2q0 128 72 208q67 75 167 75q98 0 165 -78v119h-150zM407 182q32 35 32 88v2q0 53 -32 88t-79 35t-78 -34q-33 -36 -33 -89v-2q0 -54 33 -88q32 -35 78 -35
q47 0 79 35z" />
    <glyph glyph-name="Emacron" unicode="&#x112;" horiz-adv-x="668" 
d="M146 755v117h398v-117h-398zM62 0v700h563v-164h-371v-107h336v-153h-336v-111h376v-165h-568z" />
    <glyph glyph-name="Emacron052" unicode="&#x113;" horiz-adv-x="606" 
d="M111 65q-81 78 -81 203v2q0 119 77 201q76 82 196 82q133 0 206 -88q66 -81 66 -208q0 -30 -1 -39h-362q23 -89 117 -89q65 0 120 55l105 -87q-87 -110 -234 -110q-128 0 -209 78zM209 315h189q-11 98 -95 98q-77 0 -94 -98zM117 599v114h375v-114h-375z" />
    <glyph glyph-name="Ebreve" unicode="&#x114;" horiz-adv-x="668" 
d="M149 897h115q19 -45 82 -45q64 0 83 45h114q-19 -151 -197 -151t-197 151zM62 0v700h563v-164h-371v-107h336v-153h-336v-111h376v-165h-568z" />
    <glyph glyph-name="Ebreve046" unicode="&#x115;" horiz-adv-x="606" 
d="M111 65q-81 78 -81 203v2q0 119 77 201q76 82 196 82q133 0 206 -88q66 -81 66 -208q0 -30 -1 -39h-362q23 -89 117 -89q65 0 120 55l105 -87q-87 -110 -234 -110q-128 0 -209 78zM209 315h189q-11 98 -95 98q-77 0 -94 -98zM168 633q-53 43 -61 123h111q19 -58 86 -58
t86 58h111q-7 -80 -60 -123q-52 -43 -137 -43q-84 0 -136 43z" />
    <glyph glyph-name="Edotaccent" unicode="&#x116;" horiz-adv-x="668" 
d="M260 748v138h170v-138h-170zM62 0v700h563v-164h-371v-107h336v-153h-336v-111h376v-165h-568z" />
    <glyph glyph-name="Edotaccent050" unicode="&#x117;" horiz-adv-x="606" 
d="M111 65q-81 78 -81 203v2q0 119 77 201q76 82 196 82q133 0 206 -88q66 -81 66 -208q0 -30 -1 -39h-362q23 -89 117 -89q65 0 120 55l105 -87q-87 -110 -234 -110q-128 0 -209 78zM209 315h189q-11 98 -95 98q-77 0 -94 -98zM221 592v142h167v-142h-167z" />
    <glyph glyph-name="Eogonek" unicode="&#x118;" horiz-adv-x="668" 
d="M62 0v700h563v-164h-371v-107h336v-153h-336v-111h376v-165h-51q-22 -25 -22 -47q0 -39 72 -36v-81q-25 -4 -59 -4q-70 0 -112 24q-40 24 -40 63q0 41 40 81h-396z" />
    <glyph glyph-name="Eogonek053" unicode="&#x119;" horiz-adv-x="606" 
d="M209 315h189q-11 98 -95 98q-77 0 -94 -98zM449 184l105 -87q-28 -34 -64 -66q-47 -44 -47 -74q0 -43 73 -40v-81q-25 -4 -60 -4q-69 0 -111 24q-40 22 -40 60q0 34 35 72l-20 -1q-128 0 -209 78t-81 203v2q0 119 77 201q76 82 196 82q133 0 206 -88q66 -81 66 -208
q0 -30 -1 -39h-362q23 -89 117 -89q65 0 120 55z" />
    <glyph glyph-name="Ecaron" unicode="&#x11a;" horiz-adv-x="668" 
d="M553 897l-123 -149h-169l-123 149h129l79 -53l79 53h128zM62 0v700h563v-164h-371v-107h336v-153h-336v-111h376v-165h-568z" />
    <glyph glyph-name="Ecaron047" unicode="&#x11b;" horiz-adv-x="606" 
d="M509 756l-128 -164h-154l-128 164h122l84 -61l84 61h120zM111 65q-81 78 -81 203v2q0 119 77 201q76 82 196 82q133 0 206 -88q66 -81 66 -208q0 -30 -1 -39h-362q23 -89 117 -89q65 0 120 55l105 -87q-87 -110 -234 -110q-128 0 -209 78zM209 315h189q-11 98 -95 98
q-77 0 -94 -98z" />
    <glyph glyph-name="Gbreve" unicode="&#x11e;" horiz-adv-x="769" 
d="M211 907h115q19 -45 82 -45q64 0 83 45h114q-19 -151 -197 -151t-197 151zM147 88q-108 102 -108 260v2q0 154 107 259q108 105 269 105q166 0 284 -101l-114 -138q-79 66 -169 66q-76 0 -127 -55q-52 -55 -52 -136v-2q0 -84 53 -140q54 -55 137 -55q68 0 112 29v85h-137
v142h321v-314q-130 -109 -304 -109q-164 0 -272 102z" />
    <glyph glyph-name="Gbreve055" unicode="&#x11f;" horiz-adv-x="676" 
d="M47 -100l61 126q92 -51 189 -51q141 0 141 133v21q-70 -81 -166 -81q-103 0 -170 67q-71 71 -71 184v2q0 112 71 185q66 67 163 67q100 0 170 -76v64h190v-411q0 -147 -70 -216q-73 -76 -238 -76q-148 0 -270 62zM408 224q31 30 31 75v2q0 45 -31 75q-32 30 -80 30
t-80 -30q-31 -30 -31 -76v-2q0 -46 31 -74q32 -30 80 -30t80 30zM211 633q-53 43 -61 123h111q19 -58 86 -58t86 58h111q-8 -80 -60 -123t-137 -43q-84 0 -136 43z" />
    <glyph glyph-name="Gdotaccent" unicode="&#x120;" horiz-adv-x="769" 
d="M322 758v138h170v-138h-170zM147 88q-108 102 -108 260v2q0 154 107 259q108 105 269 105q166 0 284 -101l-114 -138q-79 66 -169 66q-76 0 -127 -55q-52 -55 -52 -136v-2q0 -84 53 -140q54 -55 137 -55q68 0 112 29v85h-137v142h321v-314q-130 -109 -304 -109
q-164 0 -272 102z" />
    <glyph glyph-name="Gdotaccent057" unicode="&#x121;" horiz-adv-x="676" 
d="M47 -100l61 126q92 -51 189 -51q141 0 141 133v21q-70 -81 -166 -81q-103 0 -170 67q-71 71 -71 184v2q0 112 71 185q66 67 163 67q100 0 170 -76v64h190v-411q0 -147 -70 -216q-73 -76 -238 -76q-148 0 -270 62zM408 224q31 30 31 75v2q0 45 -31 75q-32 30 -80 30
t-80 -30q-31 -30 -31 -76v-2q0 -46 31 -74q32 -30 80 -30t80 30zM264 592v142h167v-142h-167z" />
    <glyph glyph-name="Gcommaaccent" unicode="&#x122;" horiz-adv-x="769" 
d="M326 -314l-8 57q41 4 60 20t17 45h-68v136h162v-111q0 -141 -163 -147zM147 88q-108 102 -108 260v2q0 154 107 259q108 105 269 105q166 0 284 -101l-114 -138q-79 66 -169 66q-76 0 -127 -55q-52 -55 -52 -136v-2q0 -84 53 -140q54 -55 137 -55q68 0 112 29v85h-137
v142h321v-314q-130 -109 -304 -109q-164 0 -272 102z" />
    <glyph glyph-name="Gcommaaccent056" unicode="&#x123;" horiz-adv-x="676" 
d="M426 849l8 -57q-41 -4 -60 -20t-17 -45h68v-136h-162v111q0 141 163 147zM47 -100l61 126q92 -51 189 -51q141 0 141 133v21q-70 -81 -166 -81q-103 0 -170 67q-71 71 -71 184v2q0 112 71 185q66 67 163 67q100 0 170 -76v64h190v-411q0 -147 -70 -216q-73 -76 -238 -76
q-148 0 -270 62zM408 224q31 30 31 75v2q0 45 -31 75q-32 30 -80 30t-80 -30q-31 -30 -31 -76v-2q0 -46 31 -74q32 -30 80 -30t80 30z" />
    <glyph glyph-name="Hbar" unicode="&#x126;" horiz-adv-x="761" 
d="M2 517v105h60v78h194v-78h249v78h194v-78h60v-105h-60v-517h-194v266h-249v-266h-194v517h-60zM256 438h249v81h-249v-81z" />
    <glyph glyph-name="Hbar058" unicode="&#x127;" horiz-adv-x="634" 
d="M391 594h-150v-127q68 86 162 86q85 0 135 -53q49 -52 49 -146v-354h-189v293q0 92 -77 92q-36 0 -57 -23q-23 -26 -23 -69v-293h-190v594h-63v90h63v46h190v-46h150v-90z" />
    <glyph glyph-name="Itilde" unicode="&#x128;" horiz-adv-x="327" 
d="M67 0v700h194v-700h-194zM158 768q-50 18 -63 18q-31 0 -51 -47l-91 25q33 149 124 149q37 0 94 -22q51 -17 62 -17q32 0 51 46l91 -25q-31 -148 -124 -148q-36 0 -93 21z" />
    <glyph glyph-name="Itilde163" unicode="&#x129;" horiz-adv-x="301" 
d="M56 0v541h189v-541h-189zM145 609q-49 18 -63 18q-31 0 -51 -47l-91 25q33 149 124 149q37 0 94 -22q51 -17 62 -17q32 0 51 46l91 -25q-31 -148 -124 -148q-36 0 -93 21z" />
    <glyph glyph-name="Imacron" unicode="&#x12a;" horiz-adv-x="327" 
d="M67 0v700h194v-700h-194zM-35 755v117h398v-117h-398z" />
    <glyph glyph-name="Imacron064" unicode="&#x12b;" horiz-adv-x="301" 
d="M56 0v541h189v-541h-189zM-37 595v114h375v-114h-375z" />
    <glyph glyph-name="Ibreve" unicode="&#x12c;" horiz-adv-x="327" 
d="M67 0v700h194v-700h-194zM-33 897h115q19 -45 82 -45q64 0 83 45h114q-19 -151 -197 -151t-197 151z" />
    <glyph glyph-name="Ibreve060" unicode="&#x12d;" horiz-adv-x="301" 
d="M56 0v541h189v-541h-189zM14 629q-53 43 -61 123h111q19 -58 86 -58t86 58h111q-7 -80 -60 -123q-52 -43 -137 -43q-84 0 -136 43z" />
    <glyph glyph-name="Iogonek" unicode="&#x12e;" horiz-adv-x="327" 
d="M67 0v700h194v-700h-36q-22 -25 -22 -47q0 -39 72 -36v-81q-25 -4 -59 -4q-70 0 -112 24q-40 24 -40 63q0 41 40 81h-37z" />
    <glyph glyph-name="Iogonek065" unicode="&#x12f;" horiz-adv-x="301" 
d="M56 0v541h189v-541h-36q-22 -25 -22 -47q0 -39 72 -36v-81q-25 -4 -59 -4q-70 0 -112 24q-40 24 -40 63q0 41 40 81h-32zM52 590v140h197v-140h-197z" />
    <glyph glyph-name="Idotaccent" unicode="&#x130;" horiz-adv-x="327" 
d="M67 0v700h194v-700h-194zM79 748v138h170v-138h-170z" />
    <glyph glyph-name="dotlessi" unicode="&#x131;" horiz-adv-x="301" 
d="M56 0v541h189v-541h-189z" />
    <glyph glyph-name="Kcommaaccent" unicode="&#x136;" horiz-adv-x="730" 
d="M285 -305l-8 57q41 4 60 20t17 45h-68v136h162v-111q0 -141 -163 -147zM62 0v700h194v-284l242 284h229l-265 -300l274 -400h-232l-177 260l-71 -78v-182h-194z" />
    <glyph glyph-name="Kcommaaccent066" unicode="&#x137;" horiz-adv-x="603" 
d="M231 -307l-8 57q41 4 60 20t17 45h-68v136h162v-111q0 -141 -163 -147zM51 0v730h190v-370l147 181h215l-188 -216l193 -325h-210l-108 185l-49 -57v-128h-190z" />
    <glyph glyph-name="Lacute" unicode="&#x139;" horiz-adv-x="617" 
d="M104 748l108 162l181 -55l-148 -107h-141zM62 0v700h194v-530h339v-170h-533z" />
    <glyph glyph-name="Lacute067" unicode="&#x13a;" horiz-adv-x="301" 
d="M77 768l108 162l181 -55l-148 -107h-141zM56 0v730h189v-730h-189z" />
    <glyph glyph-name="Lcommaaccent" unicode="&#x13b;" horiz-adv-x="617" 
d="M247 -307l-8 57q41 4 60 20t17 45h-68v136h162v-111q0 -141 -163 -147zM62 0v700h194v-530h339v-170h-533z" />
    <glyph glyph-name="Lcommaaccent069" unicode="&#x13c;" horiz-adv-x="301" 
d="M69 -307l-8 57q41 4 60 20t17 45h-68v136h162v-111q0 -141 -163 -147zM56 0v730h189v-730h-189z" />
    <glyph glyph-name="Lcaron" unicode="&#x13d;" horiz-adv-x="617" 
d="M314 485l11 215h131v-3l-65 -212h-77zM62 0v700h194v-530h339v-170h-533z" />
    <glyph glyph-name="Lcaron068" unicode="&#x13e;" horiz-adv-x="301" 
d="M291 585l11 215h131v-3l-65 -212h-77zM56 0v730h189v-730h-189z" />
    <glyph glyph-name="Ldot" unicode="&#x13f;" horiz-adv-x="617" 
d="M396 327v155h159v-155h-159zM62 0v700h194v-530h339v-170h-533z" />
    <glyph glyph-name="Ldot070" unicode="&#x140;" horiz-adv-x="419" 
d="M293 302v153h134v-153h-134zM56 0v730h189v-730h-189z" />
    <glyph glyph-name="Lslash" unicode="&#x141;" horiz-adv-x="662" 
d="M448 372l-148 -64v-138h340v-170h-533v225l-76 -32v174l76 32v301h193v-218l148 63v-173z" />
    <glyph glyph-name="Lslash071" unicode="&#x142;" horiz-adv-x="401" 
d="M377 366l-82 -38v-328h-189v242l-82 -37v170l82 37v318h189v-232l82 38v-170z" />
    <glyph glyph-name="Nacute" unicode="&#x143;" horiz-adv-x="785" 
d="M318 748l108 162l181 -55l-148 -107h-141zM62 0v700h181l288 -370v370h192v-700h-169l-300 384v-384h-192z" />
    <glyph glyph-name="Nacute072" unicode="&#x144;" horiz-adv-x="634" 
d="M246 592l104 184l176 -57l-148 -127h-132zM51 0v541h190v-76q67 88 162 88q85 0 135 -53q49 -52 49 -146v-354h-189v293q0 92 -77 92q-36 0 -57 -23q-23 -26 -23 -69v-293h-190z" />
    <glyph glyph-name="Ncommaaccent" unicode="&#x145;" horiz-adv-x="785" 
d="M311 -305l-8 57q41 4 60 20t17 45h-68v136h162v-111q0 -141 -163 -147zM62 0v700h181l288 -370v370h192v-700h-169l-300 384v-384h-192z" />
    <glyph glyph-name="Ncommaaccent074" unicode="&#x146;" horiz-adv-x="634" 
d="M237 -307l-8 57q41 4 60 20t17 45h-68v136h162v-111q0 -141 -163 -147zM51 0v541h190v-76q67 88 162 88q85 0 135 -53q49 -52 49 -146v-354h-189v293q0 92 -77 92q-36 0 -57 -23q-23 -26 -23 -69v-293h-190z" />
    <glyph glyph-name="Ncaron" unicode="&#x147;" horiz-adv-x="785" 
d="M600 897l-123 -149h-169l-123 149h129l79 -53l79 53h128zM62 0v700h181l288 -370v370h192v-700h-169l-300 384v-384h-192z" />
    <glyph glyph-name="Ncaron073" unicode="&#x148;" horiz-adv-x="634" 
d="M523 756l-128 -164h-154l-128 164h122l84 -61l84 61h120zM51 0v541h190v-76q67 88 162 88q85 0 135 -53q49 -52 49 -146v-354h-189v293q0 92 -77 92q-36 0 -57 -23q-23 -26 -23 -69v-293h-190z" />
    <glyph glyph-name="Omacron" unicode="&#x14c;" horiz-adv-x="831" 
d="M216 765v117h398v-117h-398zM146 92q-107 104 -107 256v2q0 152 108 257q110 107 270 107q162 0 269 -106q107 -104 107 -256v-2q0 -152 -108 -257q-110 -107 -270 -107q-162 0 -269 106zM545 217q49 52 49 131v2q0 78 -49 133q-53 56 -130 56q-78 0 -129 -56
q-49 -52 -49 -131v-2q0 -77 50 -132q52 -57 130 -57t128 56z" />
    <glyph glyph-name="Omacron083" unicode="&#x14d;" horiz-adv-x="656" 
d="M141 599v114h375v-114h-375zM114 70q-84 81 -84 198v2q0 117 85 199q85 84 214 84q128 0 214 -83q84 -81 84 -198v-2q0 -117 -85 -199q-86 -84 -215 -84q-127 0 -213 83zM412 184q31 34 31 84v2q0 51 -33 87t-83 36q-51 0 -82 -36q-31 -34 -31 -85v-2q0 -49 32 -86
q34 -36 83 -36q51 0 83 36z" />
    <glyph glyph-name="Obreve" unicode="&#x14e;" horiz-adv-x="831" 
d="M219 907h115q20 -45 82 -45q64 0 83 45h114q-19 -151 -197 -151t-197 151zM146 92q-107 104 -107 256v2q0 152 108 257q110 107 270 107q162 0 269 -106q107 -104 107 -256v-2q0 -152 -108 -257q-110 -107 -270 -107q-162 0 -269 106zM545 217q49 52 49 131v2
q0 78 -49 133q-53 56 -130 56q-78 0 -129 -56q-49 -52 -49 -131v-2q0 -77 50 -132q52 -57 130 -57t128 56z" />
    <glyph glyph-name="Obreve077" unicode="&#x14f;" horiz-adv-x="656" 
d="M114 70q-84 81 -84 198v2q0 117 85 199q85 84 214 84q128 0 214 -83q84 -81 84 -198v-2q0 -117 -85 -199q-86 -84 -215 -84q-127 0 -213 83zM412 184q31 34 31 84v2q0 51 -33 87t-83 36q-51 0 -82 -36q-31 -34 -31 -85v-2q0 -49 32 -86q34 -36 83 -36q51 0 83 36z
M192 633q-53 43 -61 123h111q19 -58 86 -58t86 58h111q-7 -80 -60 -123q-52 -43 -137 -43q-84 0 -136 43z" />
    <glyph glyph-name="Ohungarumlaut" unicode="&#x150;" horiz-adv-x="831" 
d="M146 92q-107 104 -107 256v2q0 152 108 257q110 107 270 107q162 0 269 -106q107 -104 107 -256v-2q0 -152 -108 -257q-110 -107 -270 -107q-162 0 -269 106zM545 217q49 52 49 131v2q0 78 -49 133q-53 56 -130 56q-78 0 -129 -56q-49 -52 -49 -131v-2q0 -77 50 -132
q52 -57 130 -57t128 56zM437 758l62 98l-131 -98h-128l103 162l163 -54l34 54l168 -55l-143 -107h-128z" />
    <glyph glyph-name="Ohungarumlaut082" unicode="&#x151;" horiz-adv-x="656" 
d="M114 70q-84 81 -84 198v2q0 117 85 199q85 84 214 84q128 0 214 -83q84 -81 84 -198v-2q0 -117 -85 -199q-86 -84 -215 -84q-127 0 -213 83zM157 592l97 184l163 -56l30 56l167 -57l-144 -127h-121l63 119l-134 -119h-121zM412 184q31 34 31 84v2q0 51 -33 87t-83 36
q-51 0 -82 -36q-31 -34 -31 -85v-2q0 -49 32 -86q34 -36 83 -36q51 0 83 36z" />
    <glyph glyph-name="OE" unicode="&#x152;" horiz-adv-x="1078" 
d="M1040 0h-607q-184 0 -290 97q-104 95 -104 249v2q0 156 105 252q109 100 293 100h598v-164h-349v-107h314v-153h-314v-111h354v-165zM428 169h67v363h-67q-87 0 -138 -48q-53 -48 -53 -132v-2q0 -82 53 -132q52 -49 138 -49z" />
    <glyph glyph-name="OE080" unicode="&#x153;" horiz-adv-x="1014" 
d="M114 70q-84 82 -84 198v2q0 116 84 199q86 84 210 84q122 0 201 -81q73 81 188 81q131 0 204 -88q66 -81 66 -208q0 -30 -1 -39h-362q23 -89 117 -89q65 0 120 55l105 -87q-87 -110 -232 -110q-129 0 -208 82q-79 -82 -202 -82q-121 0 -206 83zM617 315h189
q-11 98 -95 98q-77 0 -94 -98zM408 184q30 34 30 84v2q0 50 -32 87q-33 36 -81 36q-49 0 -81 -36q-30 -35 -30 -85v-2q0 -49 32 -86q32 -36 81 -36t81 36z" />
    <glyph glyph-name="Racute" unicode="&#x154;" horiz-adv-x="719" 
d="M62 0v700h331q153 0 228 -75q62 -62 62 -163v-2q0 -154 -144 -216l167 -244h-223l-141 212h-86v-212h-194zM256 364h129q50 0 76 22q28 22 28 61v2q0 84 -105 84h-128v-169zM276 748l108 162l181 -55l-148 -107h-141z" />
    <glyph glyph-name="Racute087" unicode="&#x155;" horiz-adv-x="428" 
d="M156 588l104 184l176 -57l-148 -127h-132zM51 0v541h190v-109q52 123 171 118v-200h-16q-155 0 -155 -181v-169h-190z" />
    <glyph glyph-name="Rcommaaccent" unicode="&#x156;" horiz-adv-x="719" 
d="M62 0v700h331q153 0 228 -75q62 -62 62 -163v-2q0 -154 -144 -216l167 -244h-223l-141 212h-86v-212h-194zM256 364h129q50 0 76 22q28 22 28 61v2q0 84 -105 84h-128v-169zM272 -305l-8 57q41 4 60 20t17 45h-68v136h162v-111q0 -141 -163 -147z" />
    <glyph glyph-name="Rcommaaccent089" unicode="&#x157;" horiz-adv-x="428" 
d="M70 -307l-8 57q41 4 60 20t17 45h-68v136h162v-111q0 -141 -163 -147zM51 0v541h190v-109q52 123 171 118v-200h-16q-155 0 -155 -181v-169h-190z" />
    <glyph glyph-name="Rcaron" unicode="&#x158;" horiz-adv-x="719" 
d="M62 0v700h331q153 0 228 -75q62 -62 62 -163v-2q0 -154 -144 -216l167 -244h-223l-141 212h-86v-212h-194zM559 897l-123 -149h-169l-123 149h129l79 -53l79 53h128zM256 364h129q50 0 76 22q28 22 28 61v2q0 84 -105 84h-128v-169z" />
    <glyph glyph-name="Rcaron088" unicode="&#x159;" horiz-adv-x="428" 
d="M434 752l-128 -164h-154l-128 164h122l84 -61l84 61h120zM51 0v541h190v-109q52 123 171 118v-200h-16q-155 0 -155 -181v-169h-190z" />
    <glyph glyph-name="Sacute" unicode="&#x15a;" horiz-adv-x="652" 
d="M9 104l108 129q106 -84 227 -84q81 0 81 48v2q0 23 -23 37q-29 15 -96 31q-133 30 -188 69q-76 52 -76 150v2q0 100 73 161q73 63 198 63q173 0 288 -93l-97 -137q-96 69 -196 69q-70 0 -70 -45v-2q0 -24 24 -38q26 -14 98 -30q130 -28 190 -73q70 -52 70 -145v-2
q0 -106 -78 -168q-76 -60 -205 -60q-197 0 -328 116zM253 758l108 162l181 -55l-148 -107h-141z" />
    <glyph glyph-name="Sacute090" unicode="&#x15b;" horiz-adv-x="514" 
d="M188 592l104 184l176 -57l-148 -127h-132zM11 69l71 114q95 -62 185 -62q49 0 49 29v2q0 22 -88 47q-96 26 -136 56q-56 42 -56 116v2q0 83 62 133q58 46 155 46q125 0 223 -63l-65 -120q-88 51 -160 51q-44 0 -44 -27v-2q0 -21 88 -48q97 -28 136 -58q56 -42 56 -114v-2
q0 -87 -61 -135q-58 -46 -160 -46q-144 0 -255 81z" />
    <glyph glyph-name="Scedilla" unicode="&#x15e;" horiz-adv-x="652" 
d="M326 -173l-150 64l76 104q-141 19 -243 109l108 129q106 -84 227 -84q81 0 81 48v2q0 23 -23 37q-29 15 -96 31q-133 30 -188 69q-76 52 -76 150v2q0 100 73 161q73 63 198 63q173 0 288 -93l-97 -137q-96 69 -196 69q-70 0 -70 -45v-2q0 -24 24 -38q26 -14 98 -30
q130 -28 190 -73q70 -52 70 -145v-2q0 -96 -64 -156q-63 -58 -173 -69z" />
    <glyph glyph-name="Scedilla092" unicode="&#x15f;" horiz-adv-x="514" 
d="M252 -173l-150 64l77 105q-90 16 -168 73l71 114q95 -62 185 -62q49 0 49 29v2q0 22 -88 47q-96 26 -136 56q-56 42 -56 116v2q0 83 62 133q58 46 155 46q125 0 223 -63l-65 -120q-88 51 -160 51q-44 0 -44 -27v-2q0 -21 88 -48q97 -28 136 -58q56 -42 56 -114v-2
q0 -159 -178 -178z" />
    <glyph glyph-name="Scaron" unicode="&#x160;" horiz-adv-x="652" 
d="M9 104l108 129q106 -84 227 -84q81 0 81 48v2q0 23 -23 37q-29 15 -96 31q-133 30 -188 69q-76 52 -76 150v2q0 100 73 161q73 63 198 63q173 0 288 -93l-97 -137q-96 69 -196 69q-70 0 -70 -45v-2q0 -24 24 -38q26 -14 98 -30q130 -28 190 -73q70 -52 70 -145v-2
q0 -106 -78 -168q-76 -60 -205 -60q-197 0 -328 116zM536 907l-123 -149h-169l-123 149h129l79 -53l79 53h128z" />
    <glyph glyph-name="Scaron091" unicode="&#x161;" horiz-adv-x="514" 
d="M465 756l-128 -164h-154l-128 164h122l84 -61l84 61h120zM11 69l71 114q95 -62 185 -62q49 0 49 29v2q0 22 -88 47q-96 26 -136 56q-56 42 -56 116v2q0 83 62 133q58 46 155 46q125 0 223 -63l-65 -120q-88 51 -160 51q-44 0 -44 -27v-2q0 -21 88 -48q97 -28 136 -58
q56 -42 56 -114v-2q0 -87 -61 -135q-58 -46 -160 -46q-144 0 -255 81z" />
    <glyph glyph-name="Tcedilla" unicode="&#x162;" horiz-adv-x="660" 
d="M249 -307l-8 57q41 4 60 20t17 45h-68v136h162v-111q0 -141 -163 -147zM233 0v530h-209v170h613v-170h-210v-530h-194z" />
    <glyph glyph-name="Tcedilla095" unicode="&#x163;" horiz-adv-x="431" 
d="M150 -311l-8 57q41 4 60 20t17 45h-68v136h162v-111q0 -141 -163 -147zM85 168v221h-64v152h64v137h189v-137h126v-152h-126v-184q0 -54 52 -54q34 0 72 18v-148q-58 -32 -132 -32q-181 0 -181 179z" />
    <glyph glyph-name="Tcaron" unicode="&#x164;" horiz-adv-x="660" 
d="M538 897l-123 -149h-169l-123 149h129l79 -53l79 53h128zM233 0v530h-209v170h613v-170h-210v-530h-194z" />
    <glyph glyph-name="Tcaron094" unicode="&#x165;" horiz-adv-x="431" 
d="M323 585l11 215h131v-3l-65 -212h-77zM85 168v221h-64v152h64v137h189v-137h126v-152h-126v-184q0 -54 52 -54q34 0 72 18v-148q-58 -32 -132 -32q-181 0 -181 179z" />
    <glyph glyph-name="Utilde" unicode="&#x168;" horiz-adv-x="758" 
d="M141 65q-87 83 -87 242v393h196v-389q0 -149 129 -149q130 0 130 144v394h196v-388q0 -164 -89 -247q-84 -78 -239 -78q-153 0 -236 78zM374 768q-50 18 -63 18q-31 0 -51 -47l-91 25q33 149 124 149q37 0 94 -22q51 -17 62 -17q32 0 51 46l91 -25q-31 -148 -124 -148
q-36 0 -93 21z" />
    <glyph glyph-name="Utilde117" unicode="&#x169;" horiz-adv-x="634" 
d="M96 42q-49 53 -49 146v353h190v-293q0 -91 77 -91q36 0 57 23q23 26 23 68v293h189v-541h-189v75q-68 -87 -162 -87q-86 0 -136 54zM309 609q-49 18 -63 18q-31 0 -51 -47l-91 25q33 149 124 149q37 0 94 -22q51 -17 62 -17q32 0 51 46l91 -25q-31 -148 -124 -148
q-36 0 -93 21z" />
    <glyph glyph-name="Umacron" unicode="&#x16a;" horiz-adv-x="758" 
d="M180 755v117h398v-117h-398zM141 65q-87 83 -87 242v393h196v-389q0 -149 129 -149q130 0 130 144v394h196v-388q0 -164 -89 -247q-84 -78 -239 -78q-153 0 -236 78z" />
    <glyph glyph-name="Umacron103" unicode="&#x16b;" horiz-adv-x="634" 
d="M96 42q-49 53 -49 146v353h190v-293q0 -91 77 -91q36 0 57 23q23 26 23 68v293h189v-541h-189v75q-68 -87 -162 -87q-86 0 -136 54zM127 595v114h375v-114h-375z" />
    <glyph glyph-name="Ubreve" unicode="&#x16c;" horiz-adv-x="758" 
d="M182 888h115q19 -45 82 -45t83 45h114q-19 -151 -197 -151t-197 151zM141 65q-87 83 -87 242v393h196v-389q0 -149 129 -149q130 0 130 144v394h196v-388q0 -164 -89 -247q-84 -78 -239 -78q-153 0 -236 78z" />
    <glyph glyph-name="Ubreve098" unicode="&#x16d;" horiz-adv-x="634" 
d="M96 42q-49 53 -49 146v353h190v-293q0 -91 77 -91q36 0 57 23q23 26 23 68v293h189v-541h-189v75q-68 -87 -162 -87q-86 0 -136 54zM178 629q-53 43 -61 123h111q19 -58 86 -58t86 58h111q-7 -80 -60 -123q-52 -43 -137 -43q-84 0 -136 43z" />
    <glyph glyph-name="Uring" unicode="&#x16e;" horiz-adv-x="758" 
d="M141 65q-87 83 -87 242v393h196v-389q0 -149 129 -149q130 0 130 144v394h196v-388q0 -164 -89 -247q-84 -78 -239 -78q-153 0 -236 78zM279 763q-41 36 -41 90t41 90q41 35 100 35t100 -35q41 -36 41 -90t-41 -90t-100 -36t-100 36zM431 807q20 18 20 46t-20 46
q-19 19 -52 19t-52 -19q-20 -18 -20 -46t20 -46q19 -19 52 -19t52 19z" />
    <glyph glyph-name="Uring105" unicode="&#x16f;" horiz-adv-x="634" 
d="M221 615q-39 37 -39 90t39 90q37 37 93 37q57 0 94 -37q39 -37 39 -90t-39 -90q-37 -37 -94 -37q-56 0 -93 37zM363 656q20 22 20 49q0 28 -20 50q-20 20 -49 20q-28 0 -48 -20q-20 -22 -20 -50q0 -29 20 -49t48 -20q29 0 49 20zM96 42q-49 53 -49 146v353h190v-293
q0 -91 77 -91q36 0 57 23q23 26 23 68v293h189v-541h-189v75q-68 -87 -162 -87q-86 0 -136 54z" />
    <glyph glyph-name="Uhungarumlaut" unicode="&#x170;" horiz-adv-x="758" 
d="M141 65q-87 83 -87 242v393h196v-389q0 -149 129 -149q130 0 130 144v394h196v-388q0 -164 -89 -247q-84 -78 -239 -78q-153 0 -236 78zM395 748l62 98l-131 -98h-128l103 162l163 -54l34 54l168 -55l-143 -107h-128z" />
    <glyph glyph-name="Uhungarumlaut102" unicode="&#x171;" horiz-adv-x="634" 
d="M96 42q-49 53 -49 146v353h190v-293q0 -91 77 -91q36 0 57 23q23 26 23 68v293h189v-541h-189v75q-68 -87 -162 -87q-86 0 -136 54zM141 588l97 184l163 -56l30 56l167 -57l-144 -127h-121l63 119l-134 -119h-121z" />
    <glyph glyph-name="Uogonek" unicode="&#x172;" horiz-adv-x="758" 
d="M484 -83v-81q-25 -4 -59 -4q-70 0 -112 24q-40 24 -40 63q0 35 32 73q-251 35 -251 315v393h196v-389q0 -149 129 -149q130 0 130 144v394h196v-388q0 -299 -279 -323q-14 -19 -14 -36q0 -39 72 -36z" />
    <glyph glyph-name="Uogonek104" unicode="&#x173;" horiz-adv-x="634" 
d="M96 42q-49 53 -49 146v353h190v-293q0 -91 77 -91q36 0 57 23q23 26 23 68v293h189v-541h-41q-22 -25 -22 -47q0 -39 72 -36v-81q-25 -4 -59 -4q-70 0 -112 24q-40 24 -40 63q0 41 40 81h-27v75q-68 -87 -162 -87q-86 0 -136 54z" />
    <glyph glyph-name="Wcircumflex" unicode="&#x174;" horiz-adv-x="1117" 
d="M249 -5l-234 705h205l122 -405l135 407h167l135 -407l122 405h201l-234 -705h-169l-140 403l-141 -403h-169zM351 748l123 149h169l123 -149h-130l-79 53l-79 -53h-127z" />
    <glyph glyph-name="Wcircumflex107" unicode="&#x175;" horiz-adv-x="861" 
d="M225 588l128 164h154l128 -164h-122l-84 61l-84 -61h-120zM178 -4l-165 545h185l71 -272l84 274h156l84 -276l73 274h183l-167 -545h-164l-88 282l-90 -282h-162z" />
    <glyph glyph-name="Ycircumflex" unicode="&#x176;" horiz-adv-x="723" 
d="M265 0v262l-267 438h221l144 -255l145 255h217l-266 -435v-265h-194zM154 748l123 149h169l123 -149h-130l-79 53l-79 -53h-127z" />
    <glyph glyph-name="Ycircumflex111" unicode="&#x177;" horiz-adv-x="626" 
d="M318 215l102 326h195l-198 -528q-35 -96 -80 -136q-46 -40 -126 -40q-91 0 -173 47l58 133q50 -29 83 -29q29 0 45 22l-212 531h198zM111 588l128 164h154l128 -164h-122l-84 61l-84 -61h-120z" />
    <glyph glyph-name="Ydieresis" unicode="&#x178;" horiz-adv-x="723" 
d="M265 0v262l-267 438h221l144 -255l145 255h217l-266 -435v-265h-194zM389 748v138h165v-138h-165zM168 748v138h165v-138h-165z" />
    <glyph glyph-name="Zacute" unicode="&#x179;" horiz-adv-x="698" 
d="M41 0v141l351 396h-339v163h606v-140l-351 -396h351v-164h-618zM282 748l108 162l181 -55l-148 -107h-141z" />
    <glyph glyph-name="Zacute114" unicode="&#x17a;" horiz-adv-x="563" 
d="M216 588l104 184l176 -57l-148 -127h-132zM33 0v125l249 266h-240v150h492v-124l-251 -266h251v-151h-501z" />
    <glyph glyph-name="Zdotaccent" unicode="&#x17b;" horiz-adv-x="698" 
d="M272 748v138h170v-138h-170zM41 0v141l351 396h-339v163h606v-140l-351 -396h351v-164h-618z" />
    <glyph glyph-name="Zdotaccent116" unicode="&#x17c;" horiz-adv-x="563" 
d="M33 0v125l249 266h-240v150h492v-124l-251 -266h251v-151h-501zM205 588v142h167v-142h-167z" />
    <glyph glyph-name="Zcaron" unicode="&#x17d;" horiz-adv-x="698" 
d="M565 897l-123 -149h-169l-123 149h129l79 -53l79 53h128zM41 0v141l351 396h-339v163h606v-140l-351 -396h351v-164h-618z" />
    <glyph glyph-name="Zcaron115" unicode="&#x17e;" horiz-adv-x="563" 
d="M493 752l-128 -164h-154l-128 164h122l84 -61l84 61h120zM33 0v125l249 266h-240v150h492v-124l-251 -266h251v-151h-501z" />
    <glyph glyph-name="florin" unicode="&#x192;" horiz-adv-x="553" 
d="M26 0v138q27 -6 47 -6q57 0 68 65l23 133h-61v143h87l12 66q32 171 218 171q67 0 110 -13v-139q-44 9 -67 9q-68 0 -78 -64l-5 -30h114v-143h-140l-28 -158q-16 -98 -67 -141q-50 -41 -148 -41q-44 0 -85 10z" />
    <glyph glyph-name="Ohorn" unicode="&#x1a0;" horiz-adv-x="831" 
d="M545 217q49 52 49 131v2q0 78 -49 133q-53 56 -130 56q-78 0 -129 -56q-49 -52 -49 -131v-2q0 -77 50 -132q52 -57 130 -57t128 56zM741 540q52 -82 52 -188v-2q0 -152 -108 -257q-110 -107 -270 -107q-162 0 -269 106q-107 104 -107 256v2q0 152 108 257
q110 107 270 107q162 0 269 -106l3 -3q33 25 28 94h108q0 -119 -84 -159z" />
    <glyph glyph-name="Ohorn118" unicode="&#x1a1;" horiz-adv-x="699" 
d="M412 184q31 34 31 84v2q0 51 -33 87t-83 36q-51 0 -82 -36q-31 -34 -31 -85v-2q0 -49 32 -86q34 -36 83 -36q51 0 83 36zM604 384q23 -52 23 -112v-2q0 -117 -85 -199q-86 -84 -215 -84q-127 0 -213 83q-84 81 -84 198v2q0 117 85 199q85 84 214 84q128 0 214 -83l15 -15
q23 30 19 86h108q0 -117 -81 -157z" />
    <glyph glyph-name="Uhorn" unicode="&#x1af;" horiz-adv-x="871" 
d="M705 522v-210q0 -164 -89 -247q-84 -78 -239 -78q-153 0 -236 78q-87 83 -87 242v393h196v-389q0 -149 129 -149q130 0 130 144v394h196v-105q51 21 45 104h108q0 -161 -153 -177z" />
    <glyph glyph-name="Uhorn119" unicode="&#x1b0;" horiz-adv-x="747" 
d="M583 365v-365h-189v75q-68 -87 -162 -87q-86 0 -136 54q-49 53 -49 146v353h190v-293q0 -91 77 -91q36 0 57 23q23 26 23 68v293h189v-104q49 22 43 104h108q0 -160 -151 -176z" />
    <glyph glyph-name="Aringacute" unicode="&#x1fa;" horiz-adv-x="795" 
d="M7 0l279 663q-29 35 -29 78q0 54 41 90q41 35 100 35t100 -35q41 -36 41 -90q0 -46 -30 -79l280 -662h-208l-50 126h-271l-50 -126h-203zM320 891l116 152l176 -57l-158 -95h-134zM317 277h157l-78 198zM450 695q20 18 20 46t-20 46q-19 19 -52 19t-52 -19
q-20 -18 -20 -46t20 -46q19 -19 52 -19t52 19z" />
    <glyph glyph-name="Aringacute037" unicode="&#x1fb;" horiz-adv-x="599" 
d="M230 880l112 160l171 -56l-151 -104h-132zM77 31q-52 46 -52 124v2q0 84 58 127q55 43 154 43q76 0 130 -21v9q0 89 -108 89q-67 0 -150 -30l-39 133q102 42 219 42q140 0 206 -66q58 -57 58 -172v-311h-187v57q-64 -69 -160 -69q-80 0 -129 43zM343 131q26 26 26 65v25
q-36 14 -75 14q-87 0 -87 -67v-2q0 -59 67 -59q42 0 69 24zM210 630q-39 38 -39 90t39 90q37 37 93 37q57 0 94 -37q39 -38 39 -90t-39 -90q-37 -37 -94 -37q-56 0 -93 37zM352 671q20 22 20 49q0 28 -20 50q-20 20 -49 20q-28 0 -48 -20q-20 -22 -20 -50q0 -29 20 -49
t48 -20q29 0 49 20z" />
    <glyph glyph-name="AEacute" unicode="&#x1fc;" horiz-adv-x="1063" 
d="M542 748l108 162l181 -55l-148 -107h-141zM-5 0l370 700h655v-164h-349v-107h314v-153h-314v-111h354v-165h-543v126h-226l-65 -126h-196zM334 277h148v264h-12z" />
    <glyph glyph-name="AEacute032" unicode="&#x1fd;" horiz-adv-x="940" 
d="M394 588l104 184l176 -57l-148 -127h-132zM84 30q-59 47 -59 125v2q0 84 58 127q55 43 154 43q76 0 130 -21v9q0 89 -108 89q-67 0 -150 -30l-39 133q102 42 219 42q125 0 183 -61q71 65 170 65q129 0 202 -88q66 -81 66 -208q0 -5 -2 -39h-362q24 -89 117 -89
q66 0 121 55l104 -87q-87 -110 -234 -110q-133 0 -212 82q-106 -81 -217 -81q-87 0 -141 42zM544 315h188q-11 98 -94 98q-79 0 -94 -98zM386 153q-14 32 -18 68q-36 14 -74 14q-87 0 -87 -67v-2q0 -57 70 -57q53 0 109 44z" />
    <glyph glyph-name="Oslashacute" unicode="&#x1fe;" horiz-adv-x="831" 
d="M654 705h147l-100 -113q92 -103 92 -240v-2q0 -152 -108 -257q-110 -107 -270 -107q-110 0 -198 52l-39 -43h-147l99 113q-91 98 -91 240v2q0 152 108 257q110 107 270 107q109 0 198 -52zM548 214q50 56 50 134v2q0 54 -25 98l-238 -272q34 -19 82 -19q78 0 131 57z
M234 352v-2q0 -54 24 -97l238 271q-37 19 -81 19q-80 0 -131 -57q-50 -56 -50 -134zM341 758l108 162l181 -55l-148 -107h-141z" />
    <glyph glyph-name="Oslashacute085" unicode="&#x1ff;" horiz-adv-x="656" 
d="M509 546h133l-84 -93q69 -79 69 -181v-2q0 -117 -85 -199q-86 -84 -215 -84q-83 0 -151 37l-28 -29h-133l83 91q-68 77 -68 182v2q0 117 85 199q85 84 214 84q81 0 152 -38zM255 592l104 184l176 -57l-148 -127h-132zM206 272v-2q0 -33 10 -54l157 175q-21 9 -46 9
q-53 0 -88 -38q-33 -36 -33 -90zM417 178q33 38 33 90v2q0 26 -10 52l-156 -175q18 -7 45 -7q53 0 88 38z" />
    <glyph glyph-name="Scommaaccent" unicode="&#x218;" horiz-adv-x="652" 
d="M247 -314l-8 57q41 4 60 20t17 45h-68v136h162v-111q0 -141 -163 -147zM9 104l108 129q106 -84 227 -84q81 0 81 48v2q0 23 -23 37q-29 15 -96 31q-133 30 -188 69q-76 52 -76 150v2q0 100 73 161q73 63 198 63q173 0 288 -93l-97 -137q-96 69 -196 69q-70 0 -70 -45v-2
q0 -24 24 -38q26 -14 98 -30q130 -28 190 -73q70 -52 70 -145v-2q0 -106 -78 -168q-76 -60 -205 -60q-197 0 -328 116z" />
    <glyph glyph-name="Scommaaccent093" unicode="&#x219;" horiz-adv-x="514" 
d="M179 -311l-8 57q41 4 60 20t17 45h-68v136h162v-111q0 -141 -163 -147zM11 69l71 114q95 -62 185 -62q49 0 49 29v2q0 22 -88 47q-96 26 -136 56q-56 42 -56 116v2q0 83 62 133q58 46 155 46q125 0 223 -63l-65 -120q-88 51 -160 51q-44 0 -44 -27v-2q0 -21 88 -48
q97 -28 136 -58q56 -42 56 -114v-2q0 -87 -61 -135q-58 -46 -160 -46q-144 0 -255 81z" />
    <glyph glyph-name="uni0259" unicode="&#x259;" horiz-adv-x="606" 
d="M494 476q81 -78 81 -203v-2q0 -121 -76 -201q-78 -82 -197 -82q-133 0 -206 88q-66 81 -66 208q0 30 1 39h362q-23 89 -117 89q-65 0 -120 -55l-105 87q87 110 234 110q128 0 209 -78zM396 226h-189q11 -98 95 -98q77 0 94 98z" />
    <glyph glyph-name="circumflex" unicode="&#x2c6;" 
d="M45 588l128 164h154l128 -164h-122l-84 61l-84 -61h-120z" />
    <glyph glyph-name="caron" unicode="&#x2c7;" 
d="M455 752l-128 -164h-154l-128 164h122l84 -61l84 61h120z" />
    <glyph glyph-name="breve" unicode="&#x2d8;" 
d="M114 629q-53 43 -61 123h111q19 -58 86 -58t86 58h111q-7 -80 -60 -123q-52 -43 -137 -43q-84 0 -136 43z" />
    <glyph glyph-name="dotaccent" unicode="&#x2d9;" 
d="M167 588v142h167v-142h-167z" />
    <glyph glyph-name="ring" unicode="&#x2da;" 
d="M157 626q-39 38 -39 90t39 90q37 37 93 37q57 0 94 -37q39 -38 39 -90t-39 -90q-37 -37 -94 -37q-56 0 -93 37zM299 667q20 22 20 49q0 28 -20 50q-20 20 -49 20q-28 0 -48 -20q-20 -22 -20 -50q0 -29 20 -49t48 -20q29 0 49 20z" />
    <glyph glyph-name="ogonek" unicode="&#x2db;" 
d="M373 -83v-81q-25 -4 -59 -4q-70 0 -112 24q-40 24 -40 63q0 44 50 91h121q-32 -32 -32 -57q0 -39 72 -36z" />
    <glyph glyph-name="tilde" unicode="&#x2dc;" 
d="M244 609q-50 18 -63 18q-31 0 -51 -47l-91 25q33 149 124 149q37 0 94 -22q51 -17 62 -17q32 0 51 46l91 -25q-31 -148 -124 -148q-36 0 -93 21z" />
    <glyph glyph-name="hungarumlaut" unicode="&#x2dd;" 
d="M28 588l97 184l163 -56l30 56l167 -57l-144 -127h-121l63 119l-134 -119h-121z" />
    <glyph glyph-name="gravecomb" unicode="&#x300;" horiz-adv-x="0" 
d="M-195 588l-147 127l176 57l103 -184h-132z" />
    <glyph glyph-name="acutecomb" unicode="&#x301;" horiz-adv-x="0" 
d="M-327 588l104 184l176 -57l-148 -127h-132z" />
    <glyph glyph-name="tildecomb" unicode="&#x303;" horiz-adv-x="0" 
d="M-166 609q-50 18 -63 18q-31 0 -51 -47l-91 25q33 149 124 149q37 0 94 -22q51 -17 62 -17q32 0 51 46l91 -25q-31 -148 -124 -148q-36 0 -93 21z" />
    <glyph glyph-name="hookabovecomb" unicode="&#x309;" 
d="M162 703v81q25 4 59 4q70 0 112 -24q40 -24 40 -63q0 -44 -50 -91h-121q32 32 32 57q0 39 -72 36z" />
    <glyph glyph-name="uni031B" unicode="&#x31b;" 
d="M164 566l-10 67q82 7 74 111h108q0 -171 -172 -178z" />
    <glyph glyph-name="dotbelowcomb" unicode="&#x323;" horiz-adv-x="0" 
d="M-253 -231v156h157v-156h-157z" />
    <glyph glyph-name="uni0326" unicode="&#x326;" 
d="M168 -307l-8 57q41 4 60 20t17 45h-68v136h162v-111q0 -141 -163 -147z" />
    <glyph glyph-name="uni0E3F" unicode="&#xe3f;" horiz-adv-x="655" 
d="M322 780h91l-9 -81q98 -5 153 -48q59 -47 59 -130v-3q0 -108 -108 -154q122 -53 122 -166v-3q0 -94 -69 -145q-68 -50 -188 -50h-45l-11 -114h-91l11 114h-189v700h265zM368 295h-13l-16 -154h30q96 0 96 78q0 76 -97 76zM208 410h79l15 149h-94v-149zM383 558l-15 -148
q86 3 86 75q0 64 -71 73zM208 141h50l16 154h-66v-154z" />
    <glyph glyph-name="Wgrave" unicode="&#x1e80;" horiz-adv-x="1117" 
d="M634 748h-142l-148 107l181 55zM249 -5l-234 705h205l122 -405l135 407h167l135 -407l122 405h201l-234 -705h-169l-140 403l-141 -403h-169z" />
    <glyph glyph-name="Wgrave109" unicode="&#x1e81;" horiz-adv-x="861" 
d="M178 -4l-165 545h185l71 -272l84 274h156l84 -276l73 274h183l-167 -545h-164l-88 282l-90 -282h-162zM370 588l-147 127l176 57l103 -184h-132z" />
    <glyph glyph-name="Wacute" unicode="&#x1e82;" horiz-adv-x="1117" 
d="M484 748l108 162l181 -55l-148 -107h-141zM249 -5l-234 705h205l122 -405l135 407h167l135 -407l122 405h201l-234 -705h-169l-140 403l-141 -403h-169z" />
    <glyph glyph-name="Wacute106" unicode="&#x1e83;" horiz-adv-x="861" 
d="M357 588l104 184l176 -57l-148 -127h-132zM178 -4l-165 545h185l71 -272l84 274h156l84 -276l73 274h183l-167 -545h-164l-88 282l-90 -282h-162z" />
    <glyph glyph-name="Wdieresis" unicode="&#x1e84;" horiz-adv-x="1117" 
d="M586 748v138h165v-138h-165zM365 748v138h165v-138h-165zM249 -5l-234 705h205l122 -405l135 407h167l135 -407l122 405h201l-234 -705h-169l-140 403l-141 -403h-169z" />
    <glyph glyph-name="Wdieresis108" unicode="&#x1e85;" horiz-adv-x="861" 
d="M454 588v142h162v-142h-162zM245 588v142h161v-142h-161zM178 -4l-165 545h185l71 -272l84 274h156l84 -276l73 274h183l-167 -545h-164l-88 282l-90 -282h-162z" />
    <glyph glyph-name="A.dotbl" unicode="&#x1ea0;" horiz-adv-x="795" 
d="M7 0l297 705h187l298 -705h-208l-50 126h-271l-50 -126h-203zM317 277h157l-78 198zM320 -231v156h157v-156h-157z" />
    <glyph glyph-name="A.dotbl120" unicode="&#x1ea1;" horiz-adv-x="599" 
d="M77 31q-52 46 -52 124v2q0 84 58 127q55 43 154 43q76 0 130 -21v9q0 89 -108 89q-67 0 -150 -30l-39 133q102 42 219 42q140 0 206 -66q58 -57 58 -172v-311h-187v57q-64 -69 -160 -69q-80 0 -129 43zM343 131q26 26 26 65v25q-36 14 -75 14q-87 0 -87 -67v-2
q0 -59 67 -59q42 0 69 24zM211 -231v156h157v-156h-157z" />
    <glyph glyph-name="A.hook" unicode="&#x1ea2;" horiz-adv-x="795" 
d="M7 0l297 705h187l298 -705h-208l-50 126h-271l-50 -126h-203zM317 277h157l-78 198zM293 862v81q25 4 59 4q70 0 112 -24q40 -24 40 -63q0 -44 -50 -91h-121q32 32 32 57q0 39 -72 36z" />
    <glyph glyph-name="A.hook121" unicode="&#x1ea3;" horiz-adv-x="599" 
d="M77 31q-52 46 -52 124v2q0 84 58 127q55 43 154 43q76 0 130 -21v9q0 89 -108 89q-67 0 -150 -30l-39 133q102 42 219 42q140 0 206 -66q58 -57 58 -172v-311h-187v57q-64 -69 -160 -69q-80 0 -129 43zM343 131q26 26 26 65v25q-36 14 -75 14q-87 0 -87 -67v-2
q0 -59 67 -59q42 0 69 24zM184 703v81q25 4 59 4q70 0 112 -24q40 -24 40 -63q0 -44 -50 -91h-121q32 32 32 57q0 39 -72 36z" />
    <glyph glyph-name="Acir.acute" unicode="&#x1ea4;" horiz-adv-x="795" 
d="M7 0l297 705h187l298 -705h-208l-50 126h-271l-50 -126h-203zM317 277h157l-78 198zM192 755l128 164h154l128 -164h-122l-84 61l-84 -61h-120zM537 897l104 184l176 -57l-148 -127h-132z" />
    <glyph glyph-name="Acir.acute122" unicode="&#x1ea5;" horiz-adv-x="599" 
d="M77 31q-52 46 -52 124v2q0 84 58 127q55 43 154 43q76 0 130 -21v9q0 89 -108 89q-67 0 -150 -30l-39 133q102 42 219 42q140 0 206 -66q58 -57 58 -172v-311h-187v57q-64 -69 -160 -69q-80 0 -129 43zM343 131q26 26 26 65v25q-36 14 -75 14q-87 0 -87 -67v-2
q0 -59 67 -59q42 0 69 24zM84 588l128 164h154l128 -164h-122l-84 61l-84 -61h-120zM424 728l104 184l176 -57l-148 -127h-132z" />
    <glyph glyph-name="Acir.grave" unicode="&#x1ea6;" horiz-adv-x="795" 
d="M7 0l297 705h187l298 -705h-208l-50 126h-271l-50 -126h-203zM317 277h157l-78 198zM193 755l128 164h154l128 -164h-122l-84 61l-84 -61h-120zM561 902l-147 127l176 57l103 -184h-132z" />
    <glyph glyph-name="Acir.grave123" unicode="&#x1ea7;" horiz-adv-x="599" 
d="M77 31q-52 46 -52 124v2q0 84 58 127q55 43 154 43q76 0 130 -21v9q0 89 -108 89q-67 0 -150 -30l-39 133q102 42 219 42q140 0 206 -66q58 -57 58 -172v-311h-187v57q-64 -69 -160 -69q-80 0 -129 43zM343 131q26 26 26 65v25q-36 14 -75 14q-87 0 -87 -67v-2
q0 -59 67 -59q42 0 69 24zM84 588l128 164h154l128 -164h-122l-84 61l-84 -61h-120zM452 729l-147 127l176 57l103 -184h-132z" />
    <glyph glyph-name="Acir.hook" unicode="&#x1ea8;" horiz-adv-x="795" 
d="M7 0l297 705h187l298 -705h-208l-50 126h-271l-50 -126h-203zM317 277h157l-78 198zM193 755l128 164h154l128 -164h-122l-84 61l-84 -61h-120zM488 991v81q25 4 59 4q70 0 112 -24q40 -24 40 -63q0 -44 -50 -91h-121q32 32 32 57q0 39 -72 36z" />
    <glyph glyph-name="Acir.hook124" unicode="&#x1ea9;" horiz-adv-x="599" 
d="M77 31q-52 46 -52 124v2q0 84 58 127q55 43 154 43q76 0 130 -21v9q0 89 -108 89q-67 0 -150 -30l-39 133q102 42 219 42q140 0 206 -66q58 -57 58 -172v-311h-187v57q-64 -69 -160 -69q-80 0 -129 43zM343 131q26 26 26 65v25q-36 14 -75 14q-87 0 -87 -67v-2
q0 -59 67 -59q42 0 69 24zM84 588l128 164h154l128 -164h-122l-84 61l-84 -61h-120zM373 822v81q25 4 59 4q70 0 112 -24q40 -24 40 -63q0 -44 -50 -91h-121q32 32 32 57q0 39 -72 36z" />
    <glyph glyph-name="Acir.tilde" unicode="&#x1eaa;" horiz-adv-x="795" 
d="M7 0l297 705h187l298 -705h-208l-50 126h-271l-50 -126h-203zM317 277h157l-78 198zM194 757l128 164h154l128 -164h-122l-84 61l-84 -61h-120zM410 972q-50 18 -63 18q-31 0 -51 -47l-91 25q33 149 124 149q37 0 94 -22q51 -17 62 -17q32 0 51 46l91 -25
q-31 -148 -124 -148q-36 0 -93 21z" />
    <glyph glyph-name="Acir.tilde125" unicode="&#x1eab;" horiz-adv-x="599" 
d="M77 31q-52 46 -52 124v2q0 84 58 127q55 43 154 43q76 0 130 -21v9q0 89 -108 89q-67 0 -150 -30l-39 133q102 42 219 42q140 0 206 -66q58 -57 58 -172v-311h-187v57q-64 -69 -160 -69q-80 0 -129 43zM343 131q26 26 26 65v25q-36 14 -75 14q-87 0 -87 -67v-2
q0 -59 67 -59q42 0 69 24zM84 588l128 164h154l128 -164h-122l-84 61l-84 -61h-120zM283 826q-49 18 -63 18q-31 0 -51 -47l-91 25q33 149 124 149q37 0 94 -22q51 -17 62 -17q32 0 51 46l91 -25q-31 -148 -124 -148q-36 0 -93 21z" />
    <glyph glyph-name="Acir.dotbl" unicode="&#x1eac;" horiz-adv-x="795" 
d="M7 0l297 705h187l298 -705h-208l-50 126h-271l-50 -126h-203zM317 277h157l-78 198zM193 747l128 164h154l128 -164h-122l-84 61l-84 -61h-120zM320 -231v156h157v-156h-157z" />
    <glyph glyph-name="Acir.dotbl126" unicode="&#x1ead;" horiz-adv-x="599" 
d="M77 31q-52 46 -52 124v2q0 84 58 127q55 43 154 43q76 0 130 -21v9q0 89 -108 89q-67 0 -150 -30l-39 133q102 42 219 42q140 0 206 -66q58 -57 58 -172v-311h-187v57q-64 -69 -160 -69q-80 0 -129 43zM343 131q26 26 26 65v25q-36 14 -75 14q-87 0 -87 -67v-2
q0 -59 67 -59q42 0 69 24zM84 588l128 164h154l128 -164h-122l-84 61l-84 -61h-120zM211 -231v156h157v-156h-157z" />
    <glyph glyph-name="Abrv.acute" unicode="&#x1eae;" horiz-adv-x="795" 
d="M7 0l297 705h187l298 -705h-208l-50 126h-271l-50 -126h-203zM317 277h157l-78 198zM262 799q-53 43 -61 123h111q19 -58 86 -58t86 58h111q-7 -80 -60 -123q-52 -43 -137 -43q-84 0 -136 43zM342 945l104 184l176 -57l-148 -127h-132z" />
    <glyph glyph-name="Abrv.acute127" unicode="&#x1eaf;" horiz-adv-x="599" 
d="M77 31q-52 46 -52 124v2q0 84 58 127q55 43 154 43q76 0 130 -21v9q0 89 -108 89q-67 0 -150 -30l-39 133q102 42 219 42q140 0 206 -66q58 -57 58 -172v-311h-187v57q-64 -69 -160 -69q-80 0 -129 43zM343 131q26 26 26 65v25q-36 14 -75 14q-87 0 -87 -67v-2
q0 -59 67 -59q42 0 69 24zM153 629q-53 43 -61 123h111q19 -58 86 -58t86 58h111q-8 -80 -60 -123t-137 -43q-84 0 -136 43zM197 798l104 184l176 -57l-148 -127h-132z" />
    <glyph glyph-name="Abrv.grave" unicode="&#x1eb0;" horiz-adv-x="795" 
d="M7 0l297 705h187l298 -705h-208l-50 126h-271l-50 -126h-203zM317 277h157l-78 198zM262 799q-53 43 -61 123h111q19 -58 86 -58t86 58h111q-7 -80 -60 -123q-52 -43 -137 -43q-84 0 -136 43zM335 947l-147 127l176 57l103 -184h-132z" />
    <glyph glyph-name="Abrv.grave128" unicode="&#x1eb1;" horiz-adv-x="599" 
d="M77 31q-52 46 -52 124v2q0 84 58 127q55 43 154 43q76 0 130 -21v9q0 89 -108 89q-67 0 -150 -30l-39 133q102 42 219 42q140 0 206 -66q58 -57 58 -172v-311h-187v57q-64 -69 -160 -69q-80 0 -129 43zM343 131q26 26 26 65v25q-36 14 -75 14q-87 0 -87 -67v-2
q0 -59 67 -59q42 0 69 24zM153 629q-53 43 -61 123h111q19 -58 86 -58t86 58h111q-8 -80 -60 -123t-137 -43q-84 0 -136 43zM249 798l-147 127l176 57l103 -184h-132z" />
    <glyph glyph-name="Abrv.hook" unicode="&#x1eb2;" horiz-adv-x="795" 
d="M7 0l297 705h187l298 -705h-208l-50 126h-271l-50 -126h-203zM317 277h157l-78 198zM262 798q-53 43 -61 123h111q19 -58 86 -58t86 58h111q-7 -79 -60 -123q-52 -43 -137 -43q-84 0 -136 43zM295 1007v61q28 3 59 3q70 0 112 -18q40 -18 40 -47q0 -33 -50 -68h-121
q32 24 32 42q0 30 -72 27z" />
    <glyph glyph-name="Abrv.hook129" unicode="&#x1eb3;" horiz-adv-x="599" 
d="M77 31q-52 46 -52 124v2q0 84 58 127q55 43 154 43q76 0 130 -21v9q0 89 -108 89q-67 0 -150 -30l-39 133q102 42 219 42q140 0 206 -66q58 -57 58 -172v-311h-187v57q-64 -69 -160 -69q-80 0 -129 43zM343 131q26 26 26 65v25q-36 14 -75 14q-87 0 -87 -67v-2
q0 -59 67 -59q42 0 69 24zM153 629q-53 43 -61 123h111q19 -58 86 -58t86 58h111q-8 -80 -60 -123t-137 -43q-84 0 -136 43zM184 890v81q25 4 59 4q70 0 112 -24q40 -24 40 -63q0 -44 -50 -91h-121q32 32 32 57q0 39 -72 36z" />
    <glyph glyph-name="Abrv.tilde" unicode="&#x1eb4;" horiz-adv-x="795" 
d="M7 0l297 705h187l298 -705h-208l-50 126h-271l-50 -126h-203zM317 277h157l-78 198zM262 797q-53 43 -61 123h111q19 -58 86 -58t86 58h111q-7 -80 -60 -123q-52 -43 -137 -43q-84 0 -136 43zM406 972q-50 18 -63 18q-31 0 -51 -47l-91 25q33 149 124 149q37 0 94 -22
q51 -17 62 -17q32 0 51 46l91 -25q-31 -148 -124 -148q-36 0 -93 21z" />
    <glyph glyph-name="Abrv.tilde130" unicode="&#x1eb5;" horiz-adv-x="599" 
d="M77 31q-52 46 -52 124v2q0 84 58 127q55 43 154 43q76 0 130 -21v9q0 89 -108 89q-67 0 -150 -30l-39 133q102 42 219 42q140 0 206 -66q58 -57 58 -172v-311h-187v57q-64 -69 -160 -69q-80 0 -129 43zM343 131q26 26 26 65v25q-36 14 -75 14q-87 0 -87 -67v-2
q0 -59 67 -59q42 0 69 24zM153 629q-53 43 -61 123h111q19 -58 86 -58t86 58h111q-8 -80 -60 -123t-137 -43q-84 0 -136 43zM283 826q-49 18 -63 18q-31 0 -51 -47l-91 25q33 149 124 149q37 0 94 -22q51 -17 62 -17q32 0 51 46l91 -25q-31 -148 -124 -148q-36 0 -93 21z
" />
    <glyph glyph-name="Abrv.dotbl" unicode="&#x1eb6;" horiz-adv-x="795" 
d="M7 0l297 705h187l298 -705h-208l-50 126h-271l-50 -126h-203zM317 277h157l-78 198zM262 788q-53 43 -61 123h111q19 -58 86 -58t86 58h111q-7 -79 -60 -123q-52 -43 -137 -43q-84 0 -136 43zM320 -231v156h157v-156h-157z" />
    <glyph glyph-name="Abrv.dotbl131" unicode="&#x1eb7;" horiz-adv-x="599" 
d="M77 31q-52 46 -52 124v2q0 84 58 127q55 43 154 43q76 0 130 -21v9q0 89 -108 89q-67 0 -150 -30l-39 133q102 42 219 42q140 0 206 -66q58 -57 58 -172v-311h-187v57q-64 -69 -160 -69q-80 0 -129 43zM343 131q26 26 26 65v25q-36 14 -75 14q-87 0 -87 -67v-2
q0 -59 67 -59q42 0 69 24zM153 629q-53 43 -61 123h111q19 -58 86 -58t86 58h111q-8 -80 -60 -123t-137 -43q-84 0 -136 43zM211 -231v156h157v-156h-157z" />
    <glyph glyph-name="E.dotbl" unicode="&#x1eb8;" horiz-adv-x="668" 
d="M62 0v700h563v-164h-371v-107h336v-153h-336v-111h376v-165h-568zM268 -231v156h157v-156h-157z" />
    <glyph glyph-name="E.dotbl132" unicode="&#x1eb9;" horiz-adv-x="606" 
d="M111 65q-81 78 -81 203v2q0 119 77 201q76 82 196 82q133 0 206 -88q66 -81 66 -208q0 -30 -1 -39h-362q23 -89 117 -89q65 0 120 55l105 -87q-87 -110 -234 -110q-128 0 -209 78zM209 315h189q-11 98 -95 98q-77 0 -94 -98zM224 -231v156h157v-156h-157z" />
    <glyph glyph-name="E.hook" unicode="&#x1eba;" horiz-adv-x="668" 
d="M62 0v700h563v-164h-371v-107h336v-153h-336v-111h376v-165h-568zM241 862v81q25 4 59 4q70 0 112 -24q40 -24 40 -63q0 -44 -50 -91h-121q32 32 32 57q0 39 -72 36z" />
    <glyph glyph-name="E.hook133" unicode="&#x1ebb;" horiz-adv-x="606" 
d="M111 65q-81 78 -81 203v2q0 119 77 201q76 82 196 82q133 0 206 -88q66 -81 66 -208q0 -30 -1 -39h-362q23 -89 117 -89q65 0 120 55l105 -87q-87 -110 -234 -110q-128 0 -209 78zM209 315h189q-11 98 -95 98q-77 0 -94 -98zM197 703v81q25 4 59 4q70 0 112 -24
q40 -24 40 -63q0 -44 -50 -91h-121q32 32 32 57q0 39 -72 36z" />
    <glyph glyph-name="E.tilde" unicode="&#x1ebc;" horiz-adv-x="668" 
d="M62 0v700h563v-164h-371v-107h336v-153h-336v-111h376v-165h-568zM340 768q-50 18 -63 18q-31 0 -51 -47l-91 25q33 149 124 149q37 0 94 -22q51 -17 62 -17q32 0 51 46l91 -25q-31 -148 -124 -148q-36 0 -93 21z" />
    <glyph glyph-name="E.tilde134" unicode="&#x1ebd;" horiz-adv-x="606" 
d="M111 65q-81 78 -81 203v2q0 119 77 201q76 82 196 82q133 0 206 -88q66 -81 66 -208q0 -30 -1 -39h-362q23 -89 117 -89q65 0 120 55l105 -87q-87 -110 -234 -110q-128 0 -209 78zM209 315h189q-11 98 -95 98q-77 0 -94 -98zM297 609q-49 18 -63 18q-31 0 -51 -47l-91 25
q33 149 124 149q37 0 94 -22q51 -17 62 -17q32 0 51 46l91 -25q-31 -148 -124 -148q-36 0 -93 21z" />
    <glyph glyph-name="Ecir.acute" unicode="&#x1ebe;" horiz-adv-x="668" 
d="M62 0v700h563v-164h-371v-107h336v-153h-336v-111h376v-165h-568zM140 755l128 164h154l128 -164h-122l-84 61l-84 -61h-120zM485 897l104 184l176 -57l-148 -127h-132z" />
    <glyph glyph-name="Ecir.acute135" unicode="&#x1ebf;" horiz-adv-x="606" 
d="M111 65q-81 78 -81 203v2q0 119 77 201q76 82 196 82q133 0 206 -88q66 -81 66 -208q0 -30 -1 -39h-362q23 -89 117 -89q65 0 120 55l105 -87q-87 -110 -234 -110q-128 0 -209 78zM209 315h189q-11 98 -95 98q-77 0 -94 -98zM98 588l128 164h154l128 -164h-122l-84 61
l-84 -61h-120zM431 729l104 184l176 -57l-148 -127h-132z" />
    <glyph glyph-name="Ecir.grave" unicode="&#x1ec0;" horiz-adv-x="668" 
d="M62 0v700h563v-164h-371v-107h336v-153h-336v-111h376v-165h-568zM141 755l128 164h154l128 -164h-122l-84 61l-84 -61h-120zM509 902l-147 127l176 57l103 -184h-132z" />
    <glyph glyph-name="Ecir.grave136" unicode="&#x1ec1;" horiz-adv-x="606" 
d="M111 65q-81 78 -81 203v2q0 119 77 201q76 82 196 82q133 0 206 -88q66 -81 66 -208q0 -30 -1 -39h-362q23 -89 117 -89q65 0 120 55l105 -87q-87 -110 -234 -110q-128 0 -209 78zM209 315h189q-11 98 -95 98q-77 0 -94 -98zM98 588l128 164h154l128 -164h-122l-84 61
l-84 -61h-120zM474 729l-147 127l176 57l103 -184h-132z" />
    <glyph glyph-name="Ecir.hook" unicode="&#x1ec2;" horiz-adv-x="668" 
d="M62 0v700h563v-164h-371v-107h336v-153h-336v-111h376v-165h-568zM141 755l128 164h154l128 -164h-122l-84 61l-84 -61h-120zM436 991v81q25 4 59 4q70 0 112 -24q40 -24 40 -63q0 -44 -50 -91h-121q32 32 32 57q0 39 -72 36z" />
    <glyph glyph-name="Ecir.hook137" unicode="&#x1ec3;" horiz-adv-x="606" 
d="M111 65q-81 78 -81 203v2q0 119 77 201q76 82 196 82q133 0 206 -88q66 -81 66 -208q0 -30 -1 -39h-362q23 -89 117 -89q65 0 120 55l105 -87q-87 -110 -234 -110q-128 0 -209 78zM209 315h189q-11 98 -95 98q-77 0 -94 -98zM98 588l128 164h154l128 -164h-122l-84 61
l-84 -61h-120zM396 822v81q25 4 59 4q70 0 112 -24q40 -24 40 -63q0 -44 -50 -91h-121q32 32 32 57q0 39 -72 36z" />
    <glyph glyph-name="Ecir.tilde" unicode="&#x1ec4;" horiz-adv-x="668" 
d="M62 0v700h563v-164h-371v-107h336v-153h-336v-111h376v-165h-568zM142 757l128 164h154l128 -164h-122l-84 61l-84 -61h-120zM358 972q-50 18 -63 18q-31 0 -51 -47l-91 25q33 149 124 149q37 0 94 -22q51 -17 62 -17q32 0 51 46l91 -25q-31 -148 -124 -148q-36 0 -93 21
z" />
    <glyph glyph-name="Ecir.tilde138" unicode="&#x1ec5;" horiz-adv-x="606" 
d="M111 65q-81 78 -81 203v2q0 119 77 201q76 82 196 82q133 0 206 -88q66 -81 66 -208q0 -30 -1 -39h-362q23 -89 117 -89q65 0 120 55l105 -87q-87 -110 -234 -110q-128 0 -209 78zM209 315h189q-11 98 -95 98q-77 0 -94 -98zM98 588l128 164h154l128 -164h-122l-84 61
l-84 -61h-120zM297 826q-49 18 -63 18q-31 0 -51 -47l-91 25q33 149 124 149q37 0 94 -22q51 -17 62 -17q32 0 51 46l91 -25q-31 -148 -124 -148q-36 0 -93 21z" />
    <glyph glyph-name="Ecir.dotbl" unicode="&#x1ec6;" horiz-adv-x="668" 
d="M62 0v700h563v-164h-371v-107h336v-153h-336v-111h376v-165h-568zM141 747l128 164h154l128 -164h-122l-84 61l-84 -61h-120zM268 -231v156h157v-156h-157z" />
    <glyph glyph-name="Ecir.dotbl139" unicode="&#x1ec7;" horiz-adv-x="606" 
d="M111 65q-81 78 -81 203v2q0 119 77 201q76 82 196 82q133 0 206 -88q66 -81 66 -208q0 -30 -1 -39h-362q23 -89 117 -89q65 0 120 55l105 -87q-87 -110 -234 -110q-128 0 -209 78zM209 315h189q-11 98 -95 98q-77 0 -94 -98zM98 588l128 164h154l128 -164h-122l-84 61
l-84 -61h-120zM224 -231v156h157v-156h-157z" />
    <glyph glyph-name="I.hook" unicode="&#x1ec8;" horiz-adv-x="327" 
d="M67 0v700h194v-700h-194zM59 862v81q25 4 59 4q70 0 112 -24q40 -24 40 -63q0 -44 -50 -91h-121q32 32 32 57q0 39 -72 36z" />
    <glyph glyph-name="I.hook140" unicode="&#x1ec9;" horiz-adv-x="301" 
d="M56 0v541h189v-541h-189zM45 703v81q25 4 59 4q70 0 112 -24q40 -24 40 -63q0 -44 -50 -91h-121q32 32 32 57q0 39 -72 36z" />
    <glyph glyph-name="I.dotbl" unicode="&#x1eca;" horiz-adv-x="327" 
d="M67 0v700h194v-700h-194zM86 -231v156h157v-156h-157z" />
    <glyph glyph-name="I.dotbl141" unicode="&#x1ecb;" horiz-adv-x="301" 
d="M52 590v140h197v-140h-197zM56 0v541h189v-541h-189zM72 -231v156h157v-156h-157z" />
    <glyph glyph-name="O.dotbl" unicode="&#x1ecc;" horiz-adv-x="831" 
d="M146 92q-107 104 -107 256v2q0 152 108 257q110 107 270 107q162 0 269 -106q107 -104 107 -256v-2q0 -152 -108 -257q-110 -107 -270 -107q-162 0 -269 106zM545 217q49 52 49 131v2q0 78 -49 133q-53 56 -130 56q-78 0 -129 -56q-49 -52 -49 -131v-2q0 -77 50 -132
q52 -57 130 -57t128 56zM338 -231v156h157v-156h-157z" />
    <glyph glyph-name="O.dotbl142" unicode="&#x1ecd;" horiz-adv-x="656" 
d="M114 70q-84 81 -84 198v2q0 117 85 199q85 84 214 84q128 0 214 -83q84 -81 84 -198v-2q0 -117 -85 -199q-86 -84 -215 -84q-127 0 -213 83zM412 184q31 34 31 84v2q0 51 -33 87t-83 36q-51 0 -82 -36q-31 -34 -31 -85v-2q0 -49 32 -86q34 -36 83 -36q51 0 83 36z
M250 -231v156h157v-156h-157z" />
    <glyph glyph-name="O.hook" unicode="&#x1ece;" horiz-adv-x="831" 
d="M146 92q-107 104 -107 256v2q0 152 108 257q110 107 270 107q162 0 269 -106q107 -104 107 -256v-2q0 -152 -108 -257q-110 -107 -270 -107q-162 0 -269 106zM545 217q49 52 49 131v2q0 78 -49 133q-53 56 -130 56q-78 0 -129 -56q-49 -52 -49 -131v-2q0 -77 50 -132
q52 -57 130 -57t128 56zM311 862v81q25 4 59 4q70 0 112 -24q40 -24 40 -63q0 -44 -50 -91h-121q32 32 32 57q0 39 -72 36z" />
    <glyph glyph-name="O.hook143" unicode="&#x1ecf;" horiz-adv-x="656" 
d="M114 70q-84 81 -84 198v2q0 117 85 199q85 84 214 84q128 0 214 -83q84 -81 84 -198v-2q0 -117 -85 -199q-86 -84 -215 -84q-127 0 -213 83zM412 184q31 34 31 84v2q0 51 -33 87t-83 36q-51 0 -82 -36q-31 -34 -31 -85v-2q0 -49 32 -86q34 -36 83 -36q51 0 83 36z
M223 703v81q25 4 59 4q70 0 112 -24q40 -24 40 -63q0 -44 -50 -91h-121q32 32 32 57q0 39 -72 36z" />
    <glyph glyph-name="Ocir.acute" unicode="&#x1ed0;" horiz-adv-x="831" 
d="M146 92q-107 104 -107 256v2q0 152 108 257q110 107 270 107q162 0 269 -106q107 -104 107 -256v-2q0 -152 -108 -257q-110 -107 -270 -107q-162 0 -269 106zM545 217q49 52 49 131v2q0 78 -49 133q-53 56 -130 56q-78 0 -129 -56q-49 -52 -49 -131v-2q0 -77 50 -132
q52 -57 130 -57t128 56zM210 755l128 164h154l128 -164h-122l-84 61l-84 -61h-120zM555 897l104 184l176 -57l-148 -127h-132z" />
    <glyph glyph-name="Ocir.acute144" unicode="&#x1ed1;" horiz-adv-x="656" 
d="M114 70q-84 81 -84 198v2q0 117 85 199q85 84 214 84q128 0 214 -83q84 -81 84 -198v-2q0 -117 -85 -199q-86 -84 -215 -84q-127 0 -213 83zM412 184q31 34 31 84v2q0 51 -33 87t-83 36q-51 0 -82 -36q-31 -34 -31 -85v-2q0 -49 32 -86q34 -36 83 -36q51 0 83 36z
M124 588l128 164h154l128 -164h-122l-84 61l-84 -61h-120zM458 729l104 184l176 -57l-148 -127h-132z" />
    <glyph glyph-name="Ocir.grave" unicode="&#x1ed2;" horiz-adv-x="831" 
d="M146 92q-107 104 -107 256v2q0 152 108 257q110 107 270 107q162 0 269 -106q107 -104 107 -256v-2q0 -152 -108 -257q-110 -107 -270 -107q-162 0 -269 106zM545 217q49 52 49 131v2q0 78 -49 133q-53 56 -130 56q-78 0 -129 -56q-49 -52 -49 -131v-2q0 -77 50 -132
q52 -57 130 -57t128 56zM211 755l128 164h154l128 -164h-122l-84 61l-84 -61h-120zM579 902l-147 127l176 57l103 -184h-132z" />
    <glyph glyph-name="Ocir.grave145" unicode="&#x1ed3;" horiz-adv-x="656" 
d="M114 70q-84 81 -84 198v2q0 117 85 199q85 84 214 84q128 0 214 -83q84 -81 84 -198v-2q0 -117 -85 -199q-86 -84 -215 -84q-127 0 -213 83zM412 184q31 34 31 84v2q0 51 -33 87t-83 36q-51 0 -82 -36q-31 -34 -31 -85v-2q0 -49 32 -86q34 -36 83 -36q51 0 83 36z
M124 588l128 164h154l128 -164h-122l-84 61l-84 -61h-120zM481 729l-147 127l176 57l103 -184h-132z" />
    <glyph glyph-name="Ocir.hook" unicode="&#x1ed4;" horiz-adv-x="831" 
d="M146 92q-107 104 -107 256v2q0 152 108 257q110 107 270 107q162 0 269 -106q107 -104 107 -256v-2q0 -152 -108 -257q-110 -107 -270 -107q-162 0 -269 106zM545 217q49 52 49 131v2q0 78 -49 133q-53 56 -130 56q-78 0 -129 -56q-49 -52 -49 -131v-2q0 -77 50 -132
q52 -57 130 -57t128 56zM211 755l128 164h154l128 -164h-122l-84 61l-84 -61h-120zM506 991v81q25 4 59 4q70 0 112 -24q40 -24 40 -63q0 -44 -50 -91h-121q32 32 32 57q0 39 -72 36z" />
    <glyph glyph-name="Ocir.hook146" unicode="&#x1ed5;" horiz-adv-x="656" 
d="M114 70q-84 81 -84 198v2q0 117 85 199q85 84 214 84q128 0 214 -83q84 -81 84 -198v-2q0 -117 -85 -199q-86 -84 -215 -84q-127 0 -213 83zM412 184q31 34 31 84v2q0 51 -33 87t-83 36q-51 0 -82 -36q-31 -34 -31 -85v-2q0 -49 32 -86q34 -36 83 -36q51 0 83 36z
M124 588l128 164h154l128 -164h-122l-84 61l-84 -61h-120zM413 822v81q25 4 59 4q70 0 112 -24q40 -24 40 -63q0 -44 -50 -91h-121q32 32 32 57q0 39 -72 36z" />
    <glyph glyph-name="Ocir.tilde" unicode="&#x1ed6;" horiz-adv-x="831" 
d="M146 92q-107 104 -107 256v2q0 152 108 257q110 107 270 107q162 0 269 -106q107 -104 107 -256v-2q0 -152 -108 -257q-110 -107 -270 -107q-162 0 -269 106zM545 217q49 52 49 131v2q0 78 -49 133q-53 56 -130 56q-78 0 -129 -56q-49 -52 -49 -131v-2q0 -77 50 -132
q52 -57 130 -57t128 56zM212 757l128 164h154l128 -164h-122l-84 61l-84 -61h-120zM428 972q-50 18 -63 18q-31 0 -51 -47l-91 25q33 149 124 149q37 0 94 -22q51 -17 62 -17q32 0 51 46l91 -25q-31 -148 -124 -148q-36 0 -93 21z" />
    <glyph glyph-name="Ocir.tilde147" unicode="&#x1ed7;" horiz-adv-x="656" 
d="M114 70q-84 81 -84 198v2q0 117 85 199q85 84 214 84q128 0 214 -83q84 -81 84 -198v-2q0 -117 -85 -199q-86 -84 -215 -84q-127 0 -213 83zM412 184q31 34 31 84v2q0 51 -33 87t-83 36q-51 0 -82 -36q-31 -34 -31 -85v-2q0 -49 32 -86q34 -36 83 -36q51 0 83 36z
M124 588l128 164h154l128 -164h-122l-84 61l-84 -61h-120zM323 826q-49 18 -63 18q-31 0 -51 -47l-91 25q33 149 124 149q37 0 94 -22q51 -17 62 -17q32 0 51 46l91 -25q-31 -148 -124 -148q-36 0 -93 21z" />
    <glyph glyph-name="Ocir.dotbl" unicode="&#x1ed8;" horiz-adv-x="831" 
d="M146 92q-107 104 -107 256v2q0 152 108 257q110 107 270 107q162 0 269 -106q107 -104 107 -256v-2q0 -152 -108 -257q-110 -107 -270 -107q-162 0 -269 106zM545 217q49 52 49 131v2q0 78 -49 133q-53 56 -130 56q-78 0 -129 -56q-49 -52 -49 -131v-2q0 -77 50 -132
q52 -57 130 -57t128 56zM211 747l128 164h154l128 -164h-122l-84 61l-84 -61h-120zM338 -231v156h157v-156h-157z" />
    <glyph glyph-name="Ocir.dotbl148" unicode="&#x1ed9;" horiz-adv-x="656" 
d="M114 70q-84 81 -84 198v2q0 117 85 199q85 84 214 84q128 0 214 -83q84 -81 84 -198v-2q0 -117 -85 -199q-86 -84 -215 -84q-127 0 -213 83zM412 184q31 34 31 84v2q0 51 -33 87t-83 36q-51 0 -82 -36q-31 -34 -31 -85v-2q0 -49 32 -86q34 -36 83 -36q51 0 83 36z
M124 588l128 164h154l128 -164h-122l-84 61l-84 -61h-120zM250 -231v156h157v-156h-157z" />
    <glyph glyph-name="ohorn.acute149" unicode="&#x1eda;" horiz-adv-x="831" 
d="M545 217q49 52 49 131v2q0 78 -49 133q-53 56 -130 56q-78 0 -129 -56q-49 -52 -49 -131v-2q0 -77 50 -132q52 -57 130 -57t128 56zM741 540q52 -82 52 -188v-2q0 -152 -108 -257q-110 -107 -270 -107q-162 0 -269 106q-107 104 -107 256v2q0 152 108 257
q110 107 270 107q162 0 269 -106l3 -3q33 25 28 94h108q0 -119 -84 -159zM339 747l104 184l176 -57l-148 -127h-132z" />
    <glyph glyph-name="ohorn.acute" unicode="&#x1edb;" horiz-adv-x="699" 
d="M412 184q31 34 31 84v2q0 51 -33 87t-83 36q-51 0 -82 -36q-31 -34 -31 -85v-2q0 -49 32 -86q34 -36 83 -36q51 0 83 36zM604 384q23 -52 23 -112v-2q0 -117 -85 -199q-86 -84 -215 -84q-127 0 -213 83q-84 81 -84 198v2q0 117 85 199q85 84 214 84q128 0 214 -83l15 -15
q23 30 19 86h108q0 -117 -81 -157zM285 588l104 184l176 -57l-148 -127h-132z" />
    <glyph glyph-name="Ohorn.grave" unicode="&#x1edc;" horiz-adv-x="831" 
d="M545 217q49 52 49 131v2q0 78 -49 133q-53 56 -130 56q-78 0 -129 -56q-49 -52 -49 -131v-2q0 -77 50 -132q52 -57 130 -57t128 56zM741 540q52 -82 52 -188v-2q0 -152 -108 -257q-110 -107 -270 -107q-162 0 -269 106q-107 104 -107 256v2q0 152 108 257
q110 107 270 107q162 0 269 -106l3 -3q33 25 28 94h108q0 -119 -84 -159zM393 747l-147 127l176 57l103 -184h-132z" />
    <glyph glyph-name="Ohorn.grave164" unicode="&#x1edd;" horiz-adv-x="699" 
d="M412 184q31 34 31 84v2q0 51 -33 87t-83 36q-51 0 -82 -36q-31 -34 -31 -85v-2q0 -49 32 -86q34 -36 83 -36q51 0 83 36zM604 384q23 -52 23 -112v-2q0 -117 -85 -199q-86 -84 -215 -84q-127 0 -213 83q-84 81 -84 198v2q0 117 85 199q85 84 214 84q128 0 214 -83l15 -15
q23 30 19 86h108q0 -117 -81 -157zM292 588l-147 127l176 57l103 -184h-132z" />
    <glyph glyph-name="Ohorn.hook" unicode="&#x1ede;" horiz-adv-x="831" 
d="M545 217q49 52 49 131v2q0 78 -49 133q-53 56 -130 56q-78 0 -129 -56q-49 -52 -49 -131v-2q0 -77 50 -132q52 -57 130 -57t128 56zM741 540q52 -82 52 -188v-2q0 -152 -108 -257q-110 -107 -270 -107q-162 0 -269 106q-107 104 -107 256v2q0 152 108 257
q110 107 270 107q162 0 269 -106l3 -3q33 25 28 94h108q0 -119 -84 -159zM327 862v81q25 4 59 4q70 0 112 -24q40 -24 40 -63q0 -44 -50 -91h-121q32 32 32 57q0 39 -72 36z" />
    <glyph glyph-name="Ohorn.hook150" unicode="&#x1edf;" horiz-adv-x="699" 
d="M412 184q31 34 31 84v2q0 51 -33 87t-83 36q-51 0 -82 -36q-31 -34 -31 -85v-2q0 -49 32 -86q34 -36 83 -36q51 0 83 36zM604 384q23 -52 23 -112v-2q0 -117 -85 -199q-86 -84 -215 -84q-127 0 -213 83q-84 81 -84 198v2q0 117 85 199q85 84 214 84q128 0 214 -83l15 -15
q23 30 19 86h108q0 -117 -81 -157zM235 703v81q25 4 59 4q70 0 112 -24q40 -24 40 -63q0 -44 -50 -91h-121q32 32 32 57q0 39 -72 36z" />
    <glyph glyph-name="Ohorn.tilde" unicode="&#x1ee0;" horiz-adv-x="831" 
d="M545 217q49 52 49 131v2q0 78 -49 133q-53 56 -130 56q-78 0 -129 -56q-49 -52 -49 -131v-2q0 -77 50 -132q52 -57 130 -57t128 56zM741 540q52 -82 52 -188v-2q0 -152 -108 -257q-110 -107 -270 -107q-162 0 -269 106q-107 104 -107 256v2q0 152 108 257
q110 107 270 107q162 0 269 -106l3 -3q33 25 28 94h108q0 -119 -84 -159zM426 768q-50 18 -63 18q-31 0 -51 -47l-91 25q33 149 124 149q37 0 94 -22q51 -17 62 -17q32 0 51 46l91 -25q-31 -148 -124 -148q-36 0 -93 21z" />
    <glyph glyph-name="Ohorn.tilde151" unicode="&#x1ee1;" horiz-adv-x="699" 
d="M412 184q31 34 31 84v2q0 51 -33 87t-83 36q-51 0 -82 -36q-31 -34 -31 -85v-2q0 -49 32 -86q34 -36 83 -36q51 0 83 36zM604 384q23 -52 23 -112v-2q0 -117 -85 -199q-86 -84 -215 -84q-127 0 -213 83q-84 81 -84 198v2q0 117 85 199q85 84 214 84q128 0 214 -83l15 -15
q23 30 19 86h108q0 -117 -81 -157zM315 609q-49 18 -63 18q-31 0 -51 -47l-91 25q33 149 124 149q37 0 94 -22q51 -17 62 -17q32 0 51 46l91 -25q-31 -148 -124 -148q-36 0 -93 21z" />
    <glyph glyph-name="Ohorn.dotbl" unicode="&#x1ee2;" horiz-adv-x="831" 
d="M545 217q49 52 49 131v2q0 78 -49 133q-53 56 -130 56q-78 0 -129 -56q-49 -52 -49 -131v-2q0 -77 50 -132q52 -57 130 -57t128 56zM741 540q52 -82 52 -188v-2q0 -152 -108 -257q-110 -107 -270 -107q-162 0 -269 106q-107 104 -107 256v2q0 152 108 257
q110 107 270 107q162 0 269 -106l3 -3q33 25 28 94h108q0 -119 -84 -159zM354 -231v156h157v-156h-157z" />
    <glyph glyph-name="Ohorn.dotbl152" unicode="&#x1ee3;" horiz-adv-x="699" 
d="M412 184q31 34 31 84v2q0 51 -33 87t-83 36q-51 0 -82 -36q-31 -34 -31 -85v-2q0 -49 32 -86q34 -36 83 -36q51 0 83 36zM604 384q23 -52 23 -112v-2q0 -117 -85 -199q-86 -84 -215 -84q-127 0 -213 83q-84 81 -84 198v2q0 117 85 199q85 84 214 84q128 0 214 -83l15 -15
q23 30 19 86h108q0 -117 -81 -157zM242 -231v156h157v-156h-157z" />
    <glyph glyph-name="U.dotbl" unicode="&#x1ee4;" horiz-adv-x="758" 
d="M141 65q-87 83 -87 242v393h196v-389q0 -149 129 -149q130 0 130 144v394h196v-388q0 -164 -89 -247q-84 -78 -239 -78q-153 0 -236 78zM301 -231v156h157v-156h-157z" />
    <glyph glyph-name="U.dotbl153" unicode="&#x1ee5;" horiz-adv-x="634" 
d="M96 42q-49 53 -49 146v353h190v-293q0 -91 77 -91q36 0 57 23q23 26 23 68v293h189v-541h-189v75q-68 -87 -162 -87q-86 0 -136 54zM237 -231v156h157v-156h-157z" />
    <glyph glyph-name="U.hook" unicode="&#x1ee6;" horiz-adv-x="758" 
d="M141 65q-87 83 -87 242v393h196v-389q0 -149 129 -149q130 0 130 144v394h196v-388q0 -164 -89 -247q-84 -78 -239 -78q-153 0 -236 78zM274 862v81q25 4 59 4q70 0 112 -24q40 -24 40 -63q0 -44 -50 -91h-121q32 32 32 57q0 39 -72 36z" />
    <glyph glyph-name="U.hook154" unicode="&#x1ee7;" horiz-adv-x="634" 
d="M96 42q-49 53 -49 146v353h190v-293q0 -91 77 -91q36 0 57 23q23 26 23 68v293h189v-541h-189v75q-68 -87 -162 -87q-86 0 -136 54zM210 703v81q25 4 59 4q70 0 112 -24q40 -24 40 -63q0 -44 -50 -91h-121q32 32 32 57q0 39 -72 36z" />
    <glyph glyph-name="Uhorn.acute" unicode="&#x1ee8;" horiz-adv-x="871" 
d="M705 522v-210q0 -164 -89 -247q-84 -78 -239 -78q-153 0 -236 78q-87 83 -87 242v393h196v-389q0 -149 129 -149q130 0 130 144v394h196v-105q51 21 45 104h108q0 -161 -153 -177zM306 729l104 184l176 -57l-148 -127h-132z" />
    <glyph glyph-name="Uhorn.acute155" unicode="&#x1ee9;" horiz-adv-x="747" 
d="M583 365v-365h-189v75q-68 -87 -162 -87q-86 0 -136 54q-49 53 -49 146v353h190v-293q0 -91 77 -91q36 0 57 23q23 26 23 68v293h189v-104q49 22 43 104h108q0 -160 -151 -176zM238 585l104 184l176 -57l-148 -127h-132z" />
    <glyph glyph-name="Uhorn.grave" unicode="&#x1eea;" horiz-adv-x="871" 
d="M705 522v-210q0 -164 -89 -247q-84 -78 -239 -78q-153 0 -236 78q-87 83 -87 242v393h196v-389q0 -149 129 -149q130 0 130 144v394h196v-105q51 21 45 104h108q0 -161 -153 -177zM341 729l-147 127l176 57l103 -184h-132z" />
    <glyph glyph-name="Uhorn.grave156" unicode="&#x1eeb;" horiz-adv-x="747" 
d="M583 365v-365h-189v75q-68 -87 -162 -87q-86 0 -136 54q-49 53 -49 146v353h190v-293q0 -91 77 -91q36 0 57 23q23 26 23 68v293h189v-104q49 22 43 104h108q0 -160 -151 -176zM292 585l-147 127l176 57l103 -184h-132z" />
    <glyph glyph-name="Uhorn.hook" unicode="&#x1eec;" horiz-adv-x="871" 
d="M705 522v-210q0 -164 -89 -247q-84 -78 -239 -78q-153 0 -236 78q-87 83 -87 242v393h196v-389q0 -149 129 -149q130 0 130 144v394h196v-105q51 21 45 104h108q0 -161 -153 -177zM280 822v81q25 4 59 4q70 0 112 -24q40 -24 40 -63q0 -44 -50 -91h-121q32 32 32 57
q0 39 -72 36z" />
    <glyph glyph-name="Uhorn.hook157" unicode="&#x1eed;" horiz-adv-x="747" 
d="M583 365v-365h-189v75q-68 -87 -162 -87q-86 0 -136 54q-49 53 -49 146v353h190v-293q0 -91 77 -91q36 0 57 23q23 26 23 68v293h189v-104q49 22 43 104h108q0 -160 -151 -176zM213 683v81q25 4 59 4q70 0 112 -24q40 -24 40 -63q0 -44 -50 -91h-121q32 32 32 57
q0 39 -72 36z" />
    <glyph glyph-name="Uhorn.tilde" unicode="&#x1eee;" horiz-adv-x="871" 
d="M705 522v-210q0 -164 -89 -247q-84 -78 -239 -78q-153 0 -236 78q-87 83 -87 242v393h196v-389q0 -149 129 -149q130 0 130 144v394h196v-105q51 21 45 104h108q0 -161 -153 -177zM399 768q-49 18 -63 18q-31 0 -51 -47l-91 25q33 149 124 149q37 0 94 -22q51 -17 62 -17
q32 0 51 46l91 -25q-31 -148 -124 -148q-36 0 -93 21z" />
    <glyph glyph-name="Uhorn.tilde158" unicode="&#x1eef;" horiz-adv-x="747" 
d="M583 365v-365h-189v75q-68 -87 -162 -87q-86 0 -136 54q-49 53 -49 146v353h190v-293q0 -91 77 -91q36 0 57 23q23 26 23 68v293h189v-104q49 22 43 104h108q0 -160 -151 -176zM320 609q-50 18 -63 18q-31 0 -51 -47l-91 25q33 149 124 149q37 0 94 -22q51 -17 62 -17
q32 0 51 46l91 -25q-31 -148 -124 -148q-36 0 -93 21z" />
    <glyph glyph-name="Uhorn.dotbl" unicode="&#x1ef0;" horiz-adv-x="871" 
d="M705 522v-210q0 -164 -89 -247q-84 -78 -239 -78q-153 0 -236 78q-87 83 -87 242v393h196v-389q0 -149 129 -149q130 0 130 144v394h196v-105q51 21 45 104h108q0 -161 -153 -177zM292 -231v156h157v-156h-157z" />
    <glyph glyph-name="Uhorn.dotbl159" unicode="&#x1ef1;" horiz-adv-x="747" 
d="M583 365v-365h-189v75q-68 -87 -162 -87q-86 0 -136 54q-49 53 -49 146v353h190v-293q0 -91 77 -91q36 0 57 23q23 26 23 68v293h189v-104q49 22 43 104h108q0 -160 -151 -176zM239 -231v156h157v-156h-157z" />
    <glyph glyph-name="Ygrave" unicode="&#x1ef2;" horiz-adv-x="723" 
d="M265 0v262l-267 438h221l144 -255l145 255h217l-266 -435v-265h-194zM437 748h-142l-148 107l181 55z" />
    <glyph glyph-name="Ygrave113" unicode="&#x1ef3;" horiz-adv-x="626" 
d="M318 215l102 326h195l-198 -528q-35 -96 -80 -136q-46 -40 -126 -40q-91 0 -173 47l58 133q50 -29 83 -29q29 0 45 22l-212 531h198zM256 588l-147 127l176 57l103 -184h-132z" />
    <glyph glyph-name="Y.dotbl" unicode="&#x1ef4;" horiz-adv-x="723" 
d="M265 0v262l-267 438h221l144 -255l145 255h217l-266 -435v-265h-194zM283 -231v156h157v-156h-157z" />
    <glyph glyph-name="Y.dotbl160" unicode="&#x1ef5;" horiz-adv-x="626" 
d="M318 215l102 326h195l-198 -528q-35 -96 -80 -136q-46 -40 -126 -40q-91 0 -173 47l58 133q50 -29 83 -29q29 0 45 22l-212 531h198zM419 -231v156h157v-156h-157z" />
    <glyph glyph-name="Y.hook" unicode="&#x1ef6;" horiz-adv-x="723" 
d="M265 0v262l-267 438h221l144 -255l145 255h217l-266 -435v-265h-194zM256 862v81q25 4 59 4q70 0 112 -24q40 -24 40 -63q0 -44 -50 -91h-121q32 32 32 57q0 39 -72 36z" />
    <glyph glyph-name="Y.hook161" unicode="&#x1ef7;" horiz-adv-x="626" 
d="M318 215l102 326h195l-198 -528q-35 -96 -80 -136q-46 -40 -126 -40q-91 0 -173 47l58 133q50 -29 83 -29q29 0 45 22l-212 531h198zM208 703v81q25 4 59 4q70 0 112 -24q40 -24 40 -63q0 -44 -50 -91h-121q32 32 32 57q0 39 -72 36z" />
    <glyph glyph-name="Ytilde" unicode="&#x1ef8;" horiz-adv-x="723" 
d="M265 0v262l-267 438h221l144 -255l145 255h217l-266 -435v-265h-194zM356 768q-50 18 -63 18q-31 0 -51 -47l-91 25q33 149 124 149q37 0 94 -22q51 -17 62 -17q32 0 51 46l91 -25q-31 -148 -124 -148q-36 0 -93 21z" />
    <glyph glyph-name="Ytilde162" unicode="&#x1ef9;" horiz-adv-x="626" 
d="M318 215l102 326h195l-198 -528q-35 -96 -80 -136q-46 -40 -126 -40q-91 0 -173 47l58 133q50 -29 83 -29q29 0 45 22l-212 531h198zM308 609q-50 18 -63 18q-31 0 -51 -47l-91 25q33 149 124 149q37 0 94 -22q51 -17 62 -17q32 0 51 46l91 -25q-31 -148 -124 -148
q-36 0 -93 21z" />
    <glyph glyph-name="uni2002" unicode="&#x2002;" 
 />
    <glyph glyph-name="uni2003" unicode="&#x2003;" horiz-adv-x="1000" 
 />
    <glyph glyph-name="uni2004" unicode="&#x2004;" horiz-adv-x="333" 
 />
    <glyph glyph-name="uni2005" unicode="&#x2005;" horiz-adv-x="250" 
 />
    <glyph glyph-name="uni2007" unicode="&#x2007;" horiz-adv-x="600" 
 />
    <glyph glyph-name="uni2009" unicode="&#x2009;" horiz-adv-x="133" 
 />
    <glyph glyph-name="uni200A" unicode="&#x200a;" horiz-adv-x="75" 
 />
    <glyph glyph-name="endash" unicode="&#x2013;" horiz-adv-x="528" 
d="M40 232v162h448v-162h-448z" />
    <glyph glyph-name="emdash" unicode="&#x2014;" horiz-adv-x="898" 
d="M40 232v162h818v-162h-818z" />
    <glyph glyph-name="quoteleft" unicode="&#x2018;" horiz-adv-x="284" 
d="M40 343v159q0 196 205 203l16 -73q-52 -5 -77 -29t-23 -65h76v-195h-197z" />
    <glyph glyph-name="quoteright" unicode="&#x2019;" horiz-adv-x="284" 
d="M39 338l-15 73q52 6 76.5 29.5t23.5 64.5h-77v195h197v-159q0 -196 -205 -203z" />
    <glyph glyph-name="quotesinglbase" unicode="&#x201a;" horiz-adv-x="284" 
d="M36 -167l-16 73q52 5 77 29t23 65h-76v195h197v-159q0 -196 -205 -203z" />
    <glyph glyph-name="quotedblleft" unicode="&#x201c;" horiz-adv-x="547" 
d="M306 343v159q0 196 202 203l16 -73q-101 -11 -98 -94h74v-195h-194zM40 343v159q0 197 203 203l15 -73q-51 -5 -75 -29t-22 -65h74v-195h-195z" />
    <glyph glyph-name="quotedblright" unicode="&#x201d;" horiz-adv-x="547" 
d="M305 338l-16 73q101 12 98 94h-74v195h194v-159q0 -196 -202 -203zM39 338l-15 73q51 6 75 29.5t22 64.5h-74v195h195v-159q0 -197 -203 -203z" />
    <glyph glyph-name="quotedblbase" unicode="&#x201e;" horiz-adv-x="546" 
d="M301 -167l-15 73q51 5 75 29t22 65h-74v195h195v-159q0 -197 -203 -203zM36 -167l-16 73q101 11 98 94h-74v195h194v-159q0 -196 -202 -203z" />
    <glyph glyph-name="dagger" unicode="&#x2020;" horiz-adv-x="410" 
d="M156 223l10 270l-125 -12v103l124 -13l-16 129h112l-15 -129l124 13v-103l-125 12l10 -270h-99z" />
    <glyph glyph-name="daggerdbl" unicode="&#x2021;" horiz-adv-x="430" 
d="M159 0l16 129l-124 -12v103l125 -13l-13 143l13 143l-125 -12v103l124 -13l-16 129h112l-15 -129l124 13v-103l-126 12l13 -143l-13 -143l126 13v-103l-124 12l15 -129h-112z" />
    <glyph glyph-name="bullet" unicode="&#x2022;" 
d="M131 233q-50 50 -50 118v2q0 69 50 119q49 49 119 49t119 -49q50 -50 50 -119v-2q0 -68 -50 -118t-119 -50t-119 50z" />
    <glyph glyph-name="ellipsis" unicode="&#x2026;" horiz-adv-x="840" 
d="M604 0v192h193v-192h-193zM324 0v192h193v-192h-193zM44 0v192h193v-192h-193z" />
    <glyph glyph-name="perthousand" unicode="&#x2030;" horiz-adv-x="1295" 
d="M258 465q16 22 16 55v2q0 33 -17 56t-42 23q-26 0 -42 -22t-16 -56v-2q0 -32 17 -55t42 -23q26 0 42 22zM85 389q-50 53 -50 131v2q0 78 50 133q51 55 131 55t131 -55q49 -52 49 -132v-2q0 -77 -50 -132q-52 -55 -131 -55t-130 55zM787 700l-298 -381l-242 -319h-135
l295 377l245 323h135zM726 122q16 22 16 55v2q0 33 -17 56t-42 23q-27 0 -42 -22q-16 -22 -16 -56v-2q0 -32 17 -55t42 -23q26 0 42 22zM553 45q-50 55 -50 132v2q0 80 49 133q51 55 132 55q80 0 131 -55q49 -52 49 -132v-2q0 -77 -50 -132q-53 -56 -131 -56q-79 0 -130 55z
M1122 122q16 22 16 55v2q0 33 -17 56t-42 23q-27 0 -42 -22q-16 -22 -16 -56v-2q0 -32 17 -55t42 -23q26 0 42 22zM949 45q-50 55 -50 132v2q0 80 49 133q51 55 132 55q80 0 131 -55q49 -52 49 -132v-2q0 -77 -50 -132q-53 -56 -131 -56q-79 0 -130 55z" />
    <glyph glyph-name="guilsinglleft" unicode="&#x2039;" horiz-adv-x="357" 
d="M204 33l-174 211v48l174 212l123 -61l-118 -174l118 -174z" />
    <glyph glyph-name="guilsinglright" unicode="&#x203a;" horiz-adv-x="357" 
d="M154 33l-123 61l117 174l-117 173l123 62l173 -211v-48z" />
    <glyph glyph-name="fraction" unicode="&#x2044;" horiz-adv-x="100" 
d="M-229 0l256 366l219 334h83l-255 -366l-220 -334h-83z" />
    <glyph glyph-name="uni2070" unicode="&#x2070;" horiz-adv-x="400" 
d="M79 461q-46 55 -46 148v8q0 93 47 149q46 55 121 55q74 0 120 -55q47 -56 47 -148v-8q0 -92 -47 -148t-122 -56t-120 55zM142 624v-21q0 -102 58 -102q59 0 59 102v21q0 103 -59 103q-58 0 -58 -103z" />
    <glyph glyph-name="uni2074" unicode="&#x2074;" horiz-adv-x="400" 
d="M325 489v-74h-105v74h-178l-12 90l173 235h122v-245h48v-80h-48zM223 567v140l-102 -140h102z" />
    <glyph glyph-name="uni2075" unicode="&#x2075;" horiz-adv-x="400" 
d="M31 466l57 76q57 -42 104 -42q56 0 56 46q0 45 -59 45q-35 0 -64 -17l-68 35l17 201h263v-92h-180l-6 -60q29 10 70 10q59 0 95 -30q40 -31 40 -90q0 -66 -45 -104q-43 -37 -116 -37q-90 0 -164 59z" />
    <glyph glyph-name="uni2076" unicode="&#x2076;" horiz-adv-x="400" 
d="M90 449q-52 52 -52 152v3q0 102 48 159q49 58 138 58q67 0 120 -35l-42 -84q-38 27 -77 27q-69 0 -75 -81q38 23 85 23q51 0 86 -29q38 -32 38 -92q0 -67 -44 -106q-44 -38 -110 -38q-72 0 -115 43zM254 544q0 53 -52 53q-53 0 -53 -53t53 -53q52 0 52 53z" />
    <glyph glyph-name="uni2077" unicode="&#x2077;" horiz-adv-x="400" 
d="M183 414h-121l167 299h-178v97h302v-86z" />
    <glyph glyph-name="uni2078" unicode="&#x2078;" horiz-adv-x="400" 
d="M85 439q-44 32 -44 86q0 67 65 96q-54 31 -54 88q0 49 40 80q41 32 108 32q66 0 107 -32t41 -80q0 -57 -54 -88q65 -32 65 -96q0 -54 -45 -87q-44 -32 -114 -32q-72 0 -115 33zM151 697q0 -46 49 -46t49 46q0 19 -14 31q-13 13 -35 13q-49 0 -49 -44zM144 534
q0 -48 56 -48q55 0 55 48t-55 48q-56 0 -56 -48z" />
    <glyph glyph-name="uni2079" unicode="&#x2079;" horiz-adv-x="400" 
d="M311 778q51 -51 51 -151v-4q0 -101 -47 -159q-48 -58 -137 -58q-71 0 -129 40l42 83q41 -30 84 -30q67 0 78 77q-43 -23 -86 -23q-52 0 -87 29q-39 33 -39 93q0 67 45 108q43 38 109 38q73 0 116 -43zM251 681q0 55 -52 55t-52 -55q0 -54 52 -54t52 54z" />
    <glyph glyph-name="zero.sinf" unicode="&#x2080;" horiz-adv-x="400" 
d="M79 -87q-46 55 -46 148v8q0 93 47 149q46 55 121 55q74 0 120 -55q47 -56 47 -148v-8q0 -92 -47 -148t-122 -56t-120 55zM142 76v-21q0 -102 58 -102q59 0 59 102v21q0 103 -59 103q-58 0 -58 -103z" />
    <glyph glyph-name="one.sinf" unicode="&#x2081;" horiz-adv-x="325" 
d="M243 -131h-110v293l-76 -24l-26 86l131 44h81v-399z" />
    <glyph glyph-name="two.sinf" unicode="&#x2082;" horiz-adv-x="400" 
d="M45 -131v87l146 114q49 39 49 68q0 38 -43 38q-38 0 -82 -50l-72 63q63 83 161 83q67 0 107 -34t40 -88q0 -70 -83 -132l-77 -58h163v-91h-309z" />
    <glyph glyph-name="three.sinf" unicode="&#x2083;" horiz-adv-x="400" 
d="M30 -79l60 72q49 -43 102 -43t53 42q0 41 -67 41h-47l-15 57l100 82h-158v90h287v-80l-105 -83q113 -14 113 -109q0 -60 -44 -96q-43 -36 -112 -36q-99 0 -167 63z" />
    <glyph glyph-name="four.sinf" unicode="&#x2084;" horiz-adv-x="400" 
d="M325 -59v-74h-105v74h-178l-12 90l173 235h122v-245h48v-80h-48zM223 19v140l-102 -140h102z" />
    <glyph glyph-name="five.sinf" unicode="&#x2085;" horiz-adv-x="400" 
d="M31 -82l57 76q57 -42 104 -42q56 0 56 46q0 45 -59 45q-35 0 -64 -17l-68 35l17 201h263v-92h-180l-6 -60q29 10 70 10q59 0 95 -30q40 -31 40 -90q0 -66 -45 -104q-43 -37 -116 -37q-90 0 -164 59z" />
    <glyph glyph-name="six.sinf" unicode="&#x2086;" horiz-adv-x="400" 
d="M90 -99q-52 52 -52 152v3q0 102 48 159q49 58 138 58q67 0 120 -35l-42 -84q-38 27 -77 27q-69 0 -75 -81q38 23 85 23q51 0 86 -29q38 -32 38 -92q0 -67 -44 -106q-44 -38 -110 -38q-72 0 -115 43zM254 -4q0 53 -52 53q-53 0 -53 -53t53 -53q52 0 52 53z" />
    <glyph glyph-name="seven.sinf" unicode="&#x2087;" horiz-adv-x="400" 
d="M183 -134h-121l167 299h-178v97h302v-86z" />
    <glyph glyph-name="eight.sinf" unicode="&#x2088;" horiz-adv-x="400" 
d="M85 -109q-44 32 -44 86q0 67 65 96q-54 31 -54 88q0 49 40 80q41 32 108 32q66 0 107 -32t41 -80q0 -57 -54 -88q65 -32 65 -96q0 -54 -45 -87q-44 -32 -114 -32q-72 0 -115 33zM151 149q0 -46 49 -46t49 46q0 19 -14 31q-13 13 -35 13q-49 0 -49 -44zM144 -14
q0 -48 56 -48q55 0 55 48t-55 48q-56 0 -56 -48z" />
    <glyph glyph-name="nine.sinf" unicode="&#x2089;" horiz-adv-x="400" 
d="M311 230q51 -51 51 -151v-4q0 -101 -47 -159q-48 -58 -137 -58q-71 0 -129 40l42 83q41 -30 84 -30q67 0 78 77q-43 -23 -86 -23q-52 0 -87 29q-39 33 -39 93q0 67 45 108q43 38 109 38q73 0 116 -43zM251 133q0 55 -52 55t-52 -55q0 -54 52 -54t52 54z" />
    <glyph glyph-name="colonmonetary" unicode="&#x20a1;" horiz-adv-x="630" 
d="M451 780h74l-14 -105q53 -21 98 -63l-77 -143q-24 24 -46 41l-43 -346q31 14 78 60l93 -115q-79 -88 -186 -106l-14 -117h-74l14 112q-39 1 -59 6l-14 -118h-74l17 139q-86 37 -140 118q-55 83 -55 198v7q0 144 79 238q77 92 199 111l11 83h74l-10 -78q31 -1 58 -6z
M358 549l-48 -390q32 -8 64 -8h5l48 390q-27 9 -56 9q-10 0 -13 -1zM200 347v-8q0 -99 51 -147l42 340q-93 -46 -93 -185z" />
    <glyph glyph-name="uni20A6" unicode="&#x20a6;" horiz-adv-x="870" 
d="M851 188h-101v-188h-197l-113 188h-146v-188h-173v188h-101v97h101v134h-101v97h101v184h208l108 -184h139v184h174v-184h101v-97h-101v-134h101v-97zM291 444v-166h102l-96 166h-6zM574 272h6v154h-96z" />
    <glyph glyph-name="uni20A8" unicode="&#x20a8;" horiz-adv-x="1093" 
d="M54 0v700h265q129 0 199 -61q72 -61 72 -173v-5q0 -145 -122 -205l141 -256h-201l-116 217h-61v-217h-177zM628 57l62 121q89 -58 171 -58q48 0 48 30v2q0 25 -81 52q-93 32 -132 63q-48 41 -48 108v2q0 81 59 128q56 46 148 46q108 0 199 -53l-52 -125q-82 47 -149 47
q-47 0 -47 -29v-2q0 -23 83 -52q93 -31 132 -64q47 -41 47 -107v-2q0 -81 -58 -129q-59 -47 -149 -47q-127 0 -233 69zM231 360h80q100 0 100 91v4q0 90 -101 90h-79v-185z" />
    <glyph glyph-name="uni20A9" unicode="&#x20a9;" horiz-adv-x="1130" 
d="M1076 700l-50 -194h83v-102h-109l-27 -109h131v-102h-157l-50 -197h-214l-50 200h-136l-50 -200h-214l-50 197h-157v102h131l-27 109h-109v102h83l-49 194h205l37 -194h121l46 196h207l46 -196h120l38 194h201zM562 485l-47 -197h99l-46 197h-6zM780 214h6l38 200h-91z
M348 214h6l46 200h-90z" />
    <glyph glyph-name="sheqel" unicode="&#x20aa;" horiz-adv-x="640" 
d="M226 148l-20 174h82l15 -108q10 -76 91 -76h75v403h123v-541h-204q-146 0 -162 148zM342 219v108q0 76 -77 76h-93v-403h-123v541h240q65 0 99 -36q36 -35 36 -99v-187h-82z" />
    <glyph glyph-name="Euro" unicode="&#x20ac;" horiz-adv-x="682" 
d="M663 601l-124 -115q-47 62 -116 62q-75 0 -109 -69h157v-102h-179q-1 -6 -1 -26q0 -19 1 -24h179v-101h-158q32 -74 115 -74q64 0 118 66l119 -112q-91 -120 -244 -120q-118 0 -199 66q-79 63 -104 171h-80v104h67v22q0 22 1 29h-68v103h84q27 102 104 166q80 67 197 67
q151 0 240 -113z" />
    <glyph glyph-name="uni20B1" unicode="&#x20b1;" horiz-adv-x="779" 
d="M121 0v387h-101v94h101v219h265q123 0 200 -58q77 -59 89 -161h92v-94h-94q-15 -102 -98 -161q-80 -56 -199 -56h-63v-170h-192zM310 312h63q98 0 115 83h-178v-83zM310 553v-79h178q-16 79 -116 79h-62z" />
    <glyph glyph-name="uni2117" unicode="&#x2117;" horiz-adv-x="830" 
d="M157 93q-104 107 -104 255v2q0 150 105 256q106 108 258 108q150 0 257 -107q104 -107 104 -255v-2q0 -150 -105 -256q-106 -108 -258 -108q-150 0 -257 107zM643 122q92 95 92 228v2q0 135 -91 227q-93 95 -228 95q-136 0 -229 -96q-92 -95 -92 -228v-2q0 -135 91 -227
q93 -94 228 -94q136 0 229 95zM273 164v385h166q73 0 116 -36q44 -36 44 -99v-2q0 -65 -47 -103q-46 -35 -118 -35h-53v-110h-108zM381 358h50q61 0 61 50v2q0 50 -62 50h-49v-102z" />
    <glyph glyph-name="servicemark" unicode="&#x2120;" horiz-adv-x="702" 
d="M341 392v308h91l73 -119l74 119h90v-308h-85v181l-78 -123h-3l-78 123v-181h-84zM16 438l46 56q50 -39 108 -39q40 0 40 23q0 18 -55 31q-61 13 -87 30q-36 24 -36 66q0 45 32 72q35 29 92 29q82 0 131 -42l-43 -59q-46 32 -91 32q-36 0 -36 -23q0 -19 56 -31
q123 -25 123 -96q0 -47 -36 -74q-34 -27 -94 -27q-91 0 -150 52z" />
    <glyph glyph-name="trademark" unicode="&#x2122;" horiz-adv-x="695" 
d="M335 392v308h90l74 -119l73 119h90v-308h-84v181l-78 -123h-4l-78 123v-181h-83zM108 392v233h-91v75h269v-75h-92v-233h-86z" />
    <glyph glyph-name="onethird" unicode="&#x2153;" horiz-adv-x="825" 
d="M465 52l60 72q49 -43 102 -43t53 42q0 41 -67 41h-47l-15 57l100 82h-158v90h287v-80l-105 -83q113 -14 113 -109q0 -60 -44 -96q-43 -36 -112 -36q-100 0 -167 63zM241 307h-110v293l-76 -24l-26 86l131 44h81v-399zM100 0l256 366l219 334h83l-255 -366l-220 -334h-83z
" />
    <glyph glyph-name="twothirds" unicode="&#x2154;" horiz-adv-x="900" 
d="M540 52l60 72q49 -43 102 -43t53 42q0 41 -67 41h-47l-15 57l100 82h-158v90h287v-80l-105 -83q113 -14 113 -109q0 -60 -44 -96q-43 -36 -112 -36q-99 0 -167 63zM35 307v87l146 114q49 39 49 68q0 38 -43 38q-38 0 -82 -50l-72 63q63 83 161 83q67 0 107 -34t40 -88
q0 -70 -83 -132l-77 -58h163v-91h-309zM171 0l256 366l219 334h83l-255 -366l-220 -334h-83z" />
    <glyph glyph-name="onefifth" unicode="&#x2155;" horiz-adv-x="825" 
d="M466 49l57 76q57 -42 104 -42q56 0 56 46q0 45 -59 45q-35 0 -64 -17l-68 35l17 201h263v-92h-180l-6 -60q29 10 70 10q59 0 95 -30q40 -31 40 -90q0 -67 -45 -104q-43 -37 -116 -37q-90 0 -164 59zM241 307h-110v293l-76 -24l-26 86l131 44h81v-399zM105 0l256 366
l219 334h83l-255 -366l-220 -334h-83z" />
    <glyph glyph-name="twofifths" unicode="&#x2156;" horiz-adv-x="900" 
d="M541 49l57 76q57 -42 104 -42q56 0 56 46q0 45 -59 45q-35 0 -64 -17l-68 35l17 201h263v-92h-180l-6 -60q29 10 70 10q59 0 95 -30q40 -31 40 -90q0 -67 -45 -104q-43 -37 -116 -37q-90 0 -164 59zM181 0l256 366l219 334h83l-255 -366l-220 -334h-83zM35 307v87
l146 114q49 39 49 68q0 38 -43 38q-38 0 -82 -50l-72 63q63 83 161 83q67 0 107 -34t40 -88q0 -70 -83 -132l-77 -58h163v-91h-309z" />
    <glyph glyph-name="threefifths" unicode="&#x2157;" horiz-adv-x="900" 
d="M541 49l57 76q57 -42 104 -42q56 0 56 46q0 45 -59 45q-35 0 -64 -17l-68 35l17 201h263v-92h-180l-6 -60q29 10 70 10q59 0 95 -30q40 -31 40 -90q0 -67 -45 -104q-43 -37 -116 -37q-90 0 -164 59zM166 0l256 366l219 334h83l-255 -366l-220 -334h-83zM20 359l60 72
q49 -43 102 -43t53 42q0 41 -67 41h-47l-15 57l100 82h-158v90h287v-80l-105 -83q113 -14 113 -109q0 -60 -44 -96q-43 -36 -112 -36q-99 0 -167 63z" />
    <glyph glyph-name="fourfifths" unicode="&#x2158;" horiz-adv-x="900" 
d="M315 379v-74h-105v74h-178l-12 90l173 235h122v-245h48v-80h-48zM541 49l57 76q57 -42 104 -42q56 0 56 46q0 45 -59 45q-35 0 -64 -17l-68 35l17 201h263v-92h-180l-6 -60q29 10 70 10q59 0 95 -30q40 -31 40 -90q0 -67 -45 -104q-43 -37 -116 -37q-90 0 -164 59zM181 0
l256 366l219 334h83l-255 -366l-220 -334h-83zM213 457v140l-102 -140h102z" />
    <glyph glyph-name="onesixth" unicode="&#x2159;" horiz-adv-x="825" 
d="M525 32q-52 52 -52 152v3q0 102 48 159q49 58 138 58q67 0 120 -35l-42 -84q-37 27 -77 27q-69 0 -75 -81q38 23 85 23q51 0 86 -29q38 -32 38 -92q0 -67 -44 -106q-44 -38 -110 -38q-72 0 -115 43zM111 0l256 366l219 334h83l-255 -366l-220 -334h-83zM241 307h-110v293
l-76 -24l-26 86l131 44h81v-399zM689 127q0 53 -52 53q-53 0 -53 -53t53 -53q52 0 52 53z" />
    <glyph glyph-name="fivesixths" unicode="&#x215a;" horiz-adv-x="900" 
d="M600 32q-52 52 -52 152v3q0 102 48 159q49 58 138 58q67 0 120 -35l-42 -84q-38 27 -77 27q-69 0 -75 -81q38 23 85 23q51 0 86 -29q38 -32 38 -92q0 -67 -44 -106q-44 -38 -110 -38q-72 0 -115 43zM21 356l57 76q57 -42 104 -42q56 0 56 46q0 45 -59 45q-35 0 -64 -17
l-68 35l17 201h263v-92h-180l-6 -60q29 10 70 10q59 0 95 -30q40 -31 40 -90q0 -66 -45 -104q-43 -37 -116 -37q-90 0 -164 59zM171 0l256 366l219 334h83l-255 -366l-220 -334h-83zM764 127q0 53 -52 53q-53 0 -53 -53t53 -53q52 0 52 53z" />
    <glyph glyph-name="oneeighth" unicode="&#x215b;" horiz-adv-x="825" 
d="M520 22q-44 32 -44 86q0 67 65 96q-54 32 -54 88q0 49 40 80q41 32 108 32q66 0 107 -32t41 -80q0 -56 -54 -88q65 -32 65 -96q0 -54 -45 -87q-44 -32 -114 -32q-71 0 -115 33zM586 280q0 -46 49 -46t49 46q0 19 -14 31q-13 13 -35 13q-49 0 -49 -44zM579 117
q0 -48 56 -48q55 0 55 48t-55 48q-56 0 -56 -48zM241 307h-110v293l-76 -24l-26 86l131 44h81v-399zM108 0l256 366l219 334h83l-255 -366l-220 -334h-83z" />
    <glyph glyph-name="threeeighths" unicode="&#x215c;" horiz-adv-x="900" 
d="M595 22q-44 32 -44 86q0 67 65 96q-54 32 -54 88q0 49 40 80q41 32 108 32q66 0 107 -32t41 -80q0 -56 -54 -88q65 -32 65 -96q0 -54 -45 -87q-44 -32 -114 -32q-72 0 -115 33zM661 280q0 -46 49 -46t49 46q0 19 -14 31q-13 13 -35 13q-49 0 -49 -44zM654 117
q0 -48 56 -48q55 0 55 48t-55 48q-56 0 -56 -48zM171 0l256 366l219 334h83l-255 -366l-220 -334h-83zM20 359l60 72q49 -43 102 -43t53 42q0 41 -67 41h-47l-15 57l100 82h-158v90h287v-80l-105 -83q113 -14 113 -109q0 -60 -44 -96q-43 -36 -112 -36q-99 0 -167 63z" />
    <glyph glyph-name="fiveeighths" unicode="&#x215d;" horiz-adv-x="900" 
d="M595 22q-44 32 -44 86q0 67 65 96q-54 32 -54 88q0 49 40 80q41 32 108 32q66 0 107 -32t41 -80q0 -56 -54 -88q65 -32 65 -96q0 -54 -45 -87q-44 -32 -114 -32q-72 0 -115 33zM661 280q0 -46 49 -46t49 46q0 19 -14 31q-13 13 -35 13q-49 0 -49 -44zM654 117
q0 -48 56 -48q55 0 55 48t-55 48q-56 0 -56 -48zM171 0l256 366l219 334h83l-255 -366l-220 -334h-83zM21 356l57 76q57 -42 104 -42q56 0 56 46q0 45 -59 45q-35 0 -64 -17l-68 35l17 201h263v-92h-180l-6 -60q29 10 70 10q59 0 95 -30q40 -31 40 -90q0 -66 -45 -104
q-43 -37 -116 -37q-90 0 -164 59z" />
    <glyph glyph-name="seveneighths" unicode="&#x215e;" horiz-adv-x="900" 
d="M595 22q-44 32 -44 86q0 67 65 96q-54 32 -54 88q0 49 40 80q41 32 108 32q66 0 107 -32t41 -80q0 -56 -54 -88q65 -32 65 -96q0 -54 -45 -87q-44 -32 -114 -32q-72 0 -115 33zM661 280q0 -46 49 -46t49 46q0 19 -14 31q-13 13 -35 13q-49 0 -49 -44zM654 117
q0 -48 56 -48q55 0 55 48t-55 48q-56 0 -56 -48zM183 305h-121l167 298h-178v97h302v-86zM141 0l256 366l219 334h83l-255 -366l-220 -334h-83z" />
    <glyph glyph-name="minus" unicode="&#x2212;" horiz-adv-x="640" 
d="M583 268h-526v168h526v-168z" />
    <glyph glyph-name="cir.acute" unicode="&#xe00d;" horiz-adv-x="0" 
d="M44 755l128 164h154l128 -164h-122l-84 61l-84 -61h-120zM389 897l104 184l176 -57l-148 -127h-132z" />
    <glyph glyph-name="cir.grave" unicode="&#xe00e;" horiz-adv-x="0" 
d="M45 755l128 164h154l128 -164h-122l-84 61l-84 -61h-120zM413 902l-147 127l176 57l103 -184h-132z" />
    <glyph glyph-name="cir.tilde" unicode="&#xe00f;" horiz-adv-x="0" 
d="M46 757l128 164h154l128 -164h-122l-84 61l-84 -61h-120zM262 972q-50 18 -63 18q-31 0 -51 -47l-91 25q33 149 124 149q37 0 94 -22q51 -17 62 -17q32 0 51 46l91 -25q-31 -148 -124 -148q-36 0 -93 21z" />
    <glyph glyph-name="breve.tilde" unicode="&#xe010;" horiz-adv-x="0" 
d="M114 797q-53 43 -61 123h111q19 -58 86 -58t86 58h111q-7 -80 -60 -123q-52 -43 -137 -43q-84 0 -136 43zM258 972q-50 18 -63 18q-31 0 -51 -47l-91 25q33 149 124 149q37 0 94 -22q51 -17 62 -17q32 0 51 46l91 -25q-31 -148 -124 -148q-36 0 -93 21z" />
    <glyph glyph-name="breve.acute" unicode="&#xe011;" horiz-adv-x="0" 
d="M114 799q-53 43 -61 123h111q19 -58 86 -58t86 58h111q-7 -80 -60 -123q-52 -43 -137 -43q-84 0 -136 43zM194 945l104 184l176 -57l-148 -127h-132z" />
    <glyph glyph-name="breve.grave" unicode="&#xe012;" horiz-adv-x="0" 
d="M114 799q-53 43 -61 123h111q19 -58 86 -58t86 58h111q-7 -80 -60 -123q-52 -43 -137 -43q-84 0 -136 43zM187 947l-147 127l176 57l103 -184h-132z" />
    <glyph glyph-name="breve.hook" unicode="&#xe013;" horiz-adv-x="0" 
d="M114 798q-53 43 -61 123h111q19 -58 86 -58t86 58h111q-7 -79 -60 -123q-52 -43 -137 -43q-84 0 -136 43zM147 1007v61q28 3 59 3q70 0 112 -18q40 -18 40 -47q0 -33 -50 -68h-121q32 24 32 42q0 30 -72 27z" />
    <glyph glyph-name="cir.hook" unicode="&#xe014;" horiz-adv-x="0" 
d="M45 755l128 164h154l128 -164h-122l-84 61l-84 -61h-120zM340 991v81q25 4 59 4q70 0 112 -24q40 -24 40 -63q0 -44 -50 -91h-121q32 32 32 57q0 39 -72 36z" />
    <glyph glyph-name="uniE015" unicode="&#xe015;" 
d="M236 588l-147 127l176 57l103 -184h-132z" />
    <glyph glyph-name="uniE016" unicode="&#xe016;" 
d="M132 588l104 184l176 -57l-148 -127h-132z" />
    <glyph glyph-name="uniE017" unicode="&#xe017;" 
d="M45 588l128 164h154l128 -164h-122l-84 61l-84 -61h-120z" />
    <glyph glyph-name="uniE018" unicode="&#xe018;" 
d="M455 752l-128 -164h-154l-128 164h122l84 -61l84 61h120z" />
    <glyph glyph-name="uniE019" unicode="&#xe019;" 
d="M244 609q-50 18 -63 18q-31 0 -51 -47l-91 25q33 149 124 149q37 0 94 -22q51 -17 62 -17q32 0 51 46l91 -25q-31 -148 -124 -148q-36 0 -93 21z" />
    <glyph glyph-name="uniE01A" unicode="&#xe01a;" 
d="M236 588l-147 127l176 57l103 -184h-132z" />
    <glyph glyph-name="uniE01B" unicode="&#xe01b;" 
d="M28 588l97 184l163 -56l30 56l167 -57l-144 -127h-121l63 119l-134 -119h-121z" />
    <glyph glyph-name="uniE01C" unicode="&#xe01c;" 
d="M114 629q-53 43 -61 123h111q19 -58 86 -58t86 58h111q-7 -80 -60 -123q-52 -43 -137 -43q-84 0 -136 43z" />
    <glyph glyph-name="uniE01D" unicode="&#xe01d;" 
d="M114 629q-53 43 -61 123h111q19 -58 86 -58t86 58h111q-7 -80 -60 -123q-52 -43 -137 -43q-84 0 -136 43z" />
    <glyph glyph-name="uniE01E" unicode="&#xe01e;" 
d="M157 626q-39 38 -39 90t39 90q37 37 93 37q57 0 94 -37q39 -38 39 -90t-39 -90q-37 -37 -94 -37q-56 0 -93 37zM299 667q20 22 20 49q0 28 -20 50q-20 20 -49 20q-28 0 -48 -20q-20 -22 -20 -50q0 -29 20 -49t48 -20q29 0 49 20z" />
    <glyph glyph-name="uniE01F" unicode="&#xe01f;" 
d="M162 703v81q25 4 59 4q70 0 112 -24q40 -24 40 -63q0 -44 -50 -91h-121q32 32 32 57q0 39 -72 36z" />
    <glyph glyph-name="uniE020" unicode="&#xe020;" horiz-adv-x="630" 
d="M65 588v142h167v-142h-167zM399 588v142h167v-142h-167z" />
    <glyph glyph-name="Euro.aalt" horiz-adv-x="600" 
d="M27 380v105h76q25 103 99 165q76 63 184 63q125 0 203 -83l-86 -135q-49 58 -113 58q-75 0 -105 -73h142v-101h-160v-54h160v-100h-145q28 -78 105 -78q57 0 110 59l95 -119q-88 -100 -220 -100q-102 0 -175 61q-75 63 -97 172h-73v105h65v55h-65z" />
    <glyph glyph-name="_18" horiz-adv-x="831" 
d="M608 -89l-89 89q-52 -13 -104 -13q-161 0 -269 105q-107 104 -107 256v2q0 152 108 257q110 107 270 107q162 0 269 -106q107 -104 107 -256v-2q0 -145 -100 -249l181 -186v-4h-266zM545 217q49 52 49 131v2q0 78 -49 133q-53 56 -130 56q-78 0 -129 -56
q-49 -52 -49 -131v-2q0 -77 50 -132q52 -57 130 -57t128 56z" />
    <glyph glyph-name="_260" horiz-adv-x="618" 
d="M17 110l120 119q79 -79 170 -79q44 0 69 19t25 48v2q0 61 -112 61h-73v146h72q98 0 98 62v2q0 28 -24 44q-22 16 -63 16q-71 0 -141 -76l-119 112q107 128 276 128q115 0 188 -53q70 -52 70 -134v-2q0 -113 -105 -162q123 -42 123 -157v-2q0 -96 -72 -156
q-77 -62 -202 -62q-183 0 -300 124z" />
    <glyph glyph-name="_29" horiz-adv-x="676" 
d="M103 63q-72 79 -72 205v2q0 128 72 208q67 75 167 75q98 0 165 -78v66h190v-541h-190v72q-69 -84 -164 -84q-101 0 -168 75zM407 182q32 35 32 88v2q0 53 -32 88t-79 35t-78 -34q-33 -36 -33 -89v-2q0 -54 33 -88q32 -35 78 -35q47 0 79 35z" />
    <glyph glyph-name="_305" horiz-adv-x="830" 
d="M157 93q-104 107 -104 255v2q0 150 105 256q106 108 258 108q150 0 257 -107q104 -107 104 -255v-2q0 -150 -105 -256q-106 -108 -258 -108q-150 0 -257 107zM643 122q92 95 92 228v2q0 135 -91 227q-93 95 -228 95q-136 0 -229 -96q-92 -95 -92 -228v-2q0 -135 91 -227
q93 -94 228 -94q136 0 229 95zM256 168v385h180q86 0 129 -43q33 -33 33 -88v-2q0 -84 -79 -117l92 -135h-123l-78 117h-47v-117h-107zM363 368h70q58 0 58 46v2q0 46 -58 46h-70v-94z" />
    <glyph glyph-name="_322" horiz-adv-x="1199" 
d="M54 0v700h265q129 0 199 -61q72 -61 72 -173v-5q0 -145 -122 -205l141 -256h-201l-116 217h-61v-217h-177zM661 -160v701h173v-69q58 81 142 81q85 0 140 -67q59 -74 59 -204v-20q0 -132 -59 -206q-54 -68 -139 -68q-83 0 -143 77v-225h-173zM979 171q24 33 24 89v22
q0 56 -24 89t-62 33q-37 0 -60 -33q-25 -34 -25 -89v-22q0 -57 25 -89q23 -33 60 -33q38 0 62 33zM231 360h80q100 0 100 91v4q0 90 -101 90h-79v-185z" />
    <glyph glyph-name="_391" horiz-adv-x="600" 
d="M18 101l108 121q77 -74 166 -74q93 0 93 70q0 65 -109 65h-74v141h80q94 0 94 66q0 28 -24 46q-25 17 -62 17q-78 0 -148 -73l-107 115q104 119 270 119q118 0 187 -51q69 -53 69 -140q0 -111 -111 -160q121 -40 121 -164q0 -97 -75 -155q-74 -58 -200 -58
q-169 0 -278 115z" />
    <glyph glyph-name="_437" horiz-adv-x="0" 
 />
    <glyph glyph-name="_440" horiz-adv-x="694" 
d="M644 -200h-208l-8 14h-163l-8 -14h-207v303q32 0 32 32t-32 32v554h100l30 79h334l29 -79h101v-921zM400 563v-172h15v78h38v14h-38v66h43v14h-58zM184 563v-172h15v79h47v-79h15v172h-15v-79h-47v79h-15zM460 409v-15q9 -4 21 -4q31 0 31 36v137h-16v-137q0 -22 -16 -22
q-5 0 -20 5zM371 465l-13 3q-6 -26 -8 -30h-1l-16 31q23 21 23 42q0 31 -27 31q-28 0 -28 -31q0 -13 14 -39q-23 -18 -23 -47q0 -37 29 -37q19 0 29 24h1l12 -24l12 6l-17 32q5 10 13 39zM523 323v-46h8v12l8 8l15 -20h10l-20 26l18 20h-10l-21 -24v24h-8zM488 292l10 -15h9
l-12 17q10 4 10 14q0 15 -17 15h-20v-46h8v15h12zM450 300q0 24 -24 24t-24 -24t24 -24t24 24zM370 301l-13 22h-9l18 -29v-17h8v17l18 29h-9zM193 323v-46h34v7h-26v13h23v7h-23v12h26v7h-34zM132 323v-46h8v32l25 -32h7v46h-8v-32l-25 32h-7zM241 323l14 -47h8l11 34h1
l11 -34h8l14 47h-8l-10 -35h-1l-11 35h-7l-11 -35h-1l-10 35h-8zM315 511q0 19 14 19q13 0 13 -19q0 -15 -15 -32q-12 23 -12 32zM322 462l20 -39q-8 -21 -20 -21q-16 0 -16 25q0 19 16 35zM487 299h-11v17h11q10 0 10 -8q0 -9 -10 -9zM410 300q0 17 16 17t16 -17t-16 -17
t-16 17z" />
    <glyph glyph-name="_441" horiz-adv-x="301" 
d="M52 590v140h197v-140h-197zM56 0v541h189v-541h-189z" />
    <glyph glyph-name="_443" horiz-adv-x="400" 
d="M79 351q-46 55 -46 148v8q0 93 47 149q46 55 121 55q74 0 120 -55q47 -56 47 -148v-8q0 -92 -47 -148t-122 -56t-120 55zM142 514v-21q0 -102 58 -102q59 0 59 102v21q0 103 -59 103q-58 0 -58 -103z" />
    <glyph glyph-name="_444" horiz-adv-x="325" 
d="M243 307h-110v293l-76 -24l-26 86l131 44h81v-399z" />
    <glyph glyph-name="_445" horiz-adv-x="400" 
d="M361 307h-301v90h101v203l-89 -28l-26 86l144 48h81v-309h90v-90z" />
    <glyph glyph-name="_446" horiz-adv-x="400" 
d="M45 307v87l146 114q49 39 49 68q0 38 -43 38q-38 0 -82 -50l-72 63q63 83 161 83q67 0 107 -34t40 -88q0 -70 -83 -132l-77 -58h163v-91h-309z" />
    <glyph glyph-name="_447" horiz-adv-x="400" 
d="M30 359l60 72q49 -43 102 -43t53 42q0 41 -67 41h-47l-15 57l100 82h-158v90h287v-80l-105 -83q113 -14 113 -109q0 -60 -44 -96q-43 -36 -112 -36q-99 0 -167 63z" />
    <glyph glyph-name="_448" horiz-adv-x="400" 
d="M325 379v-74h-105v74h-178l-12 90l173 235h122v-245h48v-80h-48zM223 457v140l-102 -140h102z" />
    <glyph glyph-name="_449" horiz-adv-x="400" 
d="M31 356l57 76q57 -42 104 -42q56 0 56 46q0 45 -59 45q-35 0 -64 -17l-68 35l17 201h263v-92h-180l-6 -60q29 10 70 10q59 0 95 -30q40 -31 40 -90q0 -66 -45 -104q-43 -37 -116 -37q-90 0 -164 59z" />
    <glyph glyph-name="_450" horiz-adv-x="400" 
d="M90 339q-52 52 -52 152v3q0 102 48 159q49 58 138 58q67 0 120 -35l-42 -84q-38 27 -77 27q-69 0 -75 -81q38 23 85 23q51 0 86 -29q38 -32 38 -92q0 -67 -44 -106q-44 -38 -110 -38q-72 0 -115 43zM254 434q0 53 -52 53q-53 0 -53 -53t53 -53q52 0 52 53z" />
    <glyph glyph-name="_451" horiz-adv-x="400" 
d="M183 305h-121l167 298h-178v97h302v-86z" />
    <glyph glyph-name="_452" horiz-adv-x="400" 
d="M85 329q-44 32 -44 86q0 67 65 96q-54 31 -54 88q0 49 40 80q41 32 108 32q66 0 107 -32t41 -80q0 -57 -54 -88q65 -32 65 -96q0 -55 -45 -86q-44 -32 -114 -32q-71 0 -115 32zM151 587q0 -46 49 -46t49 46q0 19 -14 31q-13 13 -35 13q-49 0 -49 -44zM144 424
q0 -48 56 -48q55 0 55 48t-55 48q-56 0 -56 -48z" />
    <glyph glyph-name="_453" horiz-adv-x="400" 
d="M311 668q51 -51 51 -151v-4q0 -102 -47 -158q-48 -58 -137 -58q-72 0 -129 39l42 83q41 -30 84 -30q67 0 78 77q-43 -23 -86 -23q-52 0 -87 29q-39 33 -39 93q0 67 45 108q43 38 109 38q73 0 116 -43zM251 571q0 55 -52 55t-52 -55q0 -54 52 -54t52 54z" />
    <glyph glyph-name="_454" horiz-adv-x="400" 
d="M79 44q-46 55 -46 148v8q0 93 47 149q46 55 121 55q74 0 120 -55q47 -56 47 -148v-8q0 -92 -47 -148t-122 -56t-120 55zM142 207v-21q0 -102 58 -102q59 0 59 102v21q0 103 -59 103q-58 0 -58 -103z" />
    <glyph glyph-name="_455" horiz-adv-x="325" 
d="M243 0h-110v293l-76 -24l-26 86l131 44h81v-399z" />
    <glyph glyph-name="_456" horiz-adv-x="400" 
d="M361 0h-301v90h101v203l-89 -28l-26 86l144 48h81v-309h90v-90z" />
    <glyph glyph-name="_457" horiz-adv-x="400" 
d="M45 0v87l146 114q49 39 49 68q0 38 -43 38q-38 0 -82 -50l-72 63q63 83 161 83q67 0 107 -34t40 -88q0 -70 -83 -132l-77 -58h163v-91h-309z" />
    <glyph glyph-name="_458" horiz-adv-x="400" 
d="M30 52l60 72q49 -43 102 -43t53 42q0 41 -67 41h-47l-15 57l100 82h-158v90h287v-80l-105 -83q113 -14 113 -109q0 -60 -44 -96q-43 -36 -112 -36q-99 0 -167 63z" />
    <glyph glyph-name="_459" horiz-adv-x="400" 
d="M325 72v-74h-105v74h-178l-12 90l173 235h122v-245h48v-80h-48zM223 150v140l-102 -140h102z" />
    <glyph glyph-name="_460" horiz-adv-x="400" 
d="M31 49l57 76q57 -42 104 -42q56 0 56 46q0 45 -59 45q-35 0 -64 -17l-68 35l17 201h263v-92h-180l-6 -60q29 10 70 10q59 0 95 -30q40 -31 40 -90q0 -67 -45 -104q-43 -37 -116 -37q-90 0 -164 59z" />
    <glyph glyph-name="_461" horiz-adv-x="400" 
d="M90 32q-52 52 -52 152v3q0 102 48 159q49 58 138 58q67 0 120 -35l-42 -84q-38 27 -77 27q-69 0 -75 -81q38 23 85 23q51 0 86 -29q38 -32 38 -92q0 -67 -44 -106q-44 -38 -110 -38q-72 0 -115 43zM254 127q0 53 -52 53q-53 0 -53 -53t53 -53q52 0 52 53z" />
    <glyph glyph-name="_462" horiz-adv-x="400" 
d="M183 -3h-121l167 299h-178v97h302v-86z" />
    <glyph glyph-name="_463" horiz-adv-x="400" 
d="M85 22q-44 32 -44 86q0 67 65 96q-54 32 -54 88q0 49 40 80q41 32 108 32q66 0 107 -32t41 -80q0 -56 -54 -88q65 -32 65 -96q0 -54 -45 -87q-44 -32 -114 -32q-72 0 -115 33zM151 280q0 -46 49 -46t49 46q0 19 -14 31q-13 13 -35 13q-49 0 -49 -44zM144 117
q0 -48 56 -48q55 0 55 48t-55 48q-56 0 -56 -48z" />
    <glyph glyph-name="_464" horiz-adv-x="400" 
d="M311 361q51 -51 51 -151v-4q0 -101 -47 -159q-48 -58 -137 -58q-71 0 -129 40l42 83q41 -30 84 -30q67 0 78 77q-43 -23 -86 -23q-52 0 -87 29q-39 33 -39 93q0 68 45 108q43 38 109 38q73 0 116 -43zM251 264q0 55 -52 55t-52 -55q0 -54 52 -54t52 54z" />
    <glyph glyph-name="_467" 
d="M188 585l11 215h131v-3l-65 -212h-77z" />
    <glyph glyph-name="_477" 
d="M127 748l108 162l181 -55l-148 -107h-141z" />
    <glyph glyph-name="_478" 
d="M218 748l62 98l-131 -98h-128l103 162l163 -54l34 54l168 -55l-143 -107h-128z" />
    <glyph glyph-name="_479" 
d="M373 748h-142l-148 107l181 55z" />
    <glyph glyph-name="_480" 
d="M43 748l123 149h169l123 -149h-130l-79 53l-79 -53h-127z" />
    <glyph glyph-name="_481" 
d="M458 897l-123 -149h-169l-123 149h129l79 -53l79 53h128z" />
    <glyph glyph-name="_482" 
d="M53 897h115q19 -45 82 -45q64 0 83 45h114q-19 -151 -197 -151t-197 151z" />
    <glyph glyph-name="_483" 
d="M240 770q-53 17 -63 17q-33 0 -53 -47l-91 25q33 149 126 149q32 0 101 -23q47 -16 64 -16q33 0 52 46l91 -25q-31 -148 -125 -148q-37 0 -102 22z" />
    <glyph glyph-name="_484" 
d="M51 755v117h398v-117h-398z" />
    <glyph glyph-name="_485" 
d="M278 748v138h165v-138h-165zM57 748v138h165v-138h-165z" />
    <glyph glyph-name="_486" 
d="M165 748v138h170v-138h-170z" />
    <glyph glyph-name="_487" 
d="M150 785q-41 36 -41 90t41 90q41 35 100 35t100 -35q41 -36 41 -90t-41 -90q-40 -36 -100 -36t-100 36zM302 829q20 18 20 46t-20 46q-19 19 -52 19t-52 -19q-20 -18 -20 -46t20 -46q19 -19 52 -19t52 19z" />
    <glyph glyph-name="_57" horiz-adv-x="676" 
d="M275 592l104 184l176 -57l-148 -127h-132zM103 63q-72 79 -72 205v2q0 128 72 208q67 75 167 75q98 0 165 -78v66h190v-541h-190v72q-69 -84 -164 -84q-101 0 -168 75zM407 182q32 35 32 88v2q0 53 -32 88t-79 35t-78 -34q-33 -36 -33 -89v-2q0 -54 33 -88q32 -35 78 -35
q47 0 79 35z" />
    <glyph glyph-name="_60" horiz-adv-x="676" 
d="M103 63q-72 79 -72 205v2q0 128 72 208q67 75 167 75q98 0 165 -78v66h190v-541h-190v72q-69 -84 -164 -84q-101 0 -168 75zM407 182q32 35 32 88v2q0 53 -32 88t-79 35t-78 -34q-33 -36 -33 -89v-2q0 -54 33 -88q32 -35 78 -35q47 0 79 35zM211 633q-53 43 -61 123h111
q19 -58 86 -58t86 58h111q-8 -80 -60 -123t-137 -43q-84 0 -136 43z" />
    <glyph glyph-name="_63" horiz-adv-x="676" 
d="M142 592l128 164h154l128 -164h-122l-84 61l-84 -61h-120zM103 63q-72 79 -72 205v2q0 128 72 208q67 75 167 75q98 0 165 -78v66h190v-541h-190v72q-69 -84 -164 -84q-101 0 -168 75zM407 182q32 35 32 88v2q0 53 -32 88t-79 35t-78 -34q-33 -36 -33 -89v-2
q0 -54 33 -88q32 -35 78 -35q47 0 79 35z" />
    <glyph glyph-name="_66" horiz-adv-x="676" 
d="M371 592v142h162v-142h-162zM162 592v142h161v-142h-161zM103 63q-72 79 -72 205v2q0 128 72 208q67 75 167 75q98 0 165 -78v66h190v-541h-190v72q-69 -84 -164 -84q-101 0 -168 75zM407 182q32 35 32 88v2q0 53 -32 88t-79 35t-78 -34q-33 -36 -33 -89v-2q0 -54 33 -88
q32 -35 78 -35q47 0 79 35z" />
    <glyph glyph-name="_73" horiz-adv-x="676" 
d="M103 63q-72 79 -72 205v2q0 128 72 208q67 75 167 75q98 0 165 -78v66h190v-541h-190v72q-69 -84 -164 -84q-101 0 -168 75zM407 182q32 35 32 88v2q0 53 -32 88t-79 35t-78 -34q-33 -36 -33 -89v-2q0 -54 33 -88q32 -35 78 -35q47 0 79 35zM288 592l-147 127l176 57
l103 -184h-132z" />
    <glyph glyph-name="_76" horiz-adv-x="676" 
d="M103 63q-72 79 -72 205v2q0 128 72 208q67 75 167 75q98 0 165 -78v66h190v-541h-190v72q-69 -84 -164 -84q-101 0 -168 75zM407 182q32 35 32 88v2q0 53 -32 88t-79 35t-78 -34q-33 -36 -33 -89v-2q0 -54 33 -88q32 -35 78 -35q47 0 79 35zM160 599v114h375v-114h-375z
" />
    <glyph glyph-name="_79" horiz-adv-x="676" 
d="M633 -83v-81q-25 -4 -59 -4q-70 0 -112 24q-40 24 -40 63q0 41 40 81h-27v72q-69 -84 -164 -84q-101 0 -168 75q-72 79 -72 205v2q0 128 72 208q67 75 167 75q98 0 165 -78v66h190v-541h-42q-22 -25 -22 -47q0 -39 72 -36zM407 182q32 35 32 88v2q0 53 -32 88t-79 35
t-78 -34q-33 -36 -33 -89v-2q0 -54 33 -88q32 -35 78 -35q47 0 79 35z" />
    <glyph glyph-name="_82" horiz-adv-x="676" 
d="M254 630q-39 38 -39 90t39 90q37 37 93 37q57 0 94 -37q39 -38 39 -90t-39 -90q-37 -37 -94 -37q-56 0 -93 37zM396 671q20 22 20 49q0 28 -20 50q-20 20 -49 20q-28 0 -48 -20q-20 -22 -20 -50q0 -29 20 -49t48 -20q29 0 49 20zM103 63q-72 79 -72 205v2q0 128 72 208
q67 75 167 75q98 0 165 -78v66h190v-541h-190v72q-69 -84 -164 -84q-101 0 -168 75zM407 182q32 35 32 88v2q0 53 -32 88t-79 35t-78 -34q-33 -36 -33 -89v-2q0 -54 33 -88q32 -35 78 -35q47 0 79 35z" />
    <glyph glyph-name="_83" horiz-adv-x="599" 
d="M77 31q-52 46 -52 124v2q0 84 58 127q55 43 154 43q76 0 130 -21v9q0 89 -108 89q-67 0 -150 -30l-39 133q66 27 129 36q-28 32 -28 75q0 52 39 90q37 37 94 37q56 0 93 -37q39 -38 39 -90q0 -48 -35 -83q55 -13 94 -52q58 -57 58 -172v-311h-187v57q-64 -69 -160 -69
q-80 0 -129 43zM343 131q26 26 26 65v25q-36 14 -75 14q-87 0 -87 -67v-2q0 -59 67 -59q42 0 69 24zM255 568q20 -20 49 -20q28 0 48 20q20 22 20 50q0 29 -20 49t-48 20q-27 0 -49 -20q-20 -20 -20 -49q0 -28 20 -50z" />
    <glyph glyph-name="_86" horiz-adv-x="676" 
d="M274 880l112 160l171 -56l-151 -104h-132zM254 630q-39 38 -39 90t39 90q37 37 93 37q57 0 94 -37q39 -38 39 -90t-39 -90q-37 -37 -94 -37q-56 0 -93 37zM396 671q20 22 20 49q0 28 -20 50q-20 20 -49 20q-28 0 -48 -20q-20 -22 -20 -50q0 -29 20 -49t48 -20q29 0 49 20
zM103 63q-72 79 -72 205v2q0 128 72 208q67 75 167 75q98 0 165 -78v66h190v-541h-190v72q-69 -84 -164 -84q-101 0 -168 75zM407 182q32 35 32 88v2q0 53 -32 88t-79 35t-78 -34q-33 -36 -33 -89v-2q0 -54 33 -88q32 -35 78 -35q47 0 79 35z" />
    <glyph glyph-name="_87" horiz-adv-x="599" 
d="M230 778l112 160l171 -56l-151 -104h-132zM77 31q-52 46 -52 124v2q0 84 58 127q55 43 154 43q76 0 130 -21v9q0 89 -108 89q-67 0 -150 -30l-39 133q66 27 129 36q-28 32 -28 75q0 52 39 90q37 37 94 37q56 0 93 -37q39 -38 39 -90q0 -48 -35 -83q55 -13 94 -52
q58 -57 58 -172v-311h-187v57q-64 -69 -160 -69q-80 0 -129 43zM343 131q26 26 26 65v25q-36 14 -75 14q-87 0 -87 -67v-2q0 -59 67 -59q42 0 69 24zM255 568q20 -20 49 -20q28 0 48 20q20 22 20 50q0 29 -20 49t-48 20q-27 0 -49 -20q-20 -20 -20 -49q0 -28 20 -50z" />
    <glyph glyph-name="_90" horiz-adv-x="676" 
d="M103 63q-72 79 -72 205v2q0 128 72 208q67 75 167 75q98 0 165 -78v66h190v-541h-190v72q-69 -84 -164 -84q-101 0 -168 75zM407 182q32 35 32 88v2q0 53 -32 88t-79 35t-78 -34q-33 -36 -33 -89v-2q0 -54 33 -88q32 -35 78 -35q47 0 79 35zM345 613q-49 18 -63 18
q-31 0 -51 -47l-91 25q33 149 124 149q37 0 94 -22q51 -17 62 -17q32 0 51 46l91 -25q-31 -148 -124 -148q-36 0 -93 21z" />
    <glyph glyph-name="bar.aalt" horiz-adv-x="300" 
d="M78 -128v926h145v-926h-145z" />
    <glyph glyph-name="cent.aalt" horiz-adv-x="600" 
d="M455 706l-16 -90q75 -24 126 -98l-106 -87q-31 36 -54 48l-46 -260q54 7 101 62l106 -83q-79 -110 -222 -118l-15 -86h-115l17 99q-84 26 -133 93q-52 70 -52 162v2q0 121 79 200q79 81 202 82l13 74h115zM206 348v-2q0 -81 59 -113l47 258q-49 -7 -78 -47
q-28 -38 -28 -96z" />
    <glyph glyph-name="colon.aalt" horiz-adv-x="300" 
d="M52 346v195h197v-195h-197zM52 0v195h197v-195h-197z" />
    <glyph glyph-name="comma.aalt" horiz-adv-x="300" 
d="M44 -165l-16 73q52 5 77 29t23 65h-77v197h199v-161q0 -195 -206 -203z" />
    <glyph glyph-name="degree.aalt" horiz-adv-x="600" 
d="M146 345q-64 63 -64 152t65 152q65 62 154 62t154 -62q64 -61 64 -151q0 -89 -65 -152q-64 -63 -155 -63q-89 0 -153 62zM380 417q30 31 30 80t-31 81q-32 33 -80 33q-49 0 -79 -33q-30 -32 -30 -80q0 -49 31 -81q31 -33 80 -33t79 33z" />
    <glyph glyph-name="divide.aalt" horiz-adv-x="600" 
d="M211 492v161h178v-161h-178zM552 276h-503v152h503v-152zM211 51v161h178v-161h-178z" />
    <glyph glyph-name="dollar.aalt" horiz-adv-x="600" 
d="M412 780l-11 -87q87 -17 153 -61l-62 -135q-53 35 -114 52l-15 -127q209 -59 209 -207q0 -101 -71 -160q-69 -56 -184 -57l-14 -112h-99l15 120q-110 21 -198 83l67 133q81 -55 153 -71l16 129q-105 30 -154 76q-54 51 -54 133q0 97 68 154q66 57 186 59l10 78h99z
M341 262l-15 -123q87 1 87 60q0 41 -72 63zM279 442l14 120q-82 -1 -82 -58q0 -39 68 -62z" />
    <glyph glyph-name="eight.pnum" horiz-adv-x="600" 
d="M104 44q-76 57 -76 149v3q0 119 112 168q-94 52 -94 152v3q0 82 71 138q70 55 183 55t183 -55q71 -54 71 -138v-3q0 -97 -94 -152q112 -52 112 -167v-2q0 -94 -76 -151q-76 -56 -196 -56t-196 56zM360 438q23 21 23 56v3q0 31 -23 54q-22 22 -60 22q-39 0 -61 -22
q-22 -21 -22 -54v-3q0 -33 23 -56q22 -22 60 -22t60 22zM369 153q23 23 23 58v2q0 37 -25 58q-25 22 -67 22t-67 -22q-25 -21 -25 -58v-2q0 -37 24 -59q25 -23 68 -23q44 0 69 24z" />
    <glyph glyph-name="ellipsis.aalt" horiz-adv-x="600" 
d="M354 0v188h192v-188h-192zM54 0v188h192v-188h-192z" />
    <glyph glyph-name="equal.aalt" horiz-adv-x="600" 
d="M541 405h-482v157h482v-157zM541 142h-482v158h482v-158z" />
    <glyph glyph-name="five.pnum" horiz-adv-x="600" 
d="M15 87l99 133q91 -73 171 -73q100 0 100 84v2q0 81 -102 81q-58 0 -113 -31l-113 60l26 357h455v-160h-311l-9 -109q52 18 115 18q104 0 166 -52q70 -57 70 -163v-2q0 -113 -80 -181q-77 -65 -200 -65q-158 0 -274 101z" />
    <glyph glyph-name="four.pnum" horiz-adv-x="600" 
d="M333 0v131h-297l-24 150l291 423h204v-433h79v-140h-79v-131h-174zM337 268v246l-168 -246h168z" />
    <glyph glyph-name="fraction.frac" horiz-adv-x="600" 
d="M612 798l-483 -926h-155l484 926h154z" />
    <glyph glyph-name="greater.aalt" horiz-adv-x="600" 
d="M549 266l-484 -200v171l313 114l-313 115v172l484 -200v-172z" />
    <glyph glyph-name="less.aalt" horiz-adv-x="600" 
d="M535 66l-483 200v172l483 200v-171l-313 -114l313 -115v-172z" />
    <glyph glyph-name="minus.aalt" horiz-adv-x="600" 
d="M552 268h-503v168h503v-168z" />
    <glyph glyph-name="multiply.aalt" horiz-adv-x="600" 
d="M437 100l-138 142l-138 -142l-113 113l142 138l-142 138l116 116l138 -142l138 142l113 -113l-142 -138l142 -138z" />
    <glyph glyph-name="nine.pnum" horiz-adv-x="600" 
d="M99 295q-64 58 -64 160v7q0 114 75 185q71 67 181 67q120 0 189 -71q85 -82 85 -269v-7q0 -177 -78 -278q-79 -102 -225 -102q-126 0 -214 67l71 144q71 -52 138 -52q113 0 127 141q-57 -45 -143 -45q-84 0 -142 53zM234 539q-23 -28 -23 -69q0 -43 23 -69q24 -28 65 -28
q40 0 64 28q23 26 23 69q0 41 -23 69q-24 28 -64 28t-65 -28z" />
    <glyph glyph-name="numbersign.aalt" horiz-adv-x="600" 
d="M23 289h88l19 127h-77v148h99l20 136h125l-20 -136h108l20 136h125l-20 -136h67v-148h-89l-19 -127h78v-148h-100l-20 -141h-125l21 141h-109l-20 -141h-125l20 141h-66v148zM253 421l-20 -137h114l20 137h-114z" />
    <glyph glyph-name="one.pnum" horiz-adv-x="600" 
d="M569 0h-503v152h169v369l-150 -48l-40 149l242 83h132v-553h150v-152z" />
    <glyph glyph-name="one.sinf.aalt" horiz-adv-x="400" 
d="M361 -131h-301v90h101v203l-89 -28l-26 86l144 48h81v-309h90v-90z" />
    <glyph glyph-name="oneeighth.aalt" horiz-adv-x="900" 
d="M356 307h-301v90h101v203l-89 -28l-26 86l144 48h81v-309h90v-90zM595 22q-44 32 -44 86q0 67 65 96q-54 32 -54 88q0 49 40 80q41 32 108 32q66 0 107 -32t41 -80q0 -56 -54 -88q65 -32 65 -96q0 -54 -45 -87q-44 -32 -114 -32q-72 0 -115 33zM661 280q0 -46 49 -46
t49 46q0 19 -14 31q-13 13 -35 13q-49 0 -49 -44zM654 117q0 -48 56 -48q55 0 55 48t-55 48q-56 0 -56 -48zM186 0l256 366l219 334h83l-255 -366l-220 -334h-83z" />
    <glyph glyph-name="onefifth.aalt" horiz-adv-x="900" 
d="M356 307h-301v90h101v203l-89 -28l-26 86l144 48h81v-309h90v-90zM541 49l57 76q57 -42 104 -42q56 0 56 46q0 45 -59 45q-35 0 -64 -17l-68 35l17 201h263v-92h-180l-6 -60q29 10 70 10q59 0 95 -30q40 -31 40 -90q0 -67 -45 -104q-43 -37 -116 -37q-90 0 -164 59z
M186 0l256 366l219 334h83l-255 -366l-220 -334h-83z" />
    <glyph glyph-name="onehalf.aalt" horiz-adv-x="900" 
d="M356 307h-301v90h101v203l-89 -28l-26 86l144 48h81v-309h90v-90zM555 0v87l146 114q49 39 49 68q0 38 -43 38q-38 0 -82 -50l-72 63q63 83 161 83q67 0 107 -34t40 -88q0 -70 -83 -132l-77 -58h163v-91h-309zM191 0l256 366l219 334h83l-255 -366l-220 -334h-83z" />
    <glyph glyph-name="onequarter.aalt" horiz-adv-x="900" 
d="M825 72v-74h-105v74h-178l-12 90l173 235h122v-245h48v-80h-48zM356 307h-301v90h101v203l-89 -28l-26 86l144 48h81v-309h90v-90zM196 0l256 366l219 334h83l-255 -366l-220 -334h-83zM723 150v140l-102 -140h102z" />
    <glyph glyph-name="onesixth.aalt" horiz-adv-x="900" 
d="M600 32q-52 52 -52 152v3q0 102 48 159q49 58 138 58q67 0 120 -35l-42 -84q-38 27 -77 27q-69 0 -75 -81q38 23 85 23q51 0 86 -29q38 -32 38 -92q0 -67 -44 -106q-44 -38 -110 -38q-72 0 -115 43zM356 307h-301v90h101v203l-89 -28l-26 86l144 48h81v-309h90v-90z
M186 0l256 366l219 334h83l-255 -366l-220 -334h-83zM764 127q0 53 -52 53q-53 0 -53 -53t53 -53q52 0 52 53z" />
    <glyph glyph-name="onesuperior.aalt" horiz-adv-x="400" 
d="M361 417h-301v90h101v203l-89 -28l-26 86l144 48h81v-309h90v-90z" />
    <glyph glyph-name="onethird.aalt" horiz-adv-x="900" 
d="M356 307h-301v90h101v203l-89 -28l-26 86l144 48h81v-309h90v-90zM540 52l60 72q49 -43 102 -43t53 42q0 41 -67 41h-47l-15 57l100 82h-158v90h287v-80l-105 -83q113 -14 113 -109q0 -60 -44 -96q-43 -36 -112 -36q-99 0 -167 63zM181 0l256 366l219 334h83l-255 -366
l-220 -334h-83z" />
    <glyph glyph-name="paragraph.aalt" horiz-adv-x="600" 
d="M342 0v220h-21q-133 0 -212 61q-84 65 -84 178q0 114 80 179q79 62 212 62h219v-700h-194z" />
    <glyph glyph-name="percent.aalt" horiz-adv-x="600" 
d="M545 336q35 -50 35 -141v-12q0 -92 -35 -142q-33 -48 -89 -48q-54 0 -89 48q-35 52 -35 142v12q0 90 36 141q33 48 88 48q56 0 89 -48zM233 659q35 -50 35 -141v-12q0 -90 -36 -141q-33 -48 -88 -48q-54 0 -89 47q-35 52 -35 142v12q0 91 35 141q34 48 89 48q56 0 89 -48
zM431 700h80l-188 -362l-151 -338h-80l187 362zM111 527v-31q0 -92 33 -92t33 92v31q0 92 -33 92t-33 -92zM423 204v-31q0 -92 33 -92t33 92v31q0 92 -33 92t-33 -92z" />
    <glyph glyph-name="period.aalt" horiz-adv-x="300" 
d="M51 0v197h199v-197h-199z" />
    <glyph glyph-name="periodcentered.aalt" horiz-adv-x="300" 
d="M51 214v197h199v-197h-199z" />
    <glyph glyph-name="plus.aalt" horiz-adv-x="600" 
d="M552 272l-170 1l1 -171h-165l1 171l-170 -1v161l170 -1l-1 170h165l-1 -170l170 1v-161z" />
    <glyph glyph-name="plusminus.aalt" horiz-adv-x="600" 
d="M549 376l-170 1l1 -166h-160l1 166l-170 -1v151l170 -1l-1 165h160l-1 -165l170 1v-151zM549 0h-498v140h498v-140z" />
    <glyph glyph-name="quotedbl.aalt" horiz-adv-x="600" 
d="M327 341l33 359h203v-5l-136 -354h-100zM66 341l32 359h204v-5l-137 -354h-99z" />
    <glyph glyph-name="quotesingle.aalt" horiz-adv-x="300" 
d="M46 341l32 359h207v-5l-136 -354h-103z" />
    <glyph glyph-name="section.aalt" horiz-adv-x="600" 
d="M70 58l68 112q80 -55 161 -55q49 0 49 31q0 15 -19 25q-17 8 -90 28q-117 32 -158 61q-44 30 -44 81q0 83 99 113q-50 41 -50 103q0 67 57 111q59 45 160 45q143 0 229 -70l-68 -113q-79 55 -161 55q-50 0 -50 -30q0 -14 20 -25q23 -12 90 -29q116 -30 158 -60
q44 -30 44 -82q0 -82 -100 -112q51 -41 51 -103q0 -68 -57 -111q-58 -46 -160 -46q-140 0 -229 71zM179 370q0 -26 92 -52q78 -22 106 -22q46 0 46 35q0 28 -93 52q-80 21 -105 21q-46 0 -46 -34z" />
    <glyph glyph-name="semicolon.aalt" horiz-adv-x="300" 
d="M52 346v195h197v-195h-197zM44 -167l-16 73q52 5 77 29t23 65h-76v195h197v-159q0 -196 -205 -203z" />
    <glyph glyph-name="seven.pnum" horiz-adv-x="600" 
d="M360 533h-314v167h524v-151l-295 -549h-210z" />
    <glyph glyph-name="six.pnum" horiz-adv-x="600" 
d="M502 401q64 -57 64 -158v-7q0 -114 -75 -183q-71 -67 -182 -67q-115 0 -189 71q-84 85 -84 269v7q0 179 78 278q80 102 228 102q117 0 199 -61l-71 -144q-64 46 -127 46q-115 0 -127 -148q58 46 143 46q86 0 143 -51zM366 160q23 26 23 67q0 42 -23 68t-64 26t-65 -26
q-23 -26 -23 -68q0 -41 23 -67q25 -27 65 -27t64 27z" />
    <glyph glyph-name="space.aalt" horiz-adv-x="300" 
 />
    <glyph glyph-name="sterling.aalt" horiz-adv-x="600" 
d="M112 401v52q0 124 69 193q66 66 187 66q129 0 208 -91l-99 -128q-47 51 -96 51q-37 0 -60 -23q-22 -22 -22 -70v-50h199v-139h-199v-110h271v-152h-530v114l72 28v120h-71v139h71z" />
    <glyph glyph-name="three.pnum" horiz-adv-x="600" 
d="M14 98l111 128q81 -75 165 -75q42 0 67 19t25 52v2q0 72 -116 72h-79l-27 99l165 147h-270v158h499v-144l-170 -142q183 -36 183 -193v-2q0 -105 -76 -169q-73 -64 -192 -64q-172 0 -285 112z" />
    <glyph glyph-name="two.pnum" horiz-adv-x="600" 
d="M563 0h-529v147l250 205q84 72 84 124q0 69 -77 69q-65 0 -140 -88l-120 112q107 143 274 143q113 0 184 -60q68 -60 68 -155v-2q0 -118 -134 -225l-136 -111h276v-159z" />
    <glyph glyph-name="underscore.aalt" horiz-adv-x="600" 
d="M-2 -160v116h604v-116h-604z" />
    <glyph glyph-name="yen.aalt" horiz-adv-x="600" 
d="M61 186h151v66h-151v102h127l-190 346h195l109 -233l110 233h190l-191 -346h128v-102h-150v-66h150v-102h-150v-84h-177v84h-151v102z" />
    <glyph glyph-name="zero.pnum" horiz-adv-x="600" 
d="M102 84q-72 94 -72 255v20q0 162 73 257q73 97 198 97q123 0 197 -96q72 -95 72 -256v-20q0 -162 -73 -257q-73 -97 -198 -97q-124 0 -197 97zM207 367v-34q0 -189 93 -189q94 0 94 189v34q0 189 -94 189q-93 0 -93 -189z" />
    </font>
</defs>
</svg>
